<svg xmlns="http://www.w3.org/2000/svg" viewBox="0 0 322.56 305.36"><defs><style>.cls-1{fill:#ae864c;}</style></defs><title>2_3_icon</title><g id="Слой_2" data-name="Слой 2"><g id="Слой_1-2" data-name="Слой 1"><path class="cls-1" d="M228.8,74a5.2,5.2,0,0,0-10.4,0c0,92-79.2,95.2-88,95.2h0a4.54,4.54,0,0,0-3.2,1.2c-.8.4-1.2,1.2-1.6,1.6a5.93,5.93,0,0,0,0,5.2,5.55,5.55,0,0,0,4.8,2.8h.4c9.2,0,88,3.2,88,95.2a5.2,5.2,0,1,0,10.4,0c0-91.6,78.8-95.2,88-95.2h0a6.1,6.1,0,0,0,4.8-2.8,4.92,4.92,0,0,0-.4-5.2c-.8-1.6-2.8-2.4-4.4-2.8h0C308,169.2,228.8,166,228.8,74Zm-5.2,162c-11.6-38-40-54.4-62.4-61.6,22.4-7.2,50.8-23.6,62.4-61.6,11.6,38,40,54.4,62.4,61.6C263.6,181.6,235.2,198,223.6,236Z"/><path class="cls-1" d="M109.2,120c0-50.4,43.2-52,48-52h.4a5.39,5.39,0,0,0,5.2-5.6,5.29,5.29,0,0,0-5.2-5.2h0c-4.8,0-48-1.6-48-52a5.2,5.2,0,1,0-10.4,0c0,50.4-43.2,52-48,52h-.4A5.22,5.22,0,0,0,46,62.4a5.29,5.29,0,0,0,5.2,5.2h0c5.2,0,48,1.6,48,52a5.29,5.29,0,0,0,5.2,5.2C106.8,125.2,109.2,122.8,109.2,120Zm-34-57.6A53.82,53.82,0,0,0,104,34c6.4,15.2,18,23.6,28.8,28.4A53.82,53.82,0,0,0,104,90.8C97.6,75.6,86,67.2,75.2,62.4Z"/><path class="cls-1" d="M63.2,300.4c0-50.4,43.2-52,48-52h.4a5.39,5.39,0,0,0,5.2-5.6,5.29,5.29,0,0,0-5.2-5.2h0c-4.8,0-48-1.6-48-52a5.2,5.2,0,1,0-10.4,0c0,50.4-43.2,52-48,52H4.8A5.22,5.22,0,0,0,0,242.8,5.29,5.29,0,0,0,5.2,248h0c5.2,0,48,1.6,48,52a5.29,5.29,0,0,0,5.2,5.2C60.8,306,63.2,303.6,63.2,300.4Zm-34-57.2A53.82,53.82,0,0,0,58,214.8c6.4,15.2,18,23.6,28.8,28.4A53.82,53.82,0,0,0,58,271.6C51.2,256.4,40,248,29.2,243.2Z"/></g></g></svg>