<svg xmlns="http://www.w3.org/2000/svg" viewBox="0 0 199.02 291.75"><defs><style>.cls-1{fill:#9f572b;}</style></defs><title>3_1_icon</title><g id="Слой_2" data-name="Слой 2"><g id="Слой_1-2" data-name="Слой 1"><path class="cls-1" d="M107.53,206.21l-1.24-.72V183a6.78,6.78,0,1,0-13.57,0v22.53l-1.24.72a15.92,15.92,0,0,0-8,13.83,16,16,0,1,0,32.08,0A15.89,15.89,0,0,0,107.53,206.21Zm0,0-1.24-.72V183a6.78,6.78,0,1,0-13.57,0v22.53l-1.24.72a15.92,15.92,0,0,0-8,13.83,16,16,0,1,0,32.08,0A15.89,15.89,0,0,0,107.53,206.21Zm0,0-1.24-.72V183a6.78,6.78,0,1,0-13.57,0v22.53l-1.24.72a15.92,15.92,0,0,0-8,13.83,16,16,0,1,0,32.08,0A15.89,15.89,0,0,0,107.53,206.21Zm0,0-1.24-.72V183a6.78,6.78,0,1,0-13.57,0v22.53l-1.24.72a15.92,15.92,0,0,0-8,13.83,16,16,0,1,0,32.08,0A15.89,15.89,0,0,0,107.53,206.21Zm0,0-1.24-.72V183a6.78,6.78,0,1,0-13.57,0v22.53l-1.24.72a15.92,15.92,0,0,0-8,13.83,16,16,0,1,0,32.08,0A15.89,15.89,0,0,0,107.53,206.21Zm0,0-1.24-.72V183a6.78,6.78,0,1,0-13.57,0v22.53l-1.24.72a15.92,15.92,0,0,0-8,13.83,16,16,0,1,0,32.08,0A15.89,15.89,0,0,0,107.53,206.21Zm66.14-76.4h-2.5V71.66a71.69,71.69,0,0,0-143.38,0v58.15h-2.5A25.35,25.35,0,0,0,0,155.16V266.4a25.35,25.35,0,0,0,25.29,25.35H173.67A25.38,25.38,0,0,0,199,266.4V155.16A25.38,25.38,0,0,0,173.67,129.81ZM41.36,71.66a58.15,58.15,0,0,1,116.3,0v58.15H41.36ZM185.45,266.4a11.8,11.8,0,0,1-11.78,11.79H25.29A11.77,11.77,0,0,1,13.57,266.4V155.16a11.77,11.77,0,0,1,11.72-11.78H173.67a11.79,11.79,0,0,1,11.78,11.78Zm-77.92-60.19-1.24-.72V183a6.78,6.78,0,1,0-13.57,0v22.53l-1.24.72a15.92,15.92,0,0,0-8,13.83,16,16,0,1,0,32.08,0A15.89,15.89,0,0,0,107.53,206.21Zm0,0-1.24-.72V183a6.78,6.78,0,1,0-13.57,0v22.53l-1.24.72a15.92,15.92,0,0,0-8,13.83,16,16,0,1,0,32.08,0A15.89,15.89,0,0,0,107.53,206.21Zm0,0-1.24-.72V183a6.78,6.78,0,1,0-13.57,0v22.53l-1.24.72a15.92,15.92,0,0,0-8,13.83,16,16,0,1,0,32.08,0A15.89,15.89,0,0,0,107.53,206.21Zm0,0-1.24-.72V183a6.78,6.78,0,1,0-13.57,0v22.53l-1.24.72a15.92,15.92,0,0,0-8,13.83,16,16,0,1,0,32.08,0A15.89,15.89,0,0,0,107.53,206.21Zm0,0-1.24-.72V183a6.78,6.78,0,1,0-13.57,0v22.53l-1.24.72a15.92,15.92,0,0,0-8,13.83,16,16,0,1,0,32.08,0A15.89,15.89,0,0,0,107.53,206.21Z"/></g></g></svg>