<svg xmlns="http://www.w3.org/2000/svg" viewBox="0 0 274.63 290.84"><defs><style>.cls-1{fill:#9f572b;}</style></defs><title>3_2_icon</title><g id="Слой_2" data-name="Слой 2"><g id="Слой_1-2" data-name="Слой 1"><path class="cls-1" d="M223.56,52.13c-2.13,0-20.61.06-34.08,13.2C180.59,74,176.09,86,176.09,101.14a7.81,7.81,0,1,0,15.61,0c0-10.63,2.86-18.87,8.51-24.47,8.59-8.54,21.45-8.92,22.89-8.93h.34a35.58,35.58,0,1,1,0,71.16H7.81a7.8,7.8,0,1,0,0,15.61H223.44a51.19,51.19,0,0,0,.12-102.38Z"/><path class="cls-1" d="M110.71,0c-2.14,0-20.65.1-34.09,13.2C67.74,21.86,63.24,33.91,63.24,49a7.81,7.81,0,0,0,15.61,0c0-10.64,2.86-18.87,8.51-24.48,8.63-8.56,21.47-8.91,22.9-8.93h.32a35.59,35.59,0,1,1,0,71.17H7.81a7.8,7.8,0,1,0,0,15.61H110.58A51.2,51.2,0,0,0,110.71,0Z"/><path class="cls-1" d="M223.44,188.45H7.81a7.8,7.8,0,1,0,0,15.61H223.44a35.58,35.58,0,0,1,0,71.16h-.34c-1.44,0-14.3-.4-22.89-8.92-5.65-5.61-8.51-13.84-8.51-24.48a7.81,7.81,0,0,0-15.61,0c0,15.11,4.5,27.16,13.39,35.82,12.88,12.56,30.28,13.2,33.64,13.2h.34a51.19,51.19,0,0,0,0-102.39Z"/></g></g></svg>