<svg xmlns="http://www.w3.org/2000/svg" viewBox="0 0 286.2 327.38"><defs><style>.cls-1{fill:#9f572b;}</style></defs><title>3_3_icon</title><g id="Слой_2" data-name="Слой 2"><g id="Слой_1-2" data-name="Слой 1"><path class="cls-1" d="M230,111.07a6.51,6.51,0,0,0-9.17,0l-91.48,91.48-50.31-50.3a6.49,6.49,0,0,0-9.18,9.17l54.9,54.89a6.49,6.49,0,0,0,4.59,1.9,6.41,6.41,0,0,0,4.58-1.9L230,120.25a6.49,6.49,0,0,0,0-9.18Z"/><path class="cls-1" d="M282,41.42,144.77.24a6,6,0,0,0-3.36,0L4.17,41.42A5.88,5.88,0,0,0,0,47V198c0,60.17,92.07,113.79,141.36,129.12a6,6,0,0,0,3.47,0c49.3-15.35,141.37-69,141.37-129.12V47A5.83,5.83,0,0,0,282,41.42ZM274.48,198c0,28-24.64,53.76-45.3,70.46-24.67,19.92-56.73,37.42-85.77,46.82l-.31.1-.31-.1c-29-9.4-61.11-26.9-85.77-46.82C36.35,251.76,11.72,226,11.72,198V51.39L143.1,12l.29.08L274.48,51.39Z"/></g></g></svg>