<svg xmlns="http://www.w3.org/2000/svg" viewBox="0 0 318.42 318.42"><defs><style>.cls-1{fill:#ae864c;}</style></defs><title>4_2_icon</title><g id="Слой_2" data-name="Слой 2"><g id="Слой_1-2" data-name="Слой 1"><path class="cls-1" d="M159.21,71.26a89,89,0,1,0,89,89A89.11,89.11,0,0,0,159.21,71.26Zm0,164a75,75,0,1,1,75-75A75.06,75.06,0,0,1,159.21,235.24Z"/><path class="cls-1" d="M159.21,0a6.92,6.92,0,0,0-6.91,6.91V49a6.91,6.91,0,0,0,13.82,0V6.91A6.92,6.92,0,0,0,159.21,0Z"/><path class="cls-1" d="M159.21,262.56a6.92,6.92,0,0,0-6.91,6.91v42a6.91,6.91,0,1,0,13.82,0v-42A6.92,6.92,0,0,0,159.21,262.56Z"/><path class="cls-1" d="M311.52,153.35h-42a6.91,6.91,0,1,0,0,13.82h42a6.91,6.91,0,0,0,0-13.82Z"/><path class="cls-1" d="M49,152.3h-42a6.91,6.91,0,1,0,0,13.82H49a6.91,6.91,0,1,0,0-13.82Z"/><path class="cls-1" d="M80,78.64,50.27,48.91a6.92,6.92,0,0,0-9.77,0,6.92,6.92,0,0,0,0,9.77L70.23,88.41A6.91,6.91,0,1,0,80,78.64Z"/><path class="cls-1" d="M277.92,48.91a6.91,6.91,0,0,0-9.77,0L238.42,78.64a6.92,6.92,0,0,0,0,9.77,6.89,6.89,0,0,0,9.77,0l29.73-29.73a6.89,6.89,0,0,0,0-9.77Z"/><path class="cls-1" d="M80,230a6.92,6.92,0,0,0-9.77,0L40.5,259.74a6.92,6.92,0,0,0,4.89,11.8,6.84,6.84,0,0,0,4.88-2L80,239.78A6.89,6.89,0,0,0,80,230Z"/><path class="cls-1" d="M277.92,259.74,248.19,230a6.91,6.91,0,0,0-9.77,9.77l29.73,29.73a6.91,6.91,0,1,0,9.77-9.77Z"/></g></g></svg>