<svg xmlns="http://www.w3.org/2000/svg" viewBox="0 0 310.41 289.39"><defs><style>.cls-1{fill:#ae864c;}.cls-2{fill:#1d1d1b;}</style></defs><title>4_4_icon</title><g id="Слой_2" data-name="Слой 2"><g id="Слой_1-2" data-name="Слой 1"><path class="cls-1" d="M121.53,23.15H28.93a5.8,5.8,0,0,0-5.79,5.79V133.12a5.79,5.79,0,0,0,5.79,5.78h92.6a5.78,5.78,0,0,0,5.78-5.78V28.95A5.79,5.79,0,0,0,121.53,23.15Zm-5.78,104.18h-81V34.73h81Z"/><path class="cls-1" d="M237.28,23.15h-92.6a5.8,5.8,0,0,0-5.79,5.79V133.12a5.79,5.79,0,0,0,5.79,5.78h92.6a5.78,5.78,0,0,0,5.78-5.78V28.95A5.79,5.79,0,0,0,237.28,23.15ZM231.5,127.33h-81V34.73h81Z"/><path class="cls-1" d="M121.53,150.48H28.93a5.79,5.79,0,0,0-5.79,5.78V260.45a5.79,5.79,0,0,0,5.79,5.78h92.6a5.78,5.78,0,0,0,5.78-5.78V156.26A5.78,5.78,0,0,0,121.53,150.48Zm-5.78,104.18h-81v-92.6h81Z"/><path class="cls-1" d="M239.62,171l3.45,3.45V156.26a5.79,5.79,0,0,0-5.79-5.78H144.69a5.8,5.8,0,0,0-5.8,5.78V260.45a5.79,5.79,0,0,0,5.8,5.78h92.59a5.79,5.79,0,0,0,5.79-5.78V220.58L231.5,209v45.64h-81v-92.6h81v17.08Z"/><path class="cls-1" d="M266.22,174.3V5.79A5.79,5.79,0,0,0,260.44,0H5.78A5.78,5.78,0,0,0,0,5.79v277.8a5.79,5.79,0,0,0,5.78,5.8H260.44a5.79,5.79,0,0,0,5.78-5.8V220.75l-11.48,11.48-.1-.1v45.68H11.56V11.58H254.64v174.3Z"/><path class="cls-1" d="M231.4,194.09l.1.1V194Z"/><polygon class="cls-2" points="231.5 193.99 231.5 194.19 231.4 194.09 231.5 193.99"/><path class="cls-1" d="M254.56,200.81l-14.94-14.94-8.22,8.22,19.72,19.72,0,0,3.6,3.6,55.67-55.67L302,153.34Zm0,0"/></g></g></svg>