<svg xmlns="http://www.w3.org/2000/svg" viewBox="0 0 398.8 276.56"><defs><style>.cls-1{fill:#ae864c;}</style></defs><title>4_5_icon</title><g id="Слой_2" data-name="Слой 2"><g id="Слой_1-2" data-name="Слой 1"><path class="cls-1" d="M311.19,87a65.29,65.29,0,0,0-45.8-19.17A66.39,66.39,0,0,0,231.87,77,69.31,69.31,0,0,0,213.1,94.11L210.94,97l-2.88-2.16c-.74-.55-1.57-1.2-2.4-1.85s-1.55-1.21-2.24-1.72A93,93,0,0,0,89.63,97.19a96,96,0,0,0-30.24,49.71l-.6,2.43-2.49.29a63.71,63.71,0,0,0,7.52,127H245.19c20.17-.33,38.6-8,51.86-21.63l0,0a72.38,72.38,0,0,0,21.3-51.54,65.87,65.87,0,0,0-4.42-24.6l-.84-2,1.45-1.68a58.69,58.69,0,0,0,10.54-17l.05-.13a64.66,64.66,0,0,0,5.11-25.25A64,64,0,0,0,311.19,87Zm-23.06,161.5a61.3,61.3,0,0,1-43.66,18H64.35l-.19,0c-14.54-1.53-27.26-7.37-36.79-16.9a53.43,53.43,0,0,1-11.43-17,51.16,51.16,0,0,1,11.48-56.66,52.52,52.52,0,0,1,36.75-15.42,5.38,5.38,0,0,0,2.33-.48,5.26,5.26,0,0,0,2.4-3.64,82.36,82.36,0,0,1,27.53-49.8,82.35,82.35,0,0,1,100.33-4.93,80,80,0,0,1,25.66,29.08l1.94,3.74-4,1.33a23.92,23.92,0,0,0-5,2.19l-.39.21a71.16,71.16,0,0,0-24.67,18.13,5.59,5.59,0,1,0,8.27,7.53,61.67,61.67,0,0,1,89.6-2.66,61.94,61.94,0,0,1,0,87.31Zm27.11-95.29a69.16,69.16,0,0,1-3.81,7.63l-2.82,4.94-3.26-4.66a69.88,69.88,0,0,0-7.89-9.25,72.38,72.38,0,0,0-51.54-21.3,40.35,40.35,0,0,0-6.26.32l-2.78.46-1.13-2.59c-3.06-7-7.47-13.86-13.87-21.46l-1.72-2,1.45-2.24a55.12,55.12,0,0,1,16.58-16.22l.05,0a53.22,53.22,0,0,1,81.23,45.61A54.52,54.52,0,0,1,315.24,153.17Z"/><path class="cls-1" d="M361.48,42.55a5.54,5.54,0,0,1-1.65,3.94L340,66.32a5.57,5.57,0,1,1-7.88-7.88L352,38.61a5.59,5.59,0,0,1,9.53,3.94Z"/><path class="cls-1" d="M271.88,5.77V33.53a5.77,5.77,0,1,1-11.54,0V5.41A5.6,5.6,0,0,1,266.11,0,5.92,5.92,0,0,1,271.88,5.77Z"/><path class="cls-1" d="M201.38,62.38a5.57,5.57,0,0,1-9.53,3.94L172,46.49a5.51,5.51,0,0,1,0-7.88A5.75,5.75,0,0,1,176.1,37h.15a4.82,4.82,0,0,1,3.52,1.51l20,20A5.54,5.54,0,0,1,201.38,62.38Z"/><path class="cls-1" d="M398.8,132.69a5.92,5.92,0,0,1-5.77,5.77H365.27a5.77,5.77,0,0,1,0-11.54H393A5.71,5.71,0,0,1,398.8,132.69Z"/><path class="cls-1" d="M359.83,226.42a5.51,5.51,0,0,1-7.88,0l-19.83-19.83a5.57,5.57,0,1,1,7.88-7.88l19.83,19.83A5.51,5.51,0,0,1,359.83,226.42Z"/></g></g></svg>