<svg xmlns="http://www.w3.org/2000/svg" viewBox="0 0 240.92 240.83"><defs><style>.cls-1{fill:#ae864c;}</style></defs><title>4_6_icon</title><g id="Слой_2" data-name="Слой 2"><g id="Слой_1-2" data-name="Слой 1"><path class="cls-1" d="M225.44,155.88c-11.09-9.19-22.34-11.09-33.22-12.93-7.54-1.29-14-2.39-20-5.81l-10.12-5.82,11.41-2.47c28.22-6.13,48.77-20.29,59.42-40.94,10.11-19.59,9.4-43.07-1.94-64.42C224.42,11,209.95,1.89,194.18.26c-15-1.55-29,4-38.35,15.23s-11.1,22.34-12.94,33.23c-1.26,7.46-2.35,13.88-5.72,19.81l-5.82,10.22-2.49-11.49C122.74,39,108.58,18.47,87.92,7.8A64.09,64.09,0,0,0,58.4.7a74.5,74.5,0,0,0-34.91,9C11,16.36,1.9,30.83.26,46.61c-1.55,15,4,29,15.23,38.35C26.58,94.14,37.83,96,48.7,97.9c7.55,1.27,14,2.36,20,5.79l10.11,5.82L67.39,112c-28.23,6.13-48.78,20.29-59.44,40.94-10.1,19.59-9.39,43.07,2,64.42,6.61,12.48,21.09,21.59,36.87,23.23a48,48,0,0,0,5,.25,42.62,42.62,0,0,0,33.38-15.48C94.31,214.25,96.21,203,98,192.1c1.26-7.44,2.34-13.86,5.71-19.79l5.82-10.24,2.5,11.51c6.12,28.24,20.28,48.8,40.94,59.45a63.75,63.75,0,0,0,29.52,7.11,75,75,0,0,0,34.9-9.05c12.48-6.62,21.6-21.09,23.23-36.87C242.22,179.19,236.67,165.22,225.44,155.88ZM147.72,77.55c5.7-8.82,7.29-18.22,8.7-26.52a99.15,99.15,0,0,1,3-13.86,38.07,38.07,0,0,1,6.95-12.92c8.71-10.47,20.27-11,26.39-10.34,11.17,1.16,21.67,7.59,26.14,16,9.34,17.57,10,35.93,1.88,51.7-8.6,16.66-25.63,28.29-49.25,33.63l-4.54,1-.87-4.58a46.51,46.51,0,0,0-17.38-28.14L145.47,81ZM77.63,93.12C68.79,87.37,59.36,85.78,51,84.37c-9.53-1.61-18.53-3.14-26.79-10h0C13.79,65.7,13.29,54.14,13.92,48c1.15-11.18,7.58-21.69,16-26.16,17.57-9.33,35.93-10,51.69-1.87C98.33,28.61,110,45.68,115.28,69.35l1,4.54-4.57.87A46.49,46.49,0,0,0,83.65,92.09l-2.53,3.29Zm15.59,70.17c-5.7,8.81-7.3,18.22-8.7,26.53-1.61,9.51-3.12,18.5-10,26.77A28.88,28.88,0,0,1,51.7,227.1a33.41,33.41,0,0,1-3.52-.18c-11.19-1.15-21.7-7.59-26.16-16-9.33-17.57-10-35.93-1.87-51.69,8.6-16.67,25.63-28.3,49.25-33.63l4.54-1,.87,4.57a46.54,46.54,0,0,0,17.37,28.14l3.29,2.53ZM87.7,120.42a32.77,32.77,0,1,1,32.77,32.76A32.81,32.81,0,0,1,87.7,120.42ZM227,192.81a37.76,37.76,0,0,1-5.28,15.6A29,29,0,0,1,211,219a60.68,60.68,0,0,1-28.43,7.51,50.39,50.39,0,0,1-23.27-5.64c-16.7-8.62-28.34-25.69-33.65-49.37l-1-4.53,4.57-.87a46.44,46.44,0,0,0,28.08-17.32l2.54-3.29,3.48,2.26c8.83,5.74,18.27,7.34,26.59,8.75,9.55,1.61,18.53,3.13,26.78,10C227.15,175.14,227.65,186.69,227,192.81Z"/></g></g></svg>