<svg xmlns="http://www.w3.org/2000/svg" viewBox="0 0 278.13 278.13"><defs><style>.cls-1{fill:#9f572b;}</style></defs><title>5_3_icon</title><g id="Слой_2" data-name="Слой 2"><g id="Слой_1-2" data-name="Слой 1"><path class="cls-1" d="M139.07,278.13A138.51,138.51,0,0,1,0,139.07,138.51,138.51,0,0,1,139.07,0c37.18,0,72.09,12.88,98.31,36.28s40.75,54.64,40.75,87.83c0,44.44-34.81,79.26-79.26,79.26H172A18.4,18.4,0,0,0,154,221.3c0,4.49,2.29,8,5,12.1,4.88,5,7,10.37,7,17.81C166,265.55,153.41,278.13,139.07,278.13ZM139.07,9A130.22,130.22,0,0,0,9,139.07c0,71.72,58.35,130.06,130.07,130.06A18.39,18.39,0,0,0,157,251.21c0-5.18-1.26-8.37-4.66-11.77l-.32-.32-.25-.37C148.6,234,145,228.64,145,221.3c0-14.35,12.58-26.93,26.93-26.93h26.91c39.4,0,70.26-30.86,70.26-70.26C269.13,60.64,210.79,9,139.07,9ZM221.3,143.57c-14.35,0-26.93-12.58-26.93-26.93S207,89.71,221.3,89.71s26.93,12.58,26.93,26.93S235.65,143.57,221.3,143.57Zm0-44.86a17.93,17.93,0,1,0,17.93,17.93A18.4,18.4,0,0,0,221.3,98.71ZM56.83,143.57c-14.34,0-26.93-12.58-26.93-26.93S42.49,89.71,56.83,89.71s26.93,12.58,26.93,26.93S71.18,143.57,56.83,143.57Zm0-44.86a17.93,17.93,0,0,0,0,35.86,17.93,17.93,0,0,0,0-35.86Zm119.62-15c-14.35,0-26.93-12.58-26.93-26.93S162.1,29.9,176.45,29.9s26.93,12.58,26.93,26.93S190.79,83.76,176.45,83.76Zm0-44.85a18.4,18.4,0,0,0-17.93,17.93,17.93,17.93,0,1,0,35.85,0A18.39,18.39,0,0,0,176.45,38.9ZM101.69,83.76c-14.35,0-26.93-12.58-26.93-26.93S87.34,29.9,101.69,29.9s26.93,12.58,26.93,26.93S116,83.76,101.69,83.76Zm0-44.85A18.4,18.4,0,0,0,83.76,56.83a17.93,17.93,0,1,0,35.85,0A18.39,18.39,0,0,0,101.69,38.9Z"/></g></g></svg>