<svg xmlns="http://www.w3.org/2000/svg" viewBox="0 0 350.93 395.06"><defs><style>.cls-1{fill:#603d07;}</style></defs><title>33</title><g id="Слой_2" data-name="Слой 2"><g id="Слой_1-2" data-name="Слой 1"><path class="cls-1" d="M342.49,240.79a8.44,8.44,0,0,0-8.44,8.44V354H264.37V208.37h78.12a8.44,8.44,0,1,0,0-16.88H255.93a8.44,8.44,0,0,0-8.44,8.44v4.28l-53.76-53.76a28.76,28.76,0,0,0-30.36-6.58A89.26,89.26,0,0,0,144.2,1a8.44,8.44,0,0,0-12.49,7.41V83.59H71.23V8.45A8.45,8.45,0,0,0,58.75,1,89.27,89.27,0,0,0,44,147.82v22H28.71A28.74,28.74,0,0,0,0,198.52v.41A28.65,28.65,0,0,0,8.39,219.2,28.63,28.63,0,0,0,0,239.47v.41a28.65,28.65,0,0,0,8.39,20.27A28.61,28.61,0,0,0,0,280.41v.41a28.65,28.65,0,0,0,8.39,20.27A28.63,28.63,0,0,0,0,321.36v.41a28.74,28.74,0,0,0,28.71,28.71H45.32A57.14,57.14,0,0,0,101,395.06h1a57.11,57.11,0,0,0,55.64-44.58H225a8.45,8.45,0,0,0,0-16.89H159V263.93a8.44,8.44,0,0,0-16.89,0V338A40.18,40.18,0,0,1,102,378.17h-1a40.22,40.22,0,0,1-38.17-27.69H76.1a28.75,28.75,0,0,0,28.71-28.71v-.41a28.64,28.64,0,0,0-8.4-20.27,28.65,28.65,0,0,0,8.4-20.27v-.41a28.62,28.62,0,0,0-8.4-20.26,28.66,28.66,0,0,0,8.4-20.27v-.41a28.65,28.65,0,0,0-8.4-20.27,28.66,28.66,0,0,0,8.4-20.27v-.41A28.75,28.75,0,0,0,76.1,169.81H60.84v-26a8.44,8.44,0,0,0-3.31-6.7A72.37,72.37,0,0,1,54.35,24.46V92a8.44,8.44,0,0,0,8.44,8.44h77.37A8.44,8.44,0,0,0,148.6,92V24.46a72.38,72.38,0,0,1-3.19,112.61,8.47,8.47,0,0,0-3.31,6.7v17.71L119.62,184a28.7,28.7,0,0,0,0,40.6l.29.29a28.73,28.73,0,0,0,40.6,0L177.32,208a8.44,8.44,0,0,0-11.94-11.93l-16.8,16.8a11.85,11.85,0,0,1-16.73,0l-.29-.29a11.8,11.8,0,0,1,0-16.72l33.51-33.51a11.83,11.83,0,0,1,16.71,0,0,0,0,0,1,0,0l65.7,65.7V362.47a8.43,8.43,0,0,0,8.44,8.44h86.56a8.44,8.44,0,0,0,8.44-8.44V249.23A8.44,8.44,0,0,0,342.49,240.79Zm-254.57,81a11.85,11.85,0,0,1-11.83,11.83H28.71a11.84,11.84,0,0,1-11.83-11.83v-.4a11.83,11.83,0,0,1,11.83-11.83H76.1a11.84,11.84,0,0,1,11.82,11.83Zm0-40.94a11.85,11.85,0,0,1-11.83,11.83H28.71a11.84,11.84,0,0,1-11.83-11.83v-.41a11.84,11.84,0,0,1,11.83-11.83H76.1a11.85,11.85,0,0,1,11.82,11.83Zm0-41A11.84,11.84,0,0,1,76.09,251.7H28.71a11.83,11.83,0,0,1-11.83-11.83v-.4a11.83,11.83,0,0,1,11.83-11.83H76.1a11.84,11.84,0,0,1,11.82,11.83ZM76.1,186.69a11.85,11.85,0,0,1,11.82,11.83v.41a11.85,11.85,0,0,1-11.83,11.83H28.71a11.84,11.84,0,0,1-11.83-11.83v-.41a11.84,11.84,0,0,1,11.83-11.83Z"/></g></g></svg>