<svg xmlns="http://www.w3.org/2000/svg" viewBox="0 0 486.19 454.2"><defs><style>.cls-1{fill:#603d07;}</style></defs><title>55</title><g id="Слой_2" data-name="Слой 2"><g id="Слой_1-2" data-name="Слой 1"><path class="cls-1" d="M243.19,454.2A679,679,0,0,1,101.7,439.45c-4.27-.91-9.7-2.78-13.72-9.2A595.82,595.82,0,0,1,4.61,210.55c-2-11.93-3.21-24.06-4.39-35.78l-.15-1.45a17.84,17.84,0,0,1,4.38-13.14A626.78,626.78,0,0,1,194.8,19.59c8-3.83,16.19-7.37,24.12-10.79,5.19-2.24,10.55-4.55,15.75-6.91a19.56,19.56,0,0,1,16.21-.26C340.06,38,417.13,90.87,479.95,158.75c.53.57,1.26,1.21,2,1.9.48.42,1,.84,1.43,1.27l2.76,2.53v10.34l-.08.59q-.6,4.29-1.22,8.58c-.87,6-1.76,12.3-2.58,18.43-9.63,71.78-34.06,142-72.61,208.82-1.65,2.86-3.38,5.69-5,8.43-2.07,3.41-4,6.63-5.89,9.94a18.88,18.88,0,0,1-13.34,9.68,700.73,700.73,0,0,1-119.32,14.56Q254.63,454.2,243.19,454.2ZM17,171.86l.12,1.21c1.15,11.45,2.34,23.29,4.24,34.68a578.92,578.92,0,0,0,81,213.47c.51.81.72,1.15,2.86,1.6a665.31,665.31,0,0,0,160.3,14,683.73,683.73,0,0,0,116.41-14.22c1.33-.28,1.49-.49,2-1.35,2-3.58,4.14-7.08,6.2-10.46,1.62-2.65,3.29-5.4,4.84-8.09,37.44-64.85,61.15-133,70.48-202.58.83-6.21,1.73-12.5,2.6-18.58q.57-4,1.13-8V172c-.56-.52-1.14-1.09-1.72-1.71-61.12-66-136.15-117.5-223-152.93a2.75,2.75,0,0,0-2.78,0c-5.33,2.41-10.77,4.76-16,7-7.78,3.36-15.82,6.83-23.51,10.51a609.81,609.81,0,0,0-185,136.61A2.08,2.08,0,0,0,17,171.86Zm.15-.42h0Z"/><path class="cls-1" d="M93.68,272.87V193.09h56.46v15H110.66v64.83Z"/><path class="cls-1" d="M158.15,233c0-24,17.58-41.27,41.63-41.27S241.53,209,241.53,233s-17.58,41.27-41.75,41.27S158.15,257.08,158.15,233Zm65.91,0c0-15-9.57-26.2-24.28-26.2s-24.16,11.24-24.16,26.2,9.45,26.2,24.16,26.2S224.06,247.87,224.06,233Z"/><path class="cls-1" d="M249.66,233c0-24.52,18.54-41.27,42.47-41.27,17.58,0,27.75,9.57,33.37,19.5l-14.59,7.18a21.62,21.62,0,0,0-18.78-11.6c-14.47,0-25,11.13-25,26.2s10.53,26.2,25,26.2a21.39,21.39,0,0,0,18.78-11.6l14.59,7.06c-5.74,9.93-15.79,19.62-33.37,19.62C268.2,274.31,249.66,257.56,249.66,233Z"/><path class="cls-1" d="M354.08,272.87V208H330.76v-15h63.64v15H371.19v64.83Z"/></g></g></svg>