<svg xmlns="http://www.w3.org/2000/svg" viewBox="0 0 372.34 409.6"><defs><style>.cls-1{fill:#603d07;}</style></defs><title>66</title><g id="Слой_2" data-name="Слой 2"><g id="Слой_1-2" data-name="Слой 1"><path class="cls-1" d="M365.72,67.47l-.55-.1A497,497,0,0,1,190.35,1.18a8,8,0,0,0-8.38,0,491.35,491.35,0,0,1-173.73,66l-1.63.29A8,8,0,0,0,0,75.35V180.07A234.81,234.81,0,0,0,184.45,409.41a8,8,0,0,0,3.44,0A234.95,234.95,0,0,0,372.34,180V75.35a8,8,0,0,0-6.62-7.88ZM356.34,180c0,101.4-71.46,190.88-170.18,213.44C87.46,370.88,16,281.45,16,180.07V82A507.14,507.14,0,0,0,186.18,17.36,512.77,512.77,0,0,0,356.34,82Zm0,0"/><path class="cls-1" d="M150.77,59.38"/><path class="cls-1" d="M98.43,254V236.6c42.91-31.75,55.48-42.59,55.48-55.48,0-9.11-8.33-13.67-17-13.67a37.48,37.48,0,0,0-28.13,12.1L96.07,164.77c10.22-11.79,25.78-17.13,40.39-17.13,22.32,0,40.08,12.57,40.08,33.48,0,17.92-14.77,33.48-42,53.28h42.75V254Z"/><path class="cls-1" d="M193,240.21l12.42-15.56c7.07,7.39,16.82,11.47,27.82,11.47,12.42,0,19.49-7.07,19.49-15.56,0-9.27-6.91-15.56-18.86-15.56-8.64,0-15.72,2.51-22,8.49l-15.56-4.09V149.21h72v19.65H218.66v25.62c5-5,13.52-8.8,23.1-8.8,17.76,0,33.63,12.73,33.63,33.95,0,22.32-16.66,36.31-42,36.31C215.2,255.93,202,250,193,240.21Z"/></g></g></svg>