<svg xmlns="http://www.w3.org/2000/svg" viewBox="0 0 512 277.7"><defs><style>.cls-1{fill:#603d07;}</style></defs><title>22</title><g id="Слой_2" data-name="Слой 2"><g id="Layer_1" data-name="Layer 1"><path class="cls-1" d="M62.66,137.39q3.57,1.34,7.31,2.56Q66.23,138.71,62.66,137.39Zm41.48,11.47v0c8.33,1.67,17,3.08,26,4.19v0C121.17,151.93,112.47,150.52,104.14,148.86ZM70,139.95c5.36,1.79,11,3.45,16.81,5v0Q78,142.61,70,139.95Zm77.56,14.88h0c1.43.12,2.87.23,4.32.32C150.41,155.06,149,154.95,147.53,154.83Zm147-14.88c2.49-.81,4.93-1.67,7.31-2.56Q298.24,138.71,294.5,139.95Zm-16.81,4.93v0c5.83-1.51,11.45-3.17,16.81-5Q286.46,142.6,277.69,144.88ZM217,154.83c-1.43.12-2.88.23-4.32.33,1.45-.09,2.89-.2,4.32-.32,1.83-.14,3.64-.3,5.44-.48ZM234.31,153v0c9-1.11,17.7-2.52,26-4.19v0C252,150.52,243.31,151.93,234.31,153Z"/><path class="cls-1" d="M303.73,136.67l-.19.08.19-.07.43-.17Zm59.66-49.89h1.08V78.1A35.77,35.77,0,0,1,363.39,86.78ZM60.75,136.67l-.43-.16.43.17.29.11Z"/><path class="cls-1" d="M512,143.19v1.73a15.2,15.2,0,0,0-14.75-14.75H499A13.35,13.35,0,0,1,512,143.19Z"/><path class="cls-1" d="M512,245.59v2.6c0,6.08-6.07,12.15-13,12.15h-1.73A15.2,15.2,0,0,0,512,245.59Z"/><path class="cls-1" d="M182.24,112.82c-34.71,0-69.42-12.15-69.42-34.71s34.71-34.71,69.42-34.71,69.42,12.15,69.42,34.71S216.95,112.82,182.24,112.82Zm0-52.07c-32.11,0-52.07,11.28-52.07,17.36s20,17.36,52.07,17.36,52.07-11.28,52.07-17.36S214.35,60.75,182.24,60.75Z"/><path class="cls-1" d="M60.75,136.67h0l-.43-.17Z"/><path class="cls-1" d="M222.39,154.36c-1.8.18-3.61.34-5.44.48h0Z"/><path class="cls-1" d="M497.25,130.17H442.58c-42.53,0-78.11-20-78.11-43.39h-1.08a35.77,35.77,0,0,0,1.08-8.68C364.47,34.71,284.64,0,182.24,0S0,34.71,0,78.1V199.6C0,243,79.84,277.7,182.24,277.7c81.8,0,149.2-22.15,173-53.18,14.65,21.22,47.69,35.82,87.34,35.82h54.67A15.2,15.2,0,0,0,512,245.59V144.92A15.2,15.2,0,0,0,497.25,130.17ZM347.12,199.6c0,10.63-9.33,21.74-26,31.5V216.95c0-5.21-3.47-8.68-8.67-8.68s-8.68,3.47-8.68,8.68v22.7a220.85,220.85,0,0,1-26,8.86V225.63c0-5.21-3.47-8.68-8.67-8.68s-8.68,3.47-8.68,8.68v26c0,.35,0,.7,0,1q-12.35,2.6-26.08,4.39V234.31c0-5.21-3.48-8.68-8.68-8.68S217,229.1,217,234.31v24.61q-12.57,1.05-26,1.34V243c0-5.21-3.48-8.68-8.68-8.68s-8.68,3.47-8.68,8.68v17.27q-13.44-.27-26-1.34V234.31c0-5.21-3.48-8.68-8.68-8.68s-8.68,3.47-8.68,8.68v22.78q-13.71-1.77-26.08-4.39c0-.34,0-.69,0-1v-26c0-5.21-3.48-8.68-8.68-8.68s-8.68,3.47-8.68,8.68v22.88a220,220,0,0,1-26-8.86v-22.7c0-5.21-3.48-8.68-8.68-8.68s-8.68,3.47-8.68,8.68V231.1c-16.7-9.77-26-20.88-26-31.5V111.95c6.86,6.24,15.65,12,26.08,17.21,0,.33,0,.66,0,1v34.71c0,5.21,3.47,8.68,8.68,8.68s8.68-3.47,8.68-8.68v-28.2l-.43-.17.43.16.29.12.2.08.5.18.92.34q3.57,1.32,7.31,2.56,8.06,2.66,16.81,4.93v20c0,5.21,3.47,8.68,8.68,8.68s8.68-3.47,8.68-8.68v-16c8.33,1.66,17,3.07,26,4.19v29.19c0,5.21,3.47,8.68,8.68,8.68s8.68-3.47,8.68-8.68V154.83c1.43.12,2.88.23,4.32.33l3.3.22c2.06.12,4.12.24,6.2.34l.74,0,2.58.11q4.41.18,8.89.26v17.44c0,5.21,3.47,8.68,8.68,8.68s8.68-3.47,8.68-8.68V156.12q4.48-.08,8.89-.26l2.58-.11.74,0c2.08-.1,4.14-.22,6.2-.34l3.3-.22c1.44-.1,2.89-.21,4.32-.33l5.44-.47c-1.8.18-3.61.34-5.44.48v27.4c0,5.21,3.47,8.68,8.68,8.68s8.68-3.47,8.68-8.68V153c9-1.12,17.7-2.53,26-4.19v16c0,5.21,3.47,8.68,8.68,8.68s8.67-3.47,8.67-8.68v-20q8.76-2.27,16.81-4.93,3.73-1.24,7.31-2.56l1.34-.5.39-.14.19-.08.43-.16-.43.17v28.2c0,5.21,3.47,8.68,8.68,8.68s8.67-3.47,8.67-8.68V130.17c0-.35,0-.68,0-1,10.43-5.19,19.23-11,26.09-17.21ZM182.24,138.85C85,138.85,17.36,106.74,17.36,78.1S85,17.36,182.24,17.36,347.12,49.47,347.12,78.1,279.43,138.85,182.24,138.85ZM451.25,243h-8.67a130.51,130.51,0,0,1-26-2.58V208.27c0-5.2-3.47-8.67-8.68-8.67s-8.67,3.47-8.67,8.67v27.17c-20.82-7.9-34.72-21.19-34.72-35.84V122.12A82.44,82.44,0,0,0,381.83,134v30.9c0,5.21,3.47,8.68,8.68,8.68s8.68-3.47,8.68-8.68V141.11a129.78,129.78,0,0,0,17.35,4.22v19.55c0,5.21,3.47,8.68,8.68,8.68s8.68-3.47,8.68-8.68V147.29c2.85.16,5.75.24,8.68.24h8.67Zm43.39,0h-26V147.53h26Z"/><path class="cls-1" d="M304.16,136.51l-.43.17h0Z"/></g></g></svg>