<svg xmlns="http://www.w3.org/2000/svg" viewBox="0 0 501.36 302.29"><defs><style>.cls-1{fill:#603d07;}</style></defs><title>44</title><g id="Слой_2" data-name="Слой 2"><g id="Слой_1-2" data-name="Слой 1"><path class="cls-1" d="M497,148.28l-29.53-17.16-.12-.52-16.61-71a40.14,40.14,0,0,0-39.23-31.11h-84.8V14a8.8,8.8,0,0,0-8.79-8.79A8.79,8.79,0,0,0,309.11,14V172.5H258.18V10.78c0-1.95,0-3.18,0-4.36,0-4.14-2.56-6.42-6.71-6.42H69.61a7.5,7.5,0,0,0-7.5,7.5v165H11.78A11.79,11.79,0,0,0,0,184.28v69A8.8,8.8,0,0,0,8.79,262H42.06l.2,1a49,49,0,0,0,96.06,0l.21-1H343.76l.2,1A49,49,0,0,0,440,263l.2-1h52.34a8.8,8.8,0,0,0,8.79-8.79V155.87A8.81,8.81,0,0,0,497,148.28ZM170.85,15h72.33V172.5H170.85Zm-93.74.2a2,2,0,0,1,.38-.2h78.36V70.33H77.11Zm0,70.13h78.74V172.5H77.11Zm34.11,191.39a31.55,31.55,0,0,1-21,8,30.17,30.17,0,0,1-3.55-.2,31.47,31.47,0,1,1,24.55-7.79Zm197.89-68.24H217.66a9,9,0,0,0-9,7.46,8.79,8.79,0,0,0,8.68,10.13h91.78v18.42H138.53l-.21-1a49,49,0,0,0-96.06,0l-.2,1H17.58V190.08H309.11ZM384.9,46.1h26.58A22.61,22.61,0,0,1,433.6,63.64L448.67,128H384.9Zm38.49,209.19a31.56,31.56,0,0,1-28.77,29.32c-.88.07-1.76.1-2.63.1a31.47,31.47,0,0,1-31.36-29.35v-.17l0-.17a9.1,9.1,0,0,0,0-3.5l0-.17v-.17a31.45,31.45,0,0,1,62.76,4.11Zm60.39-58.45h-21.6V183.72h21.6Zm0-30.69H453.4a8.79,8.79,0,0,0-8.78,8.78v30.7a8.79,8.79,0,0,0,8.78,8.79h30.38v30.07H440.23l-.2-1a49,49,0,0,0-96.07,0l-.2,1H326.68V46.1h40.65v90.72a8.8,8.8,0,0,0,8.79,8.79h81.27l26.39,15.33Z"/></g></g></svg>