<svg xmlns="http://www.w3.org/2000/svg" viewBox="0 0 275.15 253.71"><defs><style>.cls-1,.cls-2{fill:#bf6052;}.cls-1{stroke:#666;stroke-miterlimit:10;stroke-width:2px;}</style></defs><title>1_1_icon</title><g id="Слой_2" data-name="Слой 2"><g id="Слой_1-2" data-name="Слой 1"><path class="cls-1" d="M270,252.71H5.12a4.06,4.06,0,0,1-3.06-1.41A4,4,0,0,1,1,248L22.5,79.7a4.1,4.1,0,0,1,4.09-3.6h222a4.13,4.13,0,0,1,4.12,3.6L274.13,248a4.33,4.33,0,0,1-1,3.28,4.23,4.23,0,0,1-3.11,1.41ZM9.84,244.44H265.32L244.91,84.38H30.22Zm0,0"/><path class="cls-1" d="M137.56,84.38a41.69,41.69,0,1,1,41.71-41.68,41.72,41.72,0,0,1-41.71,41.68Zm0-75.1A33.4,33.4,0,1,0,171,42.71,33.45,33.45,0,0,0,137.56,9.29Zm0,0"/><path class="cls-2" d="M121.64,146.87c-3.88,6.3-9.09,10.83-14.19,12.85-.72.32-.81.93,0,1.25,5.94,2.55,10.92,7.44,14.91,14l12.78,20.93c.53.72.12,1.34-.81,1.34H124a1.63,1.63,0,0,1-1.42-.72l-10.11-16.37c-4.8-8-11.88-14.52-19.43-14.52H90.68V196.1a1,1,0,0,1-1.13,1.13h-9.3a1,1,0,0,1-1.09-1.13V126.9a1,1,0,0,1,1.09-1.09h9.33a1,1,0,0,1,1.1,1.09v28.54h2.27c7.36,0,14.31-6.15,18.79-13.5l9.5-15.44a1.59,1.59,0,0,1,1.46-.68h10.18c.85,0,1.25.6.72,1.34Zm0,0"/><path class="cls-2" d="M197.26,191.48a1.24,1.24,0,0,1-.93,1.33l-4.41,1.46-5,1.74a42.47,42.47,0,0,1-15,2.34c-19.52,0-31.29-14.23-31.29-36.77s11.76-36.78,31.29-36.78a44,44,0,0,1,15,2.42l4.73,1.67c.68.28,1,.81.68,1.41L189.5,138a1.1,1.1,0,0,1-1.46.73l-4.48-1.54a32.88,32.88,0,0,0-11.64-1.85c-12.25,0-19.52,9.82-19.52,26.27s7.27,26.15,19.52,26.15a33.91,33.91,0,0,0,11.31-1.61l2.88-.93V169.74H173.73c-.81,0-1.21-.53-1-1.21l2.21-8.16a1.27,1.27,0,0,1,1.33-.93h19.84a1,1,0,0,1,1.14,1.13Zm0,0"/></g></g></svg>