<svg xmlns="http://www.w3.org/2000/svg" viewBox="0 0 423.23 407.62"><defs><style>.cls-1{fill:#bf6052;}</style></defs><title>1_2_icon</title><g id="Слой_2" data-name="Слой 2"><g id="Слой_1-2" data-name="Слой 1"><path class="cls-1" d="M363.63,242.92l-.29-4a201.3,201.3,0,0,0-8.09-43.54l-13.74,6.47a188.6,188.6,0,0,1,6.8,38.12l.33,4.57c.25,3.35.51,6.82.51,10.49a137.59,137.59,0,0,1-83.21,126.3l-3.38,1.46s-27,8.82-48.26,9.7h0l-1,0c-.57,0-1.13,0-1.7,0-21.61.18-50.94-9.77-50.94-9.77l-3.38-1.46a137.76,137.76,0,0,1-66.82-61.25L76.82,326.5a152.73,152.73,0,0,0,134.79,81.12c84.14,0,152.6-68.46,152.6-152.6C364.21,250.72,363.9,246.57,363.63,242.92ZM74.08,255v-.28c0-2.44,0-5,.17-7.73,1.5-52.19,18.68-77.75,28.79-88.34l1.22-1.27.47,1.69c4,14.27,20.39,60.8,64.21,60.8a7.55,7.55,0,0,0,7.54-7.54c0-28.62.64-61.69,8.31-92C193.43,86.18,217,49.11,246.17,23.6l1.4-1.23.24,1.85c4.73,36.31,24.49,62.9,45.41,91,12.13,16.35,24.48,33,34.44,52.21l13.59-6.4c-10.66-20.75-23.7-38.31-35.94-54.79C282,74.87,261.81,47.74,261.81,7.55a7.52,7.52,0,0,0-4.09-6.7,7.41,7.41,0,0,0-7.82.57c-37.5,26.84-68.8,72.06-79.73,115.22-7.54,29.85-8.6,63.55-8.74,86.31v1.23l-1.2-.26c-35.41-7.56-43.47-60.36-43.55-60.89a7.61,7.61,0,0,0-3.92-5.6,7.73,7.73,0,0,0-3.56-.89,7.33,7.33,0,0,0-3.26.77c-1.81.87-44.25,22.38-46.74,109C59,249.15,59,251.93,59,255a152.3,152.3,0,0,0,4.5,36.85l13.95-6.57A137,137,0,0,1,74.08,255Z"/><path class="cls-1" d="M7.77,346.69a8.5,8.5,0,0,1-2.89-16.16L411.11,139.23a8.5,8.5,0,1,1,7.24,15.38L12.12,345.91A8.46,8.46,0,0,1,7.77,346.69Z"/></g></g></svg>