<svg xmlns="http://www.w3.org/2000/svg" viewBox="0 0 351.84 351.84"><defs><style>.cls-1,.cls-2{fill:#bf6052;}.cls-2{stroke:#bf6052;stroke-miterlimit:10;stroke-width:4px;}</style></defs><title>1_3_icon</title><g id="Слой_2" data-name="Слой 2"><g id="Слой_1-2" data-name="Слой 1"><path class="cls-1" d="M316,28.58H291.81V0H277.23V28.58H74.6V0H60V28.58H35.88A35.93,35.93,0,0,0,0,64.46V316a35.93,35.93,0,0,0,35.88,35.88H316A35.92,35.92,0,0,0,351.84,316V64.46A35.92,35.92,0,0,0,316,28.58ZM337.26,316A21.32,21.32,0,0,1,316,337.26H35.88A21.32,21.32,0,0,1,14.59,316V120.33H337.26Zm0-210.21H14.59V64.46A21.31,21.31,0,0,1,35.88,43.17H60V71.75H74.6V43.17H277.23V71.75h14.58V43.17H316a21.31,21.31,0,0,1,21.29,21.29Z"/><rect class="cls-2" x="53.31" y="163.34" width="16.58" height="16.58"/><rect class="cls-2" x="110.47" y="163.34" width="16.58" height="16.58"/><rect class="cls-2" x="167.63" y="163.34" width="16.58" height="16.58"/><rect class="cls-2" x="224.79" y="163.34" width="16.58" height="16.58"/><rect class="cls-2" x="281.95" y="163.34" width="16.58" height="16.58"/><rect class="cls-2" x="53.31" y="220.5" width="16.58" height="16.58"/><rect class="cls-2" x="110.47" y="220.5" width="16.58" height="16.58"/><rect class="cls-2" x="167.63" y="220.5" width="16.58" height="16.58"/><rect class="cls-2" x="224.79" y="220.5" width="16.58" height="16.58"/><rect class="cls-2" x="53.31" y="277.66" width="16.58" height="16.58"/><rect class="cls-2" x="110.47" y="277.66" width="16.58" height="16.58"/><rect class="cls-2" x="167.63" y="277.66" width="16.58" height="16.58"/><rect class="cls-2" x="224.79" y="277.66" width="16.58" height="16.58"/><rect class="cls-2" x="281.95" y="220.5" width="16.58" height="16.58"/></g></g></svg>