<?xml version="1.0" encoding="utf-8"?>
<!-- Generator: Adobe Illustrator 21.0.0, SVG Export Plug-In . SVG Version: 6.00 Build 0)  -->
<svg version="1.1" id="Слой_1" xmlns="http://www.w3.org/2000/svg" xmlns:xlink="http://www.w3.org/1999/xlink" x="0px" y="0px"
	 viewBox="0 0 275.4 259.8" style="enable-background:new 0 0 275.4 259.8;" xml:space="preserve">
<style type="text/css">
	.st0{fill:#B14843;}
</style>
<title>2_2_icon</title>
<g id="Слой_2">
	<g id="Слой_1-2">
		<path class="st0" d="M186.6,70.5h-0.3V4c0-1.5-0.8-2.8-2.1-3.4c-1.8-0.9-4-0.7-5.6,0.4L74,61.2H5.2c-2.9,0-5.2,2.3-5.2,5.2v76.3
			c0,2.9,2.3,5.2,5.2,5.2h12.5l0.1,0.3l25.7,108c1.2,2.4,2.9,3.6,5.2,3.6h35.1c1.7,0,3.3-0.7,4.4-2c1-1.4,1.3-3.2,0.8-4.8
			L63.8,147.9h7.6l0.1,0.1c0.2,0.2,0.4,0.3,0.7,0.5l106.3,61.3c1.6,1,3.6,1.1,5.2,0.2c1.7-1,2.7-2.9,2.6-4.9v-66.9h0.3
			c17.6-2.6,30.9-17.1,30.9-33.8C217.4,87.2,204.5,73,186.6,70.5z M77.5,249.4H52.8L28.3,147.9H53L77.5,249.4z M69.6,137.5H9.8V71.1
			h59.8V137.5z M175.9,196.2l-96-55.6V68.4l0.2-0.1l95.8-55.5V196.2z M186.8,127.5l-0.4,0.1V81l0.4,0.1
			c12.1,2.4,20.9,12.1,20.9,23.2S198.8,125.1,186.8,127.5z"/>
		<path class="st0" d="M233.9,63.4c-2.5,0-4.5-2-4.5-4.5c0-1.2,0.5-2.3,1.3-3.2l23-23c1.9-1.6,4.7-1.4,6.3,0.5
			c1.4,1.7,1.5,4.2,0,5.9l-23,23C236.3,62.9,235.1,63.3,233.9,63.4z"/>
		<path class="st0" d="M256.9,168.9c-1.2,0-2.3-0.5-3.2-1.3l-23-23c-1.8-1.7-1.9-4.5-0.2-6.4s4.5-1.9,6.4-0.2
			c0.1,0.1,0.2,0.1,0.2,0.2l23,23c1.8,1.8,1.8,4.6,0,6.4C259.2,168.4,258.1,168.8,256.9,168.9L256.9,168.9z"/>
		<path class="st0" d="M270.9,108.8h-33c-2.5,0-4.5-2-4.5-4.5s2-4.5,4.5-4.5h33c2.5,0,4.5,2,4.5,4.5S273.4,108.8,270.9,108.8z"/>
	</g>
</g>
</svg>
