<?xml version="1.0" encoding="utf-8"?>
<!-- Generator: Adobe Illustrator 21.0.0, SVG Export Plug-In . SVG Version: 6.00 Build 0)  -->
<svg version="1.1" id="Слой_1" xmlns="http://www.w3.org/2000/svg" xmlns:xlink="http://www.w3.org/1999/xlink" x="0px" y="0px"
	 viewBox="0 0 322.6 305.4" style="enable-background:new 0 0 322.6 305.4;" xml:space="preserve">
<style type="text/css">
	.st0{fill:#B14843;}
</style>
<title>2_3_icon</title>
<g id="Слой_2">
	<g id="Слой_1-2">
		<path class="st0" d="M228.8,74c0-2.9-2.3-5.2-5.2-5.2s-5.2,2.3-5.2,5.2c0,92-79.2,95.2-88,95.2l0,0c-1.2,0-2.3,0.4-3.2,1.2
			c-0.8,0.4-1.2,1.2-1.6,1.6c-0.8,1.6-0.8,3.6,0,5.2c1,1.7,2.8,2.8,4.8,2.8h0.4c9.2,0,88,3.2,88,95.2c0,2.9,2.3,5.2,5.2,5.2
			s5.2-2.3,5.2-5.2l0,0c0-91.6,78.8-95.2,88-95.2l0,0c2-0.1,3.7-1.1,4.8-2.8c0.9-1.7,0.7-3.7-0.4-5.2c-0.8-1.6-2.8-2.4-4.4-2.8l0,0
			C308,169.2,228.8,166,228.8,74z M223.6,236c-11.6-38-40-54.4-62.4-61.6c22.4-7.2,50.8-23.6,62.4-61.6c11.6,38,40,54.4,62.4,61.6
			C263.6,181.6,235.2,198,223.6,236z"/>
		<path class="st0" d="M109.2,120c0-50.4,43.2-52,48-52h0.4c3-0.1,5.3-2.6,5.2-5.6l0,0c0-2.9-2.3-5.2-5.2-5.2l0,0
			c-4.8,0-48-1.6-48-52c0-2.9-2.3-5.2-5.2-5.2c-2.9,0-5.2,2.3-5.2,5.2c0,50.4-43.2,52-48,52h-0.4c-2.7,0.2-4.8,2.5-4.8,5.2
			c0,2.9,2.3,5.2,5.2,5.2l0,0c5.2,0,48,1.6,48,52c0,2.9,2.3,5.2,5.2,5.2C106.8,125.2,109.2,122.8,109.2,120z M75.2,62.4
			C88.1,57,98.5,46.9,104,34c6.4,15.2,18,23.6,28.8,28.4c-12.9,5.4-23.3,15.5-28.8,28.4C97.6,75.6,86,67.2,75.2,62.4z"/>
		<path class="st0" d="M63.2,300.4c0-50.4,43.2-52,48-52h0.4c3-0.1,5.3-2.6,5.2-5.6l0,0c0-2.9-2.3-5.2-5.2-5.2l0,0
			c-4.8,0-48-1.6-48-52c0-2.9-2.3-5.2-5.2-5.2s-5.2,2.3-5.2,5.2c0,50.4-43.2,52-48,52H4.8c-2.7,0.2-4.8,2.5-4.8,5.2
			c0,2.9,2.3,5.2,5.2,5.2l0,0c5.2,0,48,1.6,48,52c0,2.9,2.3,5.2,5.2,5.2C60.8,306,63.2,303.6,63.2,300.4z M29.2,243.2
			c12.9-5.4,23.3-15.5,28.8-28.4c6.4,15.2,18,23.6,28.8,28.4c-12.9,5.4-23.3,15.5-28.8,28.4C51.2,256.4,40,248,29.2,243.2z"/>
	</g>
</g>
</svg>
