<?xml version="1.0" encoding="utf-8"?>
<!-- Generator: Adobe Illustrator 21.0.0, SVG Export Plug-In . SVG Version: 6.00 Build 0)  -->
<svg version="1.1" id="Слой_1" xmlns="http://www.w3.org/2000/svg" xmlns:xlink="http://www.w3.org/1999/xlink" x="0px" y="0px"
	 viewBox="0 0 286.2 327.4" style="enable-background:new 0 0 286.2 327.4;" xml:space="preserve">
<style type="text/css">
	.st0{fill:#BF6052;}
</style>
<title>3_3_icon</title>
<g id="Слой_2">
	<g id="Слой_1-2">
		<path class="st0" d="M230,111.1c-2.5-2.5-6.6-2.5-9.2,0l-91.5,91.5L79,152.3c-2.6-2.5-6.7-2.4-9.2,0.2c-2.4,2.5-2.4,6.4,0,8.9
			l54.9,54.9c1.2,1.2,2.9,1.9,4.6,1.9s3.4-0.7,4.6-1.9l96.1-96.1C232.5,117.7,232.5,113.6,230,111.1L230,111.1z"/>
		<path class="st0" d="M282,41.4L144.8,0.2c-1.1-0.3-2.3-0.3-3.4,0L4.2,41.4C1.7,42.2,0,44.4,0,47v151
			c0,60.2,92.1,113.8,141.4,129.1c1.1,0.3,2.3,0.3,3.5,0c49.3-15.4,141.4-69,141.4-129.1V47C286.2,44.4,284.5,42.1,282,41.4z
			 M274.5,198c0,28-24.6,53.8-45.3,70.5c-24.7,19.9-56.7,37.4-85.8,46.8l-0.3,0.1l-0.3-0.1c-29-9.4-61.1-26.9-85.8-46.8
			C36.3,251.8,11.7,226,11.7,198V51.4L143.1,12l0.3,0.1l131.1,39.3V198z"/>
	</g>
</g>
</svg>
