<svg xmlns="http://www.w3.org/2000/svg" viewBox="0 0 294.52 340.98"><defs><style>.cls-1{fill:#b14843;}</style></defs><title>4_1_icon</title><g id="Слой_2" data-name="Слой 2"><g id="Слой_1-2" data-name="Слой 1"><path class="cls-1" d="M239.83,81.09l-2-.89-.32-2.2A91.17,91.17,0,0,0,57,78l-.32,2.2-2,.89A91.16,91.16,0,1,0,135.1,244.51l5.93-3.26V341h12.45V241.25l5.93,3.26A91.16,91.16,0,1,0,239.83,81.09ZM203.37,243.36A79,79,0,0,1,155,226.76l-1.54-1.2V158.65l44.46-23.37-5.79-11-38.67,20.33V101.72H141v88.19l-38.67-20.33-5.79,11L141,204v21.59l-1.55,1.2A78.71,78.71,0,1,1,64.67,90.52l3.81-1.36.3-4a78.71,78.71,0,0,1,157,0l.3,4,3.81,1.36a78.71,78.71,0,0,1-26.48,152.84Z"/></g></g></svg>