<svg xmlns="http://www.w3.org/2000/svg" viewBox="0 0 267.43 275.25"><defs><style>.cls-1{fill:#b14843;}</style></defs><title>4_2_icon</title><g id="Слой_2" data-name="Слой 2"><g id="Слой_1-2" data-name="Слой 1"><path class="cls-1" d="M259.41,188.9l-.49-1.32.87-1.1c5.38-6.86,7.94-14.13,7.61-21.61a33.22,33.22,0,0,0-7.1-18.75l-.87-1.13.53-1.32c2.39-6,6.51-21.12-6.81-33.27-8.83-8.05-24.05-11.62-45.25-10.6a180.75,180.75,0,0,0-28.41,3.64l-.38.06c-2.63.47-5.54,1.07-8.88,1.81l-2.86.64-.18-2.92c-.3-4.75.75-14.68,7.45-35,7.94-24.19,7.55-42.56-1.18-54.6C164.42,1,149.89,0,145.66,0a12.22,12.22,0,0,0-9.42,4.29c-6.18,7.18-4.88,21.72-4.33,26l.07.61-.21.57c-1.06,2.84-26.13,69.56-48.58,86.85l-.14.1a4.08,4.08,0,0,0-.53.48,60.4,60.4,0,0,0-11,16.53l-1.11,2.43L68,136.6A21.59,21.59,0,0,0,57.63,134H21.88A21.91,21.91,0,0,0,0,155.85v95.23A21.9,21.9,0,0,0,21.88,273H57.63a21.82,21.82,0,0,0,12.63-4l.78-.56,14.73,1.76c.41.06,38.46,5,77.77,4.26h.24c7.23.54,13.59.81,19.44.81a128.89,128.89,0,0,0,26.73-2.41c17.2-3.65,28.89-10.85,34.73-21.39a33.25,33.25,0,0,0,3.7-20.88l-.19-1.31,1-.89c11-9.95,12.85-21,12.48-28.44A36.94,36.94,0,0,0,259.41,188.9ZM68.69,251a11.07,11.07,0,0,1-11.06,11.06H24.38l-2.5.06a11.07,11.07,0,0,1-11.05-11.06V155.79a11.07,11.07,0,0,1,11.05-11.06H57.63a11.07,11.07,0,0,1,11.06,11.06ZM248.56,182.9a5.35,5.35,0,0,0-.73,6.51l.37.6v.12a27.12,27.12,0,0,1,2.69,10.25c.45,8.54-3.59,16.08-12,22.41A5.46,5.46,0,0,0,237,229l.15.51a23,23,0,0,1-1.9,16.67c-4.31,7.72-13.59,13.14-27.57,16.11a117.39,117.39,0,0,1-24.32,2.16q-8.74,0-19-.81h-.72c-36.67.79-73.64-3.82-76.37-4.17h-.17l-8.65-1,.58-2.69a22.24,22.24,0,0,0,.47-4.63V155.79a22.37,22.37,0,0,0-1-6.53l-.21-.69.18-.69A51.4,51.4,0,0,1,90,126.72l.28-.26c25.5-20.22,51.27-90.22,52.36-93.19a5,5,0,0,0,.23-2.64c-1-6.47-.85-15.41,1.07-18.69l.74-1.26,1.47,0c3.67.07,12.81,1.08,18.5,8.94,6.48,9,6.36,24.47-.36,44.85-9.35,28.35-10.45,43.71-3.58,49.81a10.24,10.24,0,0,0,10.27,1.8l.29-.08c3.92-.91,7.27-1.58,10.25-2.07l.34-.08.31-.07c19.13-4.18,51.79-6.42,63.72,4.44,10.94,10,3.34,23.1,2.43,24.56a5.37,5.37,0,0,0,.95,7c.77.73,7,6.94,7.33,15.42C256.84,171.17,254.14,177.11,248.56,182.9Z"/></g></g></svg>