<?xml version="1.0" encoding="utf-8"?>
<!-- Generator: Adobe Illustrator 21.0.0, SVG Export Plug-In . SVG Version: 6.00 Build 0)  -->
<svg version="1.1" id="Слой_1" xmlns="http://www.w3.org/2000/svg" xmlns:xlink="http://www.w3.org/1999/xlink" x="0px" y="0px"
	 viewBox="0 0 310.4 289.4" style="enable-background:new 0 0 310.4 289.4;" xml:space="preserve">
<style type="text/css">
	.st0{fill:#B14843;}
	.st1{fill:#AE864C;}
	.st2{fill:#1D1D1B;}
</style>
<title>4_4_icon</title>
<g id="Слой_2">
	<g id="Слой_1-2">
		<path class="st0" d="M121.5,23.2H28.9c-3.2,0-5.8,2.6-5.8,5.8v104.2c0,3.2,2.6,5.8,5.8,5.8h92.6c3.2,0,5.8-2.6,5.8-5.8V29
			C127.3,25.8,124.7,23.2,121.5,23.2C121.5,23.2,121.5,23.2,121.5,23.2z M115.8,127.3h-81V34.7h81V127.3z"/>
		<path class="st0" d="M237.3,23.2h-92.6c-3.2,0-5.8,2.6-5.8,5.8v104.2c0,3.2,2.6,5.8,5.8,5.8h92.6c3.2,0,5.8-2.6,5.8-5.8V29
			C243.1,25.8,240.5,23.2,237.3,23.2L237.3,23.2z M231.5,127.3h-81V34.7h81V127.3z"/>
		<path class="st0" d="M121.5,150.5H28.9c-3.2,0-5.8,2.6-5.8,5.8v104.2c0,3.2,2.6,5.8,5.8,5.8h92.6c3.2,0,5.8-2.6,5.8-5.8V156.3
			C127.3,153.1,124.7,150.5,121.5,150.5z M115.8,254.7h-81v-92.6h81V254.7z"/>
		<path class="st0" d="M239.6,171l3.4,3.4v-18.2c0-3.2-2.6-5.8-5.8-5.8h-92.6c-3.2,0-5.8,2.6-5.8,5.8v104.2c0,3.2,2.6,5.8,5.8,5.8h0
			h92.6c3.2,0,5.8-2.6,5.8-5.8v-39.9L231.5,209v45.6h-81V162h81v17.1L239.6,171z"/>
		<path class="st0" d="M266.2,174.3V5.8c0-3.2-2.6-5.8-5.8-5.8H5.8C2.6,0,0,2.6,0,5.8c0,0,0,0,0,0v277.8c0,3.2,2.6,5.8,5.8,5.8
			c0,0,0,0,0,0h254.7c3.2,0,5.8-2.6,5.8-5.8l0,0v-62.8l-11.5,11.5l-0.1-0.1v45.7H11.6V11.6h243.1v174.3L266.2,174.3z"/>
		<path class="st1" d="M231.4,194.1l0.1,0.1V194L231.4,194.1z"/>
		<polygon class="st2" points="231.5,194 231.5,194.2 231.4,194.1 		"/>
		<path class="st0" d="M254.6,200.8l-14.9-14.9l-8.2,8.2l19.7,19.7l0,0l3.6,3.6l55.7-55.7l-8.4-8.4L254.6,200.8z"/>
	</g>
</g>
</svg>
