<?xml version="1.0" encoding="utf-8"?>
<!-- Generator: Adobe Illustrator 21.0.0, SVG Export Plug-In . SVG Version: 6.00 Build 0)  -->
<svg version="1.1" id="Слой_1" xmlns="http://www.w3.org/2000/svg" xmlns:xlink="http://www.w3.org/1999/xlink" x="0px" y="0px"
	 viewBox="0 0 398.8 276.6" style="enable-background:new 0 0 398.8 276.6;" xml:space="preserve">
<style type="text/css">
	.st0{fill:#B14843;}
</style>
<title>4_5_icon</title>
<g id="Слой_2">
	<g id="Слой_1-2">
		<path class="st0" d="M311.2,87c-12.1-12.2-28.6-19.1-45.8-19.2c-11.8,0-23.4,3.2-33.5,9.2c-7.3,4.5-13.6,10.3-18.8,17.1l-2.2,2.9
			l-2.9-2.2c-0.7-0.6-1.6-1.2-2.4-1.8s-1.6-1.2-2.2-1.7c-34.8-24.2-81.7-21.8-113.8,5.9c-15,13-25.5,30.4-30.2,49.7l-0.6,2.4
			l-2.5,0.3c-35,4-60,35.6-56,70.6c3.7,32.2,31.1,56.5,63.5,56.4h181.4c20.2-0.3,38.6-8,51.9-21.6l0,0
			c13.7-13.6,21.4-32.2,21.3-51.5c0.1-8.4-1.4-16.8-4.4-24.6l-0.8-2l1.5-1.7c4.5-5,8-10.8,10.5-17l0-0.1c3.4-8,5.1-16.6,5.1-25.3
			C330.3,115.6,323.4,99.1,311.2,87z M288.1,248.5c-11.6,11.6-27.3,18.1-43.7,18H64.3h-0.2c-14.5-1.5-27.3-7.4-36.8-16.9
			c-4.9-4.9-8.8-10.6-11.4-17c-8.2-19.4-3.7-42,11.5-56.7c9.7-9.8,22.9-15.3,36.8-15.4c0.8,0,1.6-0.1,2.3-0.5
			c1.3-0.8,2.2-2.1,2.4-3.6c3-19.3,12.7-37,27.5-49.8c28.5-24.2,69.6-26.2,100.3-4.9c10.8,7.4,19.6,17.4,25.7,29.1l1.9,3.7l-4,1.3
			c-1.7,0.5-3.4,1.3-5,2.2l-0.4,0.2c-9.4,4.2-17.9,10.4-24.7,18.1c-2.1,2.3-1.9,5.8,0.4,7.9c2.3,2.1,5.8,1.9,7.9-0.4
			c22.7-25.4,61.6-27.7,87.1-5c0.9,0.8,1.7,1.6,2.5,2.4C312.2,185.4,312.2,224.4,288.1,248.5L288.1,248.5z M315.2,153.2
			c-1.1,2.6-2.4,5.2-3.8,7.6l-2.8,4.9l-3.3-4.7c-2.4-3.3-5-6.4-7.9-9.3c-13.6-13.7-32.2-21.4-51.5-21.3c-2.1-0.1-4.2,0.1-6.3,0.3
			l-2.8,0.5l-1.1-2.6c-3.1-7-7.5-13.9-13.9-21.5l-1.7-2l1.4-2.2c4.3-6.5,10-12.1,16.6-16.2h0.1c25-15.5,57.8-7.8,73.3,17.2
			c5.3,8.5,8,18.4,8,28.4C319.4,139.6,318,146.6,315.2,153.2L315.2,153.2z"/>
		<path class="st0" d="M361.5,42.6c0,1.5-0.6,2.9-1.6,3.9L340,66.3c-2.2,2.2-5.7,2.2-7.9,0s-2.2-5.7,0-7.9L352,38.6
			c2.2-2.2,5.7-2.2,7.9,0C360.9,39.7,361.5,41.1,361.5,42.6L361.5,42.6z"/>
		<path class="st0" d="M271.9,5.8v27.8c0,3.2-2.6,5.8-5.8,5.8c-3.2,0-5.8-2.6-5.8-5.8V5.4c0.1-3.1,2.7-5.5,5.8-5.4
			C269.3,0.1,271.8,2.6,271.9,5.8z"/>
		<path class="st0" d="M201.4,62.4c0,3.1-2.5,5.6-5.5,5.6c-1.5,0-2.9-0.6-4-1.7L172,46.5c-2.2-2.1-2.2-5.6-0.1-7.8
			c0,0,0.1-0.1,0.1-0.1c1.1-1.1,2.6-1.6,4.1-1.6h0.1c1.3,0,2.6,0.5,3.5,1.5l20,20C200.8,59.5,201.4,60.9,201.4,62.4z"/>
		<path class="st0" d="M398.8,132.7c-0.1,3.2-2.6,5.7-5.8,5.8h-27.8c-3.2,0-5.8-2.6-5.8-5.8c0-3.2,2.6-5.8,5.8-5.8H393
			c3.2,0,5.7,2.5,5.8,5.6C398.8,132.6,398.8,132.6,398.8,132.7z"/>
		<path class="st0" d="M359.8,226.4c-2.1,2.2-5.6,2.2-7.8,0.1c0,0-0.1-0.1-0.1-0.1l-19.8-19.8c-2.2-2.2-2.2-5.7,0-7.9s5.7-2.2,7.9,0
			l19.8,19.8C362,220.7,362,224.2,359.8,226.4C359.9,226.4,359.9,226.4,359.8,226.4z"/>
	</g>
</g>
</svg>
