<?xml version="1.0" encoding="utf-8"?>
<!-- Generator: Adobe Illustrator 21.0.0, SVG Export Plug-In . SVG Version: 6.00 Build 0)  -->
<svg version="1.1" id="Слой_1" xmlns="http://www.w3.org/2000/svg" xmlns:xlink="http://www.w3.org/1999/xlink" x="0px" y="0px"
	 viewBox="0 0 240.9 240.8" style="enable-background:new 0 0 240.9 240.8;" xml:space="preserve">
<style type="text/css">
	.st0{fill:#B14843;}
</style>
<title>4_6_icon</title>
<g id="Слой_2">
	<g id="Слой_1-2">
		<path class="st0" d="M225.4,155.9c-11.1-9.2-22.3-11.1-33.2-12.9c-7.5-1.3-14-2.4-20-5.8l-10.1-5.8l11.4-2.5
			c28.2-6.1,48.8-20.3,59.4-40.9c10.1-19.6,9.4-43.1-1.9-64.4c-6.6-12.5-21-21.6-36.8-23.2c-15-1.5-29,4-38.4,15.2
			s-11.1,22.3-12.9,33.2c-1.3,7.5-2.4,13.9-5.7,19.8l-5.8,10.2l-2.5-11.5C122.7,39,108.6,18.5,87.9,7.8c-9.1-4.7-19.3-7.1-29.5-7.1
			c-12.2,0.1-24.2,3.2-34.9,9C11,16.4,1.9,30.8,0.3,46.6c-1.5,15,4,29,15.2,38.3c11.1,9.2,22.3,11,33.2,12.9c7.5,1.3,14,2.4,20,5.8
			l10.1,5.8L67.4,112c-28.2,6.1-48.8,20.3-59.4,40.9c-10.1,19.6-9.4,43.1,2,64.4c6.6,12.5,21.1,21.6,36.9,23.2
			c1.7,0.2,3.3,0.3,5,0.3c12.9,0.2,25.2-5.5,33.4-15.5c9.1-11.1,11-22.4,12.8-33.3c1.3-7.4,2.3-13.9,5.7-19.8l5.8-10.2l2.5,11.5
			c6.1,28.2,20.3,48.8,40.9,59.4c9.1,4.7,19.3,7.2,29.5,7.1c12.2-0.1,24.2-3.2,34.9-9.1c12.5-6.6,21.6-21.1,23.2-36.9
			C242.2,179.2,236.7,165.2,225.4,155.9z M147.7,77.6c5.7-8.8,7.3-18.2,8.7-26.5c0.7-4.7,1.7-9.3,3-13.9c1.5-4.7,3.8-9.1,6.9-12.9
			c8.7-10.5,20.3-11,26.4-10.3c11.2,1.2,21.7,7.6,26.1,16c9.3,17.6,10,35.9,1.9,51.7c-8.6,16.7-25.6,28.3-49.3,33.6l-4.5,1l-0.9-4.6
			c-2.1-11.2-8.3-21.2-17.4-28.1l-3.3-2.5L147.7,77.6z M77.6,93.1c-8.8-5.8-18.3-7.3-26.6-8.8c-9.5-1.6-18.5-3.1-26.8-10l0,0
			C13.8,65.7,13.3,54.1,13.9,48c1.1-11.2,7.6-21.7,16-26.2c17.6-9.3,35.9-10,51.7-1.9c16.7,8.6,28.4,25.7,33.7,49.4l1,4.5l-4.6,0.9
			c-11.2,2.2-21.1,8.3-28.1,17.3l-2.5,3.3L77.6,93.1z M93.2,163.3c-5.7,8.8-7.3,18.2-8.7,26.5c-1.6,9.5-3.1,18.5-10,26.8
			c-5.6,6.8-14,10.7-22.8,10.5c-1.2,0-2.4-0.1-3.5-0.2c-11.2-1.1-21.7-7.6-26.2-16c-9.3-17.6-10-35.9-1.9-51.7
			c8.6-16.7,25.6-28.3,49.3-33.6l4.5-1l0.9,4.6c2.1,11.2,8.3,21.2,17.4,28.1l3.3,2.5L93.2,163.3z M87.7,120.4
			c0-18.1,14.7-32.8,32.8-32.8c18.1,0,32.8,14.7,32.8,32.8s-14.7,32.8-32.8,32.8c0,0,0,0,0,0C102.4,153.2,87.7,138.5,87.7,120.4z
			 M227,192.8c-0.6,5.5-2.4,10.9-5.3,15.6c-2.6,4.4-6.3,8.1-10.7,10.6c-8.7,4.8-18.5,7.4-28.4,7.5c-8.1,0-16.1-1.9-23.3-5.6
			c-16.7-8.6-28.3-25.7-33.7-49.4l-1-4.5l4.6-0.9c11.2-2.1,21.2-8.3,28.1-17.3l2.5-3.3l3.5,2.3c8.8,5.7,18.3,7.3,26.6,8.8
			c9.6,1.6,18.5,3.1,26.8,10C227.1,175.1,227.6,186.7,227,192.8z"/>
	</g>
</g>
</svg>
