<svg xmlns="http://www.w3.org/2000/svg" viewBox="0 0 250.61 297.8"><defs><style>.cls-1{fill:#bf6052;}</style></defs><title>5_1_icon</title><g id="Слой_2" data-name="Слой 2"><g id="Слой_1-2" data-name="Слой 1"><path class="cls-1" d="M250.44,87.74a4.39,4.39,0,0,0-2.69-2.89l-30.12-11L236.51,7.53a4.37,4.37,0,0,0-4.17-5.61,4.3,4.3,0,0,0-3.49,1.8L168,88.22a4.41,4.41,0,0,0-.62,3.95,4.36,4.36,0,0,0,2.8,2.81l30.18,9.78-23,67.53a4.42,4.42,0,0,0,2.05,5.3,4.33,4.33,0,0,0,2.05.52,4.28,4.28,0,0,0,3.42-1.7l64.83-84.75A4.44,4.44,0,0,0,250.44,87.74ZM194.1,150,210,103.38a4.45,4.45,0,0,0-.22-3.4,4.37,4.37,0,0,0-2.56-2.21l-28.69-9.29L221.38,29,208.17,75.4a4.4,4.4,0,0,0,2.7,5.34L239.2,91.07Zm-56.49-4.13a4.36,4.36,0,0,0-2.68-2.9L80.16,123,113.56,5.61A4.38,4.38,0,0,0,111.3.45a4.28,4.28,0,0,0-5.4,1.35L.83,147.68a4.44,4.44,0,0,0-.62,3.95A4.36,4.36,0,0,0,3,154.44l55.17,17.87L17.43,292a4.42,4.42,0,0,0,2.05,5.3,4.33,4.33,0,0,0,2.05.52A4.27,4.27,0,0,0,25,296.1L136.88,149.8A4.47,4.47,0,0,0,137.61,145.88ZM34.18,269.71l33.64-98.78a4.46,4.46,0,0,0-.22-3.4,4.38,4.38,0,0,0-2.55-2.21L11.37,147.94,98.45,27l-27.74,97.5a4.4,4.4,0,0,0,2.7,5.34l53,19.3Z"/></g></g></svg>