<svg xmlns="http://www.w3.org/2000/svg" viewBox="0 0 150.33 284.33"><defs><style>.cls-1{fill:#bf6052;}</style></defs><title>5_2_icon</title><g id="Слой_2" data-name="Слой 2"><g id="Слой_1-2" data-name="Слой 1"><path class="cls-1" d="M145.83,0H39.58A28.7,28.7,0,0,0,12.75,38.89L18,52.67H15.36a4.5,4.5,0,0,0-4.5,4.5v22a4.5,4.5,0,0,0,4.5,4.5h7.12L7.2,135.44A176.1,176.1,0,0,0,0,185.29v94.54a4.51,4.51,0,0,0,4.5,4.5h98a4.51,4.51,0,0,0,4.5-4.5V192.42A175.51,175.51,0,0,0,95.23,129.1L77.72,83.67h9a4.51,4.51,0,0,0,4.5-4.5v-22a4.49,4.49,0,0,0-4.27-4.49l-5.41-.26,16.78-9,14.77,29.34A26.33,26.33,0,0,0,136.7,87.33h.13a4.5,4.5,0,0,0,0-9h-.13a17.37,17.37,0,0,1-15.6-9.6L106.22,39.18,128,27.53h17.86a4.51,4.51,0,0,0,4.5-4.5V4.5A4.51,4.51,0,0,0,145.83,0ZM96.5,170l.16,1.31A168.45,168.45,0,0,1,98,192.42V234.5H40.06V170Zm-9.67-37.66a167.84,167.84,0,0,1,7.84,26.86L95,161H35.56a4.51,4.51,0,0,0-4.5,4.5V239a4.51,4.51,0,0,0,4.5,4.5H98v31.83H9v-90A166.81,166.81,0,0,1,15.84,138l16-54.32H68.08ZM82.19,61.67v13H19.86v-13ZM123.33,19.8,62,52.67H27.61l-6.45-17A19.7,19.7,0,0,1,39.58,9h83.75Zm18-1.27h-9V9h9Z"/></g></g></svg>