<?xml version="1.0" encoding="utf-8"?>
<!-- Generator: Adobe Illustrator 21.0.0, SVG Export Plug-In . SVG Version: 6.00 Build 0)  -->
<svg version="1.1" id="Слой_1" xmlns="http://www.w3.org/2000/svg" xmlns:xlink="http://www.w3.org/1999/xlink" x="0px" y="0px"
	 viewBox="0 0 350.9 395.1" style="enable-background:new 0 0 350.9 395.1;" xml:space="preserve">
<style type="text/css">
	.st0{fill:#333333;}
</style>
<title>33</title>
<g id="Слой_2">
	<g id="Слой_1-2">
		<path class="st0" d="M342.5,240.8c-4.7,0-8.4,3.8-8.4,8.4l0,0V354h-69.7V208.4h78.1c4.7,0,8.4-3.8,8.4-8.4s-3.8-8.4-8.4-8.4h-86.6
			c-4.7,0-8.4,3.8-8.4,8.4l0,0v4.3l-53.8-53.8c-8-7.9-19.8-10.5-30.4-6.6c35.6-34.1,36.8-90.6,2.7-126.2C159.7,11,152.3,5.4,144.2,1
			c-4.1-2.2-9.2-0.7-11.5,3.4c-0.7,1.2-1,2.6-1,4.1v75.2H71.2V8.5c0-4.7-3.8-8.5-8.4-8.5c-1.4,0-2.8,0.3-4.1,1
			C15.4,24.5-0.6,78.7,22.9,122.1c5.3,9.8,12.5,18.6,21.1,25.8v22H28.7C12.9,169.8,0,182.7,0,198.5v0.4c0,7.6,3,14.9,8.4,20.3
			C3,224.6,0,231.9,0,239.5v0.4c0,7.6,3,14.9,8.4,20.3C3,265.5,0,272.8,0,280.4v0.4c0,7.6,3,14.9,8.4,20.3C3,306.5,0,313.8,0,321.4
			v0.4c0,15.8,12.9,28.7,28.7,28.7h16.6c5.9,26,29,44.6,55.7,44.6h1c26.7,0,49.8-18.5,55.6-44.6H225c4.7-0.2,8.3-4.1,8.2-8.7
			c-0.2-4.4-3.7-8-8.2-8.2h-66v-69.7c0-4.7-3.8-8.4-8.4-8.4c-4.7,0-8.4,3.8-8.4,8.4V338c0,22.2-18,40.1-40.1,40.2h-1
			c-17.4,0-32.8-11.2-38.2-27.7h13.3c15.8,0,28.7-12.9,28.7-28.7v-0.4c0-7.6-3-14.9-8.4-20.3c5.4-5.4,8.4-12.7,8.4-20.3v-0.4
			c0-7.6-3-14.9-8.4-20.3c5.4-5.4,8.4-12.7,8.4-20.3v-0.4c0-7.6-3-14.9-8.4-20.3c5.4-5.4,8.4-12.7,8.4-20.3v-0.4
			c0-15.8-12.9-28.7-28.7-28.7H60.8v-26c0-2.6-1.2-5.1-3.3-6.7c-31.8-24.2-38-69.6-13.8-101.4c3.1-4.1,6.7-7.9,10.6-11.2V92
			c0,4.7,3.8,8.4,8.4,8.4l0,0h77.4c4.7,0,8.4-3.8,8.4-8.4l0,0V24.5c30.4,26,34,71.7,8,102c-3.3,3.9-7.1,7.4-11.2,10.6
			c-2.1,1.6-3.3,4.1-3.3,6.7v17.7L119.6,184c-11.2,11.2-11.2,29.4,0,40.6l0,0l0.3,0.3c11.2,11.2,29.4,11.2,40.6,0l16.8-16.9
			c3.3-3.3,3.2-8.7-0.2-11.9c-3.3-3.2-8.5-3.2-11.8,0l-16.8,16.8c-4.6,4.6-12.1,4.6-16.7,0l-0.3-0.3c-4.6-4.6-4.6-12.1,0-16.7l0,0
			l33.5-33.5c4.6-4.6,12.1-4.6,16.7,0l0,0l65.7,65.7v134.4c0,4.7,3.8,8.4,8.4,8.4l0,0h86.6c4.7,0,8.4-3.8,8.4-8.4l0,0V249.2
			C350.9,244.6,347.1,240.8,342.5,240.8z M87.9,321.8c0,6.5-5.3,11.8-11.8,11.8H28.7c-6.5,0-11.8-5.3-11.8-11.8v-0.4
			c0-6.5,5.3-11.8,11.8-11.8h47.4c6.5,0,11.8,5.3,11.8,11.8L87.9,321.8z M87.9,280.8c0,6.5-5.3,11.8-11.8,11.8H28.7
			c-6.5,0-11.8-5.3-11.8-11.8v-0.4c0-6.5,5.3-11.8,11.8-11.8h47.4c6.5,0,11.8,5.3,11.8,11.8L87.9,280.8z M87.9,239.8
			c0,6.5-5.3,11.8-11.8,11.9l0,0H28.7c-6.5,0-11.8-5.3-11.8-11.8l0,0v-0.4c0-6.5,5.3-11.8,11.8-11.8l0,0h47.4
			c6.5,0,11.8,5.3,11.8,11.8L87.9,239.8z M76.1,186.7c6.5,0,11.8,5.3,11.8,11.8v0.4c0,6.5-5.3,11.8-11.8,11.8H28.7
			c-6.5,0-11.8-5.3-11.8-11.8v-0.4c0-6.5,5.3-11.8,11.8-11.8H76.1z"/>
	</g>
</g>
</svg>
