<svg xmlns="http://www.w3.org/2000/svg" viewBox="0 0 500 500"><defs><style>.cls-1{fill:#e6f2f4;}</style></defs><title>gift_icon</title><g id="Слой_2" data-name="Слой 2"><g id="Режим_изоляции" data-name="Режим изоляции"><path class="cls-1" d="M470,227.18l4-1.42A39.09,39.09,0,0,0,500,189V159a39,39,0,0,0-39-39H387.93l7.23-9.61A68.29,68.29,0,0,0,409,69,69.08,69.08,0,0,0,340,0c-22.87,0-39.72,8.17-53,25.72C275.18,41.28,266.1,64.31,255.58,91L250,105.15,244.42,91C233.9,64.32,224.83,41.28,213,25.71,199.72,8.17,182.87,0,160,0A69.08,69.08,0,0,0,91,69a68.3,68.3,0,0,0,13.83,41.39l7.23,9.61H39A39,39,0,0,0,0,159v30a39.09,39.09,0,0,0,26,36.76l4,1.42V461a39,39,0,0,0,39,39H431a39,39,0,0,0,39-39ZM266.71,111.79c1.83-4.6,3.58-9,5.23-13.24h0C293.75,43.24,303.69,18,340,18a51,51,0,0,1,0,102H263.45ZM109,69a51.06,51.06,0,0,1,51-51c36.31,0,46.25,25.24,68.05,80.54,1.54,3.91,3.16,8,4.86,12.29l3.63,9.17H160A51.06,51.06,0,0,1,109,69Zm87,413H69a21,21,0,0,1-21-21V228H196Zm0-272H39a21,21,0,0,1-21-21V159a21,21,0,0,1,21-21H196Zm90,272H214V138h72Zm166-21a21,21,0,0,1-21,21H304V228H452ZM304,210V138H461a21,21,0,0,1,21,21v30a21,21,0,0,1-21,21Z"/></g></g></svg>