<svg xmlns="http://www.w3.org/2000/svg" viewBox="0 0 212.96 244.06"><defs><style>.cls-1{fill:#72bac3;}</style></defs><title>name_icon</title><g id="Слой_2" data-name="Слой 2"><g id="Слой_1-2" data-name="Слой 1"><path class="cls-1" d="M106.47,0C58.38,0,50.1,28.89,50.1,64.53s25.24,64.53,56.37,64.53,56.37-28.9,56.37-64.53S154.56,0,106.47,0Z"/><path class="cls-1" d="M212.94,239.34c0-.63,0-4.38,0,0Z"/><path class="cls-1" d="M212.82,235c-1-58.64-8.23-78.94-59.76-90.83a18.5,18.5,0,0,0-13,1.86,70,70,0,0,1-68.44-.65A14.7,14.7,0,0,0,61.2,143.9c-52.11,11.71-59.93,31.53-61,89C.06,238,0,238.31,0,237.71v2.13a4.22,4.22,0,0,0,4.22,4.22H208.71a4.22,4.22,0,0,0,4.22-4.2v0l0-.49C212.89,238.89,212.86,237.66,212.82,235Z"/></g></g></svg>