<svg xmlns="http://www.w3.org/2000/svg" viewBox="0 0 169.44 299.29"><defs><style>.cls-1{fill:#72bac3;}</style></defs><title>phone_icon</title><g id="Слой_2" data-name="Слой 2"><g id="Слой_1-2" data-name="Слой 1"><path class="cls-1" d="M147.67,0H21.77A21.77,21.77,0,0,0,0,21.78V277.5a21.74,21.74,0,0,0,21.77,21.79h125.9a21.77,21.77,0,0,0,21.77-21.79V21.78A21.8,21.8,0,0,0,147.67,0Zm-94,13.26h62.15c1.54,0,2.82,2.35,2.82,5.22s-1.28,5.28-2.82,5.28H53.67c-1.6,0-2.88-2.34-2.88-5.28s1.28-5.22,2.88-5.22Zm31.05,264.5a13.9,13.9,0,1,1,13.89-13.89,13.91,13.91,0,0,1-13.89,13.89Zm68.42-47.66H16.29V36.81H153.15Zm0,0"/></g></g></svg>