<?xml version="1.0" encoding="utf-8"?>
<!-- Generator: Adobe Illustrator 21.0.0, SVG Export Plug-In . SVG Version: 6.00 Build 0)  -->
<svg version="1.1" id="Слой_1" xmlns="http://www.w3.org/2000/svg" xmlns:xlink="http://www.w3.org/1999/xlink" x="0px" y="0px"
	 viewBox="0 0 399.3 399.3" style="enable-background:new 0 0 399.3 399.3;" xml:space="preserve">
<style type="text/css">
	.st0{fill:#29a19c;stroke:#29a19c;stroke-width:2;stroke-miterlimit:10;}
</style>
<title>11</title>
<g id="Слой_2">
	<g id="Слой_1-2">
		<path class="st0" d="M172.8,133.5c-1.2-4.7-3.5-9.1-6.6-12.8c-2.9-3.4-6.5-6.1-10.6-7.9c-4.7-1.8-9.6-2.7-14.6-2.6
			c-7.4,0-14.2,1.7-19.1,4.8c-4.7,3-8.2,7.7-10.4,14l-0.1,0.1c-2.4,5.7-3.6,13.4-3.6,24.1c0,9.3,1.4,16.4,4.5,22.6v0.1
			c2.7,6.2,6.5,10.4,11.7,13.1c5.4,2.8,11.3,4.4,17.4,4.5c10.3,0,18.4-3.3,24.8-10.1c6-6.4,8.8-16.5,8.8-31
			C175.1,145.9,174.3,139.6,172.8,133.5z M154.6,174.5L154.6,174.5c-2.2,5.5-6.7,8.3-13.1,8.3c-4.4,0-7.7-1.2-10.3-3.9
			c-2.8-2.8-4.5-6.5-4.8-10.5c-1.1-5.5-1.5-11.1-1.4-16.7c-0.1-5.5,0.4-11,1.4-16.4c1.1-4.8,2.7-8.3,4.8-10.4
			c2.6-2.6,5.9-3.9,10.3-3.9c6,0,10.9,2.9,13.1,7.8c2.4,4.8,3.5,11.7,3.5,22.4C157.4,162.3,156.4,169.4,154.6,174.5L154.6,174.5z"/>
		<path class="st0" d="M289.6,216.1c-1.9-5.6-4.1-9.9-6.6-12.9c-2.7-3.3-6.3-5.9-10.4-7.4l-0.2-0.1c-4.7-1.9-9.7-2.8-14.7-2.6
			c-11.6,0-19.9,3.4-25.1,10.4s-8.1,17.9-8.1,32.1c0,9.3,1.4,16.4,4.5,22.6c2.8,5.3,6.8,9.9,11.9,13.2c5.3,2.8,11.3,4.3,17.3,4.4
			c10.3,0,18.4-3.3,24.8-10.1c6-6.4,8.8-16.5,8.8-31C291.9,228.5,291.1,222.2,289.6,216.1z M270.8,256.7c-2.2,5.4-6.7,8.2-13.1,8.2
			s-10.9-2.8-13.1-8.2c-2.4-4.8-3.4-12.2-3.4-23.3c-0.1-5.5,0.4-11,1.5-16.4c1-4.5,2.6-7.7,5.2-10.3s5.9-3.9,10.3-3.9
			c6,0,10.9,2.9,13.1,7.8c2.4,4.8,3.5,11.7,3.5,22.4C274.2,245.2,273.1,252.1,270.8,256.7z"/>
		<path class="st0" d="M375,199.6l21.4-35.1l0.2-0.2c1.2-0.9,1.8-2.4,1.7-3.9c-0.2-1.5-1-2.9-2.4-3.7l-0.1-0.1L363,132.5l6.3-40.6
			c0.3-2.8-1.2-6.4-4.5-7.1l-40.1-9.7l-9.7-39.6c-0.3-1.6-1.3-2.9-2.6-3.8c-1.3-0.9-2.9-1.2-4.4-0.8h-0.1l-40.6,6.3L243,4.3
			c-2-2.3-5.6-3.8-8.6-1.9l-34.8,20.8L164.8,2c-2.9-1.8-6.7-1-8.6,1.8L132,36.7l-40.6-6.3c-2.8-0.3-6.4,1.2-7.1,4.5l-9.7,40.1
			L35,84.8c-3.2,0.7-5.2,3.8-4.6,7v0.1l6.3,40.6L3.8,156.6c-2.7,2-3.4,5.7-1.8,8.6L23.3,200L2,234.9c-1.8,2.9-1,6.7,1.8,8.6
			l32.9,24.2L30,308.2c-0.3,2.9,1.2,6.4,4.5,7.2l39.7,9.7l9.7,39.6c0.3,1.6,1.3,2.9,2.6,3.8c1.3,0.9,2.9,1.2,4.4,0.8h0.1l40.6-6.3
			l24.3,33c1,1.7,3.3,2.3,4.9,2.3c1.1,0,2.2-0.4,3.1-1.1l34.9-21.3l34.8,21.3c2.9,1.8,6.7,1,8.6-1.8l24.2-32.9l40.6,6.3
			c2.9,0.3,6.4-1.2,7.1-4.5l9.7-39.7l39.6-9.7c1.6-0.3,2.9-1.3,3.8-2.6c0.9-1.3,1.2-2.9,0.8-4.4v-0.1l-6.3-40.6l32.8-24.2
			c2.4-2.1,3.8-5.7,1.9-8.6L375,199.6z M352.3,260.3c-1.8,1.5-2.8,3.7-2.5,6.1l5.9,38.4l-37.9,9.4c-2.3,0.5-4.1,2.2-4.6,4.5v0.1
			l-9.3,37.9l-38.4-5.9c-2.3-0.3-4.7,0.7-6.1,2.5l-23.1,31.4l-33.4-20.2c-2.3-1.5-4.1-1.5-6.3,0L163,384.7l-23.1-31.5
			c-1.5-1.8-3.7-2.7-6-2.5l-38.4,5.9L86,318.7c-0.5-2.3-2.2-4.1-4.5-4.6h-0.2l-37.9-9.4l5.9-38.4c0.3-2.4-0.7-4.7-2.6-6.1
			l-31.4-23.1l20.1-33.4c1.1-2.2,1.1-4.8,0-7l-20.1-33.4l31.5-23.1c1.8-1.5,2.7-3.7,2.5-6l-5.9-38.4l37.9-9.4
			c2.3-0.5,4.1-2.3,4.6-4.5v-0.2L95.4,44l38.4,5.9c2.3,0.3,4.7-0.7,6.1-2.5l23.1-31.4L196.3,36c2.2,1.1,4.8,1.1,7,0l33.4-20.1
			l23.1,31.5c1.5,1.8,3.7,2.7,6,2.5l38.5-5.9l9.3,37.9c0.5,2.3,2.2,4.1,4.5,4.6h0.1l37.9,9.4l-5.9,38.4c-0.3,2.3,0.7,4.7,2.5,6.1
			l31.4,23.1l-20.6,33.4c-1.1,2.2-1.1,4.8,0,7l20.1,33.4L352.3,260.3z"/>
		<path class="st0" d="M256.3,114.2c0,0.7-0.8,3.6-4.5,8.3l-0.1,0.1l-94.8,153c-2,3.6-4.4,5.5-7.1,5.5c-1.7,0-3.3-0.6-4.6-1.7
			c-1.8-1.3-2.4-2.5-2.4-4.4c0-0.6,0.2-1.9,2.2-5.1l95.2-154.3v-0.1c1-2.1,2.4-4.1,4-5.8c1.1-1.1,2.6-1.6,4.9-1.6s3.8,0.5,4.9,1.6
			C255.5,110.9,256.2,112.5,256.3,114.2z"/>
	</g>
</g>
</svg>
