<?xml version="1.0" encoding="utf-8"?>
<!-- Generator: Adobe Illustrator 21.0.0, SVG Export Plug-In . SVG Version: 6.00 Build 0)  -->
<svg version="1.1" id="Слой_1" xmlns="http://www.w3.org/2000/svg" xmlns:xlink="http://www.w3.org/1999/xlink" x="0px" y="0px"
	 viewBox="0 0 512 277.7" style="enable-background:new 0 0 512 277.7;" xml:space="preserve">
<style type="text/css">
	.st0{fill:#29a19c;}
</style>
<title>22</title>
<g id="Слой_2">
	<g id="Layer_1">
		<path class="st0" d="M62.7,137.4c2.4,0.9,4.8,1.7,7.3,2.6C67.5,139.1,65,138.3,62.7,137.4z M104.1,148.9L104.1,148.9
			c8.3,1.7,17,3.1,26,4.2l0,0C121.2,151.9,112.5,150.5,104.1,148.9z M70,140c5.4,1.8,11,3.4,16.8,5l0,0
			C80.9,143.4,75.3,141.7,70,140z M147.6,154.8L147.6,154.8c1.4,0.1,2.9,0.2,4.3,0.3C150.4,155.1,149,155,147.6,154.8L147.6,154.8z
			 M294.6,140c2.5-0.8,4.9-1.7,7.3-2.6C299.4,138.3,297,139.1,294.6,140L294.6,140z M277.8,144.9L277.8,144.9
			c5.8-1.5,11.5-3.2,16.8-5C289.2,141.7,283.5,143.4,277.8,144.9L277.8,144.9z M217,154.8c-1.4,0.1-2.9,0.2-4.3,0.3
			C214.1,155.1,215.6,155,217,154.8c1.8-0.1,3.6-0.3,5.4-0.5L217,154.8z M234.3,153L234.3,153c9-1.1,17.7-2.5,26-4.2l0,0
			C252,150.5,243.3,151.9,234.3,153z"/>
		<path class="st0" d="M303.7,136.7l-0.2,0.1L303.7,136.7l0.4-0.2L303.7,136.7z M363.4,86.8h1.1v-8.7
			C364.5,81,364.1,83.9,363.4,86.8z M60.8,136.7l-0.4-0.2L60.8,136.7l0.3,0.1L60.8,136.7z"/>
		<path class="st0" d="M512,143.2v1.7c-0.2-8-6.7-14.5-14.8-14.8h1.8C506.1,130.4,511.8,136.1,512,143.2z"/>
		<path class="st0" d="M512,245.6v2.6c0,6.1-6.1,12.1-13,12.1h-1.7C505.3,260.1,511.8,253.6,512,245.6z"/>
		<path class="st0" d="M182.2,112.8c-34.7,0-69.4-12.2-69.4-34.7s34.7-34.7,69.4-34.7s69.4,12.2,69.4,34.7S216.9,112.8,182.2,112.8z
			 M182.2,60.8c-32.1,0-52.1,11.3-52.1,17.4s20,17.4,52.1,17.4s52.1-11.3,52.1-17.4S214.4,60.8,182.2,60.8z"/>
		<path class="st0" d="M60.8,136.7L60.8,136.7l-0.4-0.2L60.8,136.7z"/>
		<path class="st0" d="M222.4,154.4c-1.8,0.2-3.6,0.3-5.4,0.5l0,0L222.4,154.4z"/>
		<path class="st0" d="M497.3,130.2h-54.7c-42.5,0-78.1-20-78.1-43.4h-1.1c0.7-2.8,1.1-5.8,1.1-8.7C364.5,34.7,284.6,0,182.2,0
			S0,34.7,0,78.1v121.5c0,43.4,79.8,78.1,182.2,78.1c81.8,0,149.2-22.1,173-53.2c14.6,21.2,47.7,35.8,87.3,35.8h54.7
			c8-0.2,14.5-6.7,14.8-14.8V144.9C511.8,136.9,505.3,130.4,497.3,130.2z M347.1,199.6c0,10.6-9.3,21.7-26,31.5V217
			c0-5.2-3.5-8.7-8.7-8.7s-8.7,3.5-8.7,8.7v22.7c-8.5,3.5-17.2,6.4-26,8.9v-22.9c0-5.2-3.5-8.7-8.7-8.7s-8.7,3.5-8.7,8.7v26
			c0,0.4,0,0.7,0,1c-8.2,1.7-16.9,3.2-26.1,4.4v-22.7c0-5.2-3.5-8.7-8.7-8.7s-8.7,3.5-8.7,8.7v24.6c-8.4,0.7-17,1.1-26,1.3V243
			c0-5.2-3.5-8.7-8.7-8.7s-8.7,3.5-8.7,8.7v17.3c-9-0.2-17.6-0.6-26-1.3v-24.6c0-5.2-3.5-8.7-8.7-8.7s-8.7,3.5-8.7,8.7v22.8
			c-9.1-1.2-17.8-2.6-26.1-4.4c0-0.3,0-0.7,0-1v-26c0-5.2-3.5-8.7-8.7-8.7s-8.7,3.5-8.7,8.7v22.9c-8.8-2.4-17.5-5.4-26-8.9V217
			c0-5.2-3.5-8.7-8.7-8.7s-8.7,3.5-8.7,8.7v14.1c-16.7-9.8-26-20.9-26-31.5V112c6.9,6.2,15.7,12,26.1,17.2c0,0.3,0,0.7,0,1v34.7
			c0,5.2,3.5,8.7,8.7,8.7s8.7-3.5,8.7-8.7v-28.2l-0.4-0.2l0.4,0.2l0.3,0.1l0.2,0.1l0.5,0.2l0.9,0.3c2.4,0.9,4.8,1.7,7.3,2.6
			c5.4,1.8,11,3.4,16.8,4.9v20c0,5.2,3.5,8.7,8.7,8.7s8.7-3.5,8.7-8.7v-16c8.3,1.7,17,3.1,26,4.2v29.2c0,5.2,3.5,8.7,8.7,8.7
			s8.7-3.5,8.7-8.7v-27.4c1.4,0.1,2.9,0.2,4.3,0.3l3.3,0.2c2.1,0.1,4.1,0.2,6.2,0.3h0.7l2.6,0.1c2.9,0.1,5.9,0.2,8.9,0.3v17.4
			c0,5.2,3.5,8.7,8.7,8.7s8.7-3.5,8.7-8.7v-17.4c3-0.1,5.9-0.1,8.9-0.3l2.6-0.1h0.7c2.1-0.1,4.1-0.2,6.2-0.3l3.3-0.2
			c1.4-0.1,2.9-0.2,4.3-0.3l5.4-0.5c-1.8,0.2-3.6,0.3-5.4,0.5v27.4c0,5.2,3.5,8.7,8.7,8.7s8.7-3.5,8.7-8.7V153
			c9-1.1,17.7-2.5,26-4.2v16c0,5.2,3.5,8.7,8.7,8.7s8.7-3.5,8.7-8.7v-20c5.8-1.5,11.4-3.2,16.8-4.9c2.5-0.8,4.9-1.7,7.3-2.6l1.3-0.5
			l0.4-0.1l0.2-0.1l0.4-0.2l-0.4,0.2v28.2c0,5.2,3.5,8.7,8.7,8.7s8.7-3.5,8.7-8.7v-34.6c0-0.4,0-0.7,0-1c10.4-5.2,19.2-11,26.1-17.2
			L347.1,199.6z M182.2,138.9c-97.2,0-164.9-32.1-164.9-60.8S85,17.4,182.2,17.4s164.9,32.1,164.9,60.7S279.4,138.9,182.2,138.9z
			 M451.3,243h-8.7c-8.7,0-17.4-0.9-26-2.6v-32.1c0-5.2-3.5-8.7-8.7-8.7s-8.7,3.5-8.7,8.7v27.2c-20.8-7.9-34.7-21.2-34.7-35.8v-77.5
			c5.2,4.7,11.1,8.7,17.3,11.9v30.9c0,5.2,3.5,8.7,8.7,8.7s8.7-3.5,8.7-8.7v-23.8c5.7,1.8,11.5,3.2,17.4,4.2v19.6
			c0,5.2,3.5,8.7,8.7,8.7s8.7-3.5,8.7-8.7v-17.6c2.9,0.2,5.8,0.2,8.7,0.2h8.7L451.3,243z M494.6,243h-26v-95.5h26V243z"/>
		<path class="st0" d="M304.2,136.5l-0.4,0.2l0,0L304.2,136.5z"/>
	</g>
</g>
</svg>
