<svg xmlns="http://www.w3.org/2000/svg" viewBox="0 0 205.5 454.74"><defs><style>.cls-1{fill:#bf6052;}</style></defs><title>1_2_icon</title><g id="Слой_2" data-name="Слой 2"><g id="Слой_1-2" data-name="Слой 1"><rect class="cls-1" width="15" height="454.74"/><rect class="cls-1" x="49" width="15" height="454.74"/><path class="cls-1" d="M153,187.65c-14.34,11.4-35.28-6.33-35.5-6.5-2.78-2.42-6-2.12-8.44.69a6.66,6.66,0,0,0-1.61,4.38,6.55,6.55,0,0,0,2.29,5c1.2,1,28.56,25.18,51.58,6.89,12.77-10.16,20.18-2.64,21.59-1a6.68,6.68,0,0,0,10.38-8.39C187.71,181.71,172.1,172.47,153,187.65Z"/><path class="cls-1" d="M153,246.18c-14.34,11.4-35.28-6.33-35.5-6.5-2.78-2.42-6-2.12-8.44.69a6.66,6.66,0,0,0-1.61,4.38,6.54,6.54,0,0,0,2.29,5c1.2,1,28.56,25.18,51.58,6.89,12.77-10.16,20.18-2.64,21.59-1a6.68,6.68,0,0,0,10.38-8.39C187.71,240.24,172.1,231,153,246.18Z"/><path class="cls-1" d="M153,304.71c-14.34,11.4-35.28-6.33-35.5-6.5-2.78-2.42-6-2.12-8.44.69a6.66,6.66,0,0,0-1.61,4.38,6.54,6.54,0,0,0,2.29,5c1.2,1,28.56,25.18,51.58,6.89,12.77-10.16,20.18-2.64,21.59-1a6.68,6.68,0,0,0,10.38-8.39C187.71,298.76,172.1,289.53,153,304.71Z"/><path class="cls-1" d="M153,363.24c-14.34,11.4-35.28-6.33-35.5-6.5-2.78-2.42-6-2.12-8.44.69a6.66,6.66,0,0,0-1.61,4.38,6.55,6.55,0,0,0,2.29,5c1.2,1,28.56,25.18,51.58,6.89,12.77-10.16,20.18-2.64,21.59-1a6.68,6.68,0,0,0,10.38-8.39C187.71,357.29,172.1,348.05,153,363.24Z"/><path class="cls-1" d="M203.88,97.39l.16-.21.14-.19.13-.2.15-.24.11-.18.11-.21.13-.26.08-.17.09-.23.1-.28.06-.17.07-.25.08-.28,0-.18c0-.08,0-.17,0-.26s0-.18,0-.27l0-.2c0-.08,0-.17,0-.25s0-.18,0-.26,0-.16,0-.24,0-.08,0-.12,0-.08,0-.12,0-.16,0-.24,0-.18,0-.26,0-.17,0-.25l0-.2c0-.09,0-.18,0-.27s0-.17,0-.26l0-.18-.08-.28-.07-.25-.06-.17L205,90l-.09-.23-.08-.17-.13-.26-.11-.21-.11-.18-.15-.24-.13-.2L204,88.3l-.16-.21-.15-.19-.16-.19-.08-.1-22-23.5a7.5,7.5,0,1,0-11,10.25L180.7,85.24H95a7.5,7.5,0,0,0,0,15h85.7l-10.18,10.87a7.5,7.5,0,0,0,11,10.25l22-23.5.08-.1.16-.19Z"/><rect class="cls-1" width="64" height="15"/><rect class="cls-1" y="439.74" width="64" height="15"/></g></g></svg>