<svg xmlns="http://www.w3.org/2000/svg" viewBox="0 0 375.35 345.07"><defs><style>.cls-1{fill:#bf6052;}</style></defs><title>1_3_icon</title><g id="Слой_2" data-name="Слой 2"><g id="Слой_1-2" data-name="Слой 1"><path class="cls-1" d="M140.6,172.92a62.56,62.56,0,0,0,62.25-62.25c0-23.49-27.72-64.36-46.27-91.61-4-5.87-7.52-11.27-10.81-16.21A7.15,7.15,0,0,0,143.88,1a6.12,6.12,0,0,0-8.46,1.88c-3.05,4.93-6.58,10.1-10.81,16.21-18.56,27.25-46.27,68.35-46.27,91.84a62,62,0,0,0,18.32,43.92A62.75,62.75,0,0,0,140.6,172.92ZM134.72,25.64c2.11-3.05,4-6.11,5.87-8.69,1.88,2.58,3.76,5.64,5.87,8.69,17.62,26.31,44.16,65.3,44.16,85a50.67,50.67,0,0,1-14.56,35.47A49.68,49.68,0,0,1,140.6,160.7a50.67,50.67,0,0,1-35.47-14.56,49.68,49.68,0,0,1-14.56-35.47C90.56,90.94,117.11,51.71,134.72,25.64Z"/><path class="cls-1" d="M161.5,147.55a40.7,40.7,0,0,0,15-14.56,40,40,0,0,0,6.11-20.2,6,6,0,0,0-12-.7,30.23,30.23,0,0,1-4.46,14.33,28.55,28.55,0,0,1-10.8,10.34,6.21,6.21,0,0,0,6.11,10.8Z"/><path class="cls-1" d="M201.68,272.2a42.76,42.76,0,0,0,30,12.37A42.79,42.79,0,0,0,274.3,242c0-16.11-18.71-43.58-31.08-61.76-1.81-2.66-3.48-5.18-5-7.55L236,169.41a5.77,5.77,0,0,0-1.53-1.53,5.11,5.11,0,0,0-7.05,1.56c-1.94,3.13-4.19,6.45-7.19,10.79-11.63,17.07-31.08,45.64-31.08,61.91A42.27,42.27,0,0,0,201.68,272.2Zm30,2.21a32.82,32.82,0,0,1-23-9.43,32.26,32.26,0,0,1-9.43-23c0-12.84,17.59-38.87,29.23-56.09l.09-.14c.61-.88,1.19-1.77,1.76-2.63.46-.69.9-1.37,1.34-2,.44.64.88,1.31,1.34,2,.57.86,1.15,1.75,1.75,2.62l1.09,1.62c11.25,16.78,28.24,42.15,28.24,54.62a32.82,32.82,0,0,1-9.43,23A32.26,32.26,0,0,1,231.72,274.41Z"/><path class="cls-1" d="M253,235.54a5,5,0,0,0-5.31,4.72,19.21,19.21,0,0,1-2.84,9.1,18.12,18.12,0,0,1-6.87,6.56,5.11,5.11,0,0,0-1.93,6.85,5.39,5.39,0,0,0,3.27,2.59,5,5,0,0,0,1.29.17,4.86,4.86,0,0,0,2.45-.66,28,28,0,0,0,10.39-10.06,27.55,27.55,0,0,0,4.23-14A5,5,0,0,0,253,235.54Z"/><path class="cls-1" d="M373.74,302.83a5.5,5.5,0,0,0-7.78,0l-31.23,31.23H40.62L9.39,302.83a5.5,5.5,0,0,0-7.78,7.78l32.84,32.84a5.53,5.53,0,0,0,.85.7l.06,0a5.5,5.5,0,0,0,.89.47l.07,0a5.46,5.46,0,0,0,1,.28h.05a5.51,5.51,0,0,0,1,.1H337a5.51,5.51,0,0,0,1-.1h.05a5.44,5.44,0,0,0,1-.28l.07,0a5.48,5.48,0,0,0,.89-.47l.06,0a5.53,5.53,0,0,0,.85-.7l32.84-32.84A5.5,5.5,0,0,0,373.74,302.83Z"/></g></g></svg>