<svg xmlns="http://www.w3.org/2000/svg" viewBox="0 0 144 144"><defs><style>.cls-1{fill:#385177;opacity:0.75;}.cls-2{fill:#fff;stroke:#fff;stroke-miterlimit:10;}</style></defs><title>1_icon</title><g id="Слой_2" data-name="Слой 2"><g id="Слой_1-2" data-name="Слой 1"><circle class="cls-1" cx="72" cy="72" r="72"/><path class="cls-2" d="M106.56,63.87,71,30.85l-35.55,33a1.24,1.24,0,1,0,1.69,1.82l4.11-3.82v41.34h59.51V61.86l4.11,3.82a1.24,1.24,0,1,0,1.69-1.82Zm-8.28,36.87H43.73V59.56L71,34.24,98.27,59.56Zm0,0"/><path class="cls-2" d="M53.74,73.14H68V58.92H53.74Zm2-12.2H65.93V71.11H55.77Zm0,0"/><path class="cls-2" d="M88.26,58.92H74V73.14H88.26Zm-2,12.19H76.07V60.95H86.23Zm0,0"/><path class="cls-2" d="M53.74,93.43H68V79.21H53.74Zm2-12.19H65.93V91.41H55.77Zm0,0"/><path class="cls-2" d="M88.26,79.21H74V93.43H88.26Zm-2,12.2H76.07V81.24H86.23Zm0,0"/></g></g></svg>