<svg xmlns="http://www.w3.org/2000/svg" viewBox="0 0 349.94 269.05"><defs><style>.cls-1{fill:#af4561;}</style></defs><title>2_1_icon</title><g id="Слой_2" data-name="Слой 2"><g id="Слой_1-2" data-name="Слой 1"><path class="cls-1" d="M344.09,0a5.86,5.86,0,0,0-5.86,5.85V66.17h-17.7V50a27.9,27.9,0,0,0-48.86-18.43l-1.12,1.27-1.13-1.27a27.85,27.85,0,0,0-41.86,0l-1.13,1.27-1.12-1.27a27.84,27.84,0,0,0-41.86,0l-1.13,1.27-1.12-1.27a27.86,27.86,0,0,0-41.87,0l-1.13,1.27-1.12-1.27a27.86,27.86,0,0,0-41.87,0l-1.12,1.27L93,31.54A27.89,27.89,0,0,0,45,43l-.29,1.12H20.56A5.86,5.86,0,0,0,14.71,50v16.2H5.85a5.86,5.86,0,0,0,0,11.71h8.86v16.2a5.85,5.85,0,0,0,5.85,5.85H44.12V241.15A27.89,27.89,0,0,0,93,259.57l1.13-1.28,1.12,1.27a27.85,27.85,0,0,0,41.87,0l1.12-1.28,1.13,1.27a27.85,27.85,0,0,0,41.87,0l1.12-1.28,1.13,1.27a27.83,27.83,0,0,0,41.86,0l1.12-1.28,1.13,1.27a27.85,27.85,0,0,0,41.87,0l1.12-1.28,1.12,1.27a27.9,27.9,0,0,0,48.87-18.41V77.88h23.55A5.86,5.86,0,0,0,349.94,72V5.85A5.85,5.85,0,0,0,344.09,0Zm-300,88.23H26.41V55.82H44.12ZM88.24,241.15a16.2,16.2,0,0,1-32.41,0V50a16.2,16.2,0,1,1,32.41,0Zm44.11,0a16.2,16.2,0,0,1-32.41,0V50a16.2,16.2,0,1,1,32.41,0Zm44.12,0a16.21,16.21,0,0,1-32.41,0V50a16.21,16.21,0,1,1,32.41,0Zm44.12,0a16.21,16.21,0,0,1-32.41,0V50a16.21,16.21,0,1,1,32.41,0Zm44.11,0a16.2,16.2,0,0,1-32.4,0V50a16.2,16.2,0,1,1,32.4,0Zm44.12,0a16.2,16.2,0,0,1-32.4,0V50a16.2,16.2,0,1,1,32.4,0Z"/></g></g></svg>