<svg xmlns="http://www.w3.org/2000/svg" viewBox="0 0 284.2 284.2"><defs><style>.cls-1{fill:#af4561;}</style></defs><title>2_2_icon</title><g id="Слой_2" data-name="Слой 2"><g id="Слой_1-2" data-name="Слой 1"><path class="cls-1" d="M191.11,93.18a69.9,69.9,0,0,0-49-20.52A68.43,68.43,0,0,0,93.18,93.1a69.85,69.85,0,0,0-20.52,49A68.54,68.54,0,0,0,78,168.49a70,70,0,0,0,64.08,43A68.43,68.43,0,0,0,191,191.1a69.81,69.81,0,0,0,20.52-49A68.46,68.46,0,0,0,191.11,93.18Zm-8.3,89.63a58.14,58.14,0,0,1-81.42,0,58.14,58.14,0,0,1,0-81.42,58.14,58.14,0,0,1,81.42,0,58.14,58.14,0,0,1,0,81.42Z"/><path class="cls-1" d="M284.2,142.1a6.21,6.21,0,0,1-6,6.05H248.39a6.05,6.05,0,0,1,0-12.1h29.76A6.21,6.21,0,0,1,284.2,142.1Z"/><path class="cls-1" d="M148.15,248.39v29.76a6.05,6.05,0,1,1-12.1,0V248.39a6.05,6.05,0,1,1,12.1,0Z"/><path class="cls-1" d="M242.47,242.47a5.79,5.79,0,0,1-8.26,0L213,221.21a5.79,5.79,0,0,1,0-8.26,6.08,6.08,0,0,1,4.27-1.72h.17a5.07,5.07,0,0,1,3.68,1.57l21.4,21.41A5.79,5.79,0,0,1,242.47,242.47Z"/><path class="cls-1" d="M148.15,6V35.81a6.05,6.05,0,1,1-12.1,0V6a6.05,6.05,0,0,1,12.1,0Z"/><path class="cls-1" d="M242.86,50,221.6,71.25A6.09,6.09,0,0,1,217.16,73a5,5,0,0,1-3.67-1.57l-.15-.15a5.79,5.79,0,0,1,0-8.26L234.6,41.73A5.84,5.84,0,0,1,242.86,50Z"/><path class="cls-1" d="M41.86,142.1a6.21,6.21,0,0,1-6.05,6.05H6.05A6,6,0,0,1,0,142.1,6.21,6.21,0,0,1,6.05,136H35.81A6.21,6.21,0,0,1,41.86,142.1Z"/><path class="cls-1" d="M70.86,221.21,49.6,242.47a5.84,5.84,0,1,1-8.26-8.26L62.6,213a6.06,6.06,0,0,1,4.27-1.72H67a5,5,0,0,1,3.67,1.57l.15.15A5.79,5.79,0,0,1,70.86,221.21Z"/><path class="cls-1" d="M72.59,67.12a5.85,5.85,0,0,1-10,4.13L41.34,50a5.84,5.84,0,1,1,8.26-8.26L70.86,63A5.82,5.82,0,0,1,72.59,67.12Z"/></g></g></svg>