<svg xmlns="http://www.w3.org/2000/svg" viewBox="0 0 275.41 259.77"><defs><style>.cls-1{fill:#af4561;}</style></defs><title>2_3_icon</title><g id="Слой_2" data-name="Слой 2"><g id="Слой_1-2" data-name="Слой 1"><path class="cls-1" d="M186.58,70.53l-.32,0V4A3.85,3.85,0,0,0,184.12.58a5.54,5.54,0,0,0-5.61.41L74,61.24H5.18A5.19,5.19,0,0,0,0,66.42v76.25a5.19,5.19,0,0,0,5.18,5.18H17.66l.06.28,25.69,108c1.23,2.44,2.88,3.61,5.19,3.61H83.68a5.58,5.58,0,0,0,4.42-2,5.5,5.5,0,0,0,.77-4.83L63.77,147.85h7.62l.11.11a3,3,0,0,0,.68.47l106.31,61.25a5.15,5.15,0,0,0,5.22.16,5.37,5.37,0,0,0,2.55-4.85V138.07l.32,0c17.59-2.58,30.86-17.09,30.86-33.76C217.44,87.23,204.46,73,186.58,70.53ZM77.48,249.36H52.79L28.26,147.85H53Zm-7.9-111.87H9.83V71.06H69.58ZM175.9,196.24l-96-55.6V68.44l.19-.11L175.9,12.85Zm10.86-68.74-.45.09V81l.45.08c12.12,2.36,20.91,12.13,20.91,23.22S198.82,125.14,186.76,127.5Z"/><path class="cls-1" d="M233.91,63.35a4.5,4.5,0,0,1-3.18-7.68l23-23A4.5,4.5,0,0,1,260.09,39l-23,23A4.49,4.49,0,0,1,233.91,63.35Z"/><path class="cls-1" d="M256.91,168.85a4.49,4.49,0,0,1-3.18-1.32l-23-23a4.5,4.5,0,1,1,6.36-6.36l23,23a4.5,4.5,0,0,1-3.18,7.68Z"/><path class="cls-1" d="M270.91,108.78h-33a4.5,4.5,0,0,1,0-9h33a4.5,4.5,0,0,1,0,9Z"/></g></g></svg>