<svg xmlns="http://www.w3.org/2000/svg" viewBox="0 0 144 144"><defs><style>.cls-1{fill:#385177;opacity:0.75;}.cls-2{fill:#fff;stroke:#fff;stroke-miterlimit:10;stroke-width:0.5px;}</style></defs><title>2_icon</title><g id="Слой_2" data-name="Слой 2"><g id="Слой_1-2" data-name="Слой 1"><circle class="cls-1" cx="72" cy="72" r="72"/><path class="cls-2" d="M89.79,104.47H51.47a1.37,1.37,0,0,0-1.37,1.37v2.74a1.37,1.37,0,1,0,2.74,0V107.2H89.79a1.37,1.37,0,0,0,0-2.74Zm0,0"/><path class="cls-2" d="M61.05,62a1.37,1.37,0,0,0,1.37,1.37h5.47A1.37,1.37,0,0,0,69.26,62V53.83a1.37,1.37,0,0,0-1.37-1.37H62.42a1.37,1.37,0,0,0-1.37,1.37Zm2.74-6.84h2.74v5.47H63.79Zm0,0"/><path class="cls-2" d="M48.73,44.25H32.31a1.37,1.37,0,0,0-1.37,1.37V73a1.37,1.37,0,0,0,2.74,0V47H48.73a1.37,1.37,0,1,0,0-2.74Zm0,0"/><path class="cls-2" d="M96.63,94.89A1.37,1.37,0,0,0,98,96.26h5.47a1.37,1.37,0,0,0,1.37-1.37V86.68a1.37,1.37,0,0,0-1.37-1.37H98a1.37,1.37,0,0,0-1.37,1.37ZM99.37,88h2.74v5.47H99.37Zm0,0"/><path class="cls-2" d="M37.79,77.1c-6.76,0-6.84,17.61-6.84,17.79a6.85,6.85,0,0,0,5.47,6.7v7a1.37,1.37,0,1,0,2.74,0v-7a6.85,6.85,0,0,0,5.47-6.7c0-.18-.08-17.79-6.84-17.79Zm0,21.9a4.11,4.11,0,0,1-4.11-4.11c0-6.82,1.83-15.05,4.11-15.05s4.11,8.24,4.11,15.05A4.11,4.11,0,0,1,37.79,99Zm0,0"/><path class="cls-2" d="M46,68.89H40.52a1.37,1.37,0,0,0-1.37,1.37V73a1.37,1.37,0,0,0,2.74,0V71.62h2.74v6.84a1.37,1.37,0,1,0,2.74,0V70.25A1.37,1.37,0,0,0,46,68.89Zm0,0"/><path class="cls-2" d="M98,63.41h5.47A1.37,1.37,0,0,0,104.84,62V53.83a1.37,1.37,0,0,0-1.37-1.37H98a1.37,1.37,0,0,0-1.37,1.37V62A1.37,1.37,0,0,0,98,63.41Zm1.37-8.21h2.74v5.47H99.37Zm0,0"/><path class="cls-2" d="M46,52.46H40.52a1.37,1.37,0,0,0-1.37,1.37V62a1.37,1.37,0,0,0,1.37,1.37H46A1.37,1.37,0,0,0,47.37,62V53.83A1.37,1.37,0,0,0,46,52.46Zm-1.37,8.21H41.89V55.2h2.74Zm0,0"/><path class="cls-2" d="M74.74,62a1.37,1.37,0,0,0,1.37,1.37h5.47A1.37,1.37,0,0,0,82.95,62V53.83a1.37,1.37,0,0,0-1.37-1.37H76.11a1.37,1.37,0,0,0-1.37,1.37Zm2.74-6.84h2.74v5.47H77.47Zm0,0"/><path class="cls-2" d="M111.69,44.25H95.26a1.37,1.37,0,1,0,0,2.74h15.05v55a3.92,3.92,0,0,0-2.07-.19,5.47,5.47,0,0,0-9.54,0,4.06,4.06,0,0,0-.7-.06,4.11,4.11,0,1,0,0,8.21h10.95a4.11,4.11,0,0,0,4.11-4.11V45.62a1.37,1.37,0,0,0-1.37-1.37Zm-2.74,63H98a1.37,1.37,0,1,1,0-2.74,1.35,1.35,0,0,1,.74.22,1.37,1.37,0,0,0,2.07-.84,2.73,2.73,0,0,1,5.32,0,1.37,1.37,0,0,0,2.08.84,1.4,1.4,0,0,1,2.11,1.15,1.37,1.37,0,0,1-1.37,1.37Zm0,0"/><path class="cls-2" d="M76.11,47h5.47a1.37,1.37,0,0,0,1.37-1.37V37.41A1.37,1.37,0,0,0,81.58,36H76.11a1.37,1.37,0,0,0-1.37,1.37v8.21A1.37,1.37,0,0,0,76.11,47Zm1.37-8.21h2.74v5.47H77.47Zm0,0"/><path class="cls-2" d="M74.74,78.46a1.37,1.37,0,0,0,1.37,1.37h5.47a1.37,1.37,0,0,0,1.37-1.37V70.25a1.37,1.37,0,0,0-1.37-1.37H76.11a1.37,1.37,0,0,0-1.37,1.37Zm2.74-6.84h2.74V77.1H77.47Zm0,0"/><path class="cls-2" d="M62.42,47h5.47a1.37,1.37,0,0,0,1.37-1.37V37.41A1.37,1.37,0,0,0,67.89,36H62.42a1.37,1.37,0,0,0-1.37,1.37v8.21A1.37,1.37,0,0,0,62.42,47Zm1.37-8.21h2.74v5.47H63.79Zm0,0"/><path class="cls-2" d="M71,93.92a1.37,1.37,0,1,0,1.94,0,1.44,1.44,0,0,0-1.94,0Zm0,0"/><path class="cls-2" d="M61.05,78.46a1.37,1.37,0,0,0,1.37,1.37h5.47a1.37,1.37,0,0,0,1.37-1.37V70.25a1.37,1.37,0,0,0-1.37-1.37H62.42a1.37,1.37,0,0,0-1.37,1.37Zm2.74-6.84h2.74V77.1H63.79Zm0,0"/><path class="cls-2" d="M58.32,86.68A1.37,1.37,0,0,0,59.68,88h4.11v12.32a1.37,1.37,0,1,0,2.74,0V88H77.47v12.32a1.37,1.37,0,1,0,2.74,0V88h4.11a1.37,1.37,0,1,0,0-2.74H59.68a1.37,1.37,0,0,0-1.37,1.37Zm0,0"/><path class="cls-2" d="M96.63,78.46A1.37,1.37,0,0,0,98,79.83h5.47a1.37,1.37,0,0,0,1.37-1.37V70.25a1.37,1.37,0,0,0-1.37-1.37H98a1.37,1.37,0,0,0-1.37,1.37Zm2.74-6.84h2.74V77.1H99.37Zm0,0"/><path class="cls-2" d="M89.79,27.83H54.21a1.37,1.37,0,0,0-1.37,1.37v71.16a1.37,1.37,0,1,0,2.74,0V30.57H88.42v69.79a1.37,1.37,0,1,0,2.74,0V29.2a1.37,1.37,0,0,0-1.37-1.37Zm0,0"/></g></g></svg>