<svg xmlns="http://www.w3.org/2000/svg" viewBox="0 0 368.43 496.76"><defs><style>.cls-1{fill:#bf6052;}</style></defs><title>3_1_icon</title><g id="Слой_2" data-name="Слой 2"><g id="Слой_1-2" data-name="Слой 1"><path class="cls-1" d="M320.33,305.07V272.93h-16v36.62a8,8,0,0,0,4,6.93,88,88,0,1,1-88,0,8,8,0,0,0,4-6.93V72.76a40,40,0,0,1,80,0v24h16v-24a56,56,0,0,0-112,0V305.07a104.06,104.06,0,1,0,112,0Z"/><path class="cls-1" d="M280.33,80.76l-32,.1a8,8,0,0,0-8,8V342.18a56,56,0,0,0,12.09,105.35,58.4,58.4,0,0,0,11.82,1.22,56,56,0,0,0,24.09-106.57V88.76A8,8,0,0,0,280.33,80.76Zm15.11,286.88A40,40,0,1,1,251,355.11a8,8,0,0,0,5.38-7.55V96.84l16-.08v250.8a8,8,0,0,0,5.38,7.55A39.93,39.93,0,0,1,295.44,367.64Z"/><rect class="cls-1" x="304.33" y="115.76" width="32" height="16"/><rect class="cls-1" x="304.33" y="156.76" width="32" height="16"/><rect class="cls-1" x="304.33" y="195.76" width="32" height="16"/><rect class="cls-1" x="304.33" y="234.76" width="32" height="16"/><path class="cls-1" d="M170,154.83a6.59,6.59,0,0,0,6-3.31,6.77,6.77,0,0,0,.79-5.26,7.08,7.08,0,0,0-3.31-4.38l-20.14-11.64,16.71-10a6.27,6.27,0,0,0,3.25-3.88,7.28,7.28,0,0,0-.64-5.77,6.56,6.56,0,0,0-4-3.11,7.29,7.29,0,0,0-5.5.77l-23.82,14-36.67-21.34,36.67-21.11L163,93.71a5.75,5.75,0,0,0,3.37,1,7.54,7.54,0,0,0,6.11-3.22l.08-.12a7.46,7.46,0,0,0,.6-5.84,6.17,6.17,0,0,0-3.14-3.75l-16.78-10,20.14-11.64A7.1,7.1,0,0,0,176,50.61a6.66,6.66,0,0,0-4.11-3.26,7.17,7.17,0,0,0-5.53.68L146.1,59.78l-.3-20a7,7,0,0,0-7-7.05,6.86,6.86,0,0,0-4.89,2.07,7.1,7.1,0,0,0-2.08,5l.21,28.11L95.62,89V46.12L119.34,32.6a7.29,7.29,0,0,0,3.4-4.4,6.89,6.89,0,0,0-10.15-7.77L95.62,30V7.08A7.08,7.08,0,0,0,88.54,0a7,7,0,0,0-7,7.08V30.26L63.93,20.42A6.81,6.81,0,0,0,54.54,23,7,7,0,0,0,57.2,32.6L81.57,46.33V88.76L44.24,67.23l.22-27.36A6.3,6.3,0,0,0,42.8,35a7,7,0,0,0-5.21-2.34h-.21a7.16,7.16,0,0,0-7,7.06l-.2,19.38L10.51,47.83a7,7,0,0,0-5.44-.72A6.64,6.64,0,0,0,1,50.37,7,7,0,0,0,3.53,60L23.46,71.51,6.31,81.78a6.22,6.22,0,0,0-3.25,3.94,7.14,7.14,0,0,0,.78,5.73,6.57,6.57,0,0,0,6,3.31,6.73,6.73,0,0,0,3.65-1L37.39,79.59l37.21,21.33L37.38,122.47,13.44,108.3a7.4,7.4,0,0,0-5.72-.76,6.33,6.33,0,0,0-3.91,3.11,7.12,7.12,0,0,0,2.43,9.58l17.22,10.21L3.53,142.09A6.95,6.95,0,0,0,1,151.73a6.53,6.53,0,0,0,6,3.52,9.48,9.48,0,0,0,3.41-.94l19.83-11.39.2,19.38a7,7,0,0,0,7,6.94h.21a6.71,6.71,0,0,0,4.8-2,7.24,7.24,0,0,0,2.08-5.2l-.22-27.43L81.57,113.3v42.2L57.19,169.24a7,7,0,0,0-3.39,4.31,6.88,6.88,0,0,0,.74,5.3,6.48,6.48,0,0,0,6,3.57,6.73,6.73,0,0,0,3.42-.81l17.63-10V195.2a7,7,0,0,0,14,0V172l17,9.58a7.17,7.17,0,0,0,9.52-2.77,6.91,6.91,0,0,0,.65-5.29,7.15,7.15,0,0,0-3.42-4.32L95.62,155.94V113.09l36.44,21.1-.21,27.88a7.17,7.17,0,0,0,2.08,5.14,6.95,6.95,0,0,0,11.87-4.89l.3-20.13L166.35,154A7.19,7.19,0,0,0,170,154.83Z"/></g></g></svg>