<svg xmlns="http://www.w3.org/2000/svg" viewBox="0 0 384.26 480.83"><defs><style>.cls-1{fill:#bf6052;}</style></defs><title>3_2_icon</title><g id="Слой_2" data-name="Слой 2"><g id="Слой_1-2" data-name="Слой 1"><path class="cls-1" d="M280.17,480.83a104,104,0,0,1-56-191.69V56.83a56,56,0,1,1,112,0v24h-16v-24a40,40,0,0,0-80,0v236.8a8,8,0,0,1-4,6.93,88,88,0,1,0,88,0,8,8,0,0,1-4-6.93V257h16v32.14a104,104,0,0,1-56,191.69Zm-.09-48a58.4,58.4,0,0,1-11.82-1.22,56,56,0,0,1-12.09-105.35V72.94a8,8,0,0,1,8-8l32-.1h0a8,8,0,0,1,8,8V326.27a56,56,0,0,1-24.09,106.57ZM272.17,80.91V331.63a8,8,0,0,1-5.38,7.55,40,40,0,1,0,26.75,0,8,8,0,0,1-5.38-7.55V80.83Z"/><path class="cls-1" d="M95.76,143.64a47.88,47.88,0,1,1,47.88-47.88A47.88,47.88,0,0,1,95.76,143.64Zm0-76.61a28.73,28.73,0,1,0,28.73,28.73A28.73,28.73,0,0,0,95.76,67Z"/><rect class="cls-1" x="86.18" width="19.15" height="38.3"/><rect class="cls-1" x="32.02" y="22.43" width="19.15" height="38.3" transform="translate(-17.22 41.6) rotate(-45)"/><rect class="cls-1" y="86.18" width="38.3" height="19.15"/><rect class="cls-1" x="22.45" y="140.34" width="38.3" height="19.15" transform="translate(-93.82 73.33) rotate(-45)"/><rect class="cls-1" x="86.18" y="153.21" width="19.15" height="38.3"/><rect class="cls-1" x="140.35" y="130.74" width="19.15" height="38.3" transform="translate(-62.08 149.94) rotate(-45)"/><rect class="cls-1" x="153.21" y="86.18" width="38.3" height="19.15"/><rect class="cls-1" x="130.77" y="32.01" width="38.3" height="19.15" transform="translate(14.5 118.19) rotate(-45)"/><rect class="cls-1" x="320.17" y="99.83" width="32" height="16"/><rect class="cls-1" x="320.17" y="140.83" width="32" height="16"/><rect class="cls-1" x="320.17" y="179.83" width="32" height="16"/><rect class="cls-1" x="320.17" y="218.83" width="32" height="16"/></g></g></svg>