<svg xmlns="http://www.w3.org/2000/svg" viewBox="0 0 144 144"><defs><style>.cls-1{fill:#385177;opacity:0.75;}.cls-2{fill:#fff;stroke:#fff;stroke-linecap:round;stroke-linejoin:round;stroke-width:0.5px;}</style></defs><title>3_icon</title><g id="Слой_2" data-name="Слой 2"><g id="Слой_1-2" data-name="Слой 1"><circle class="cls-1" cx="72" cy="72" r="72"/><path class="cls-2" d="M83.63,58.37h-7a1.15,1.15,0,0,0-1.15,1.15v7a1.16,1.16,0,0,0,1.15,1.14h7a1.15,1.15,0,0,0,1.15-1.14v-7A1.15,1.15,0,0,0,83.63,58.37Zm-1.15,7H77.75V60.68h4.73Z"/><path class="cls-2" d="M65.05,75.92H58a1.15,1.15,0,0,0-1.15,1.15v7A1.15,1.15,0,0,0,58,85.26h7a1.15,1.15,0,0,0,1.15-1.15v-7A1.15,1.15,0,0,0,65.05,75.92ZM63.9,83H59.17V78.23H63.9Z"/><path class="cls-2" d="M65.05,38H58a1.15,1.15,0,0,0-1.15,1.15v7A1.15,1.15,0,0,0,58,47.35h7a1.15,1.15,0,0,0,1.15-1.15v-7A1.16,1.16,0,0,0,65.05,38Zm-1.15,7H59.17V40.31H63.9Z"/><path class="cls-2" d="M53.49,38.35a1.16,1.16,0,0,0-.81-.33H45.62a1.15,1.15,0,0,0-1.13,1.15v7a1.15,1.15,0,0,0,1.15,1.15h7a1.15,1.15,0,0,0,1.15-1.15v-7A1.15,1.15,0,0,0,53.49,38.35Zm-2,6.7H46.77V40.31H51.5Z"/><path class="cls-2" d="M52.68,63.29v0H45.62a1.15,1.15,0,0,0-1.13,1.15v7a1.15,1.15,0,0,0,1.15,1.15h7a1.15,1.15,0,0,0,1.15-1.15v-7A1.15,1.15,0,0,0,52.68,63.29Zm-1.17,7H46.77V65.56H51.5Z"/><path class="cls-2" d="M53.48,51a1.2,1.2,0,0,0-.82-.33H45.62a1.14,1.14,0,0,0-1.13,1.14v7A1.15,1.15,0,0,0,45.64,60h7a1.15,1.15,0,0,0,1.15-1.15v-7A1.15,1.15,0,0,0,53.48,51Zm-2,6.7H46.77V52.95H51.5Z"/><path class="cls-2" d="M52.68,75.92H45.62a1.16,1.16,0,0,0-1.13,1.15v7a1.15,1.15,0,0,0,1.15,1.15h7a1.15,1.15,0,0,0,1.15-1.15v-7A1.15,1.15,0,0,0,52.68,75.92ZM51.5,83H46.77V78.23H51.5Z"/><path class="cls-2" d="M103.18,100.92l-.22,0V69.36a3.26,3.26,0,0,1-1.08.18,3.35,3.35,0,0,1-1.23-.23v31.52H96.77V76.17A1.15,1.15,0,0,0,95.62,75H77a1.15,1.15,0,0,0-1.15,1.15v24.65H72V52.54H86a1.78,1.78,0,0,1,0-2.3H72V31.36a1.15,1.15,0,0,0-1.15-1.15h-31a1.15,1.15,0,0,0-1.15,1.15V100.9l-.23,0A9.91,9.91,0,0,0,30,110.64a1.15,1.15,0,0,0,1.15,1.15h79.29a1.15,1.15,0,0,0,1.15-1.15A9.92,9.92,0,0,0,103.18,100.92Zm-25-23.53h16.3V99.87H78.16ZM41,32.51H69.67v68.32H41Zm-8.59,77,.06-.32a7.59,7.59,0,0,1,7.37-6.05h62a7.59,7.59,0,0,1,7.37,6.05l.06.32Z"/><path class="cls-2" d="M65.05,50.65H58a1.16,1.16,0,0,0-1.15,1.14v7A1.15,1.15,0,0,0,58,60h7a1.15,1.15,0,0,0,1.15-1.15v-7A1.16,1.16,0,0,0,65.05,50.65Zm-1.15,7H59.17V52.95H63.9Z"/><path class="cls-2" d="M65.05,63.29H58a1.15,1.15,0,0,0-1.15,1.15v7A1.15,1.15,0,0,0,58,72.63h7a1.15,1.15,0,0,0,1.15-1.15v-7A1.15,1.15,0,0,0,65.05,63.29Zm-1.15,7H59.17V65.56H63.9Z"/><path class="cls-2" d="M116.57,57.52,113,55.46l3-1.79a1,1,0,0,0,.36-1.36A1,1,0,0,0,115,52l-4,2.35-6.37-3.7L111,47l4,2.34a.78.78,0,0,0,.47.14,1.09,1.09,0,0,0,.88-.47,1,1,0,0,0-.36-1.36l-3-1.79,3.56-2.06a1,1,0,0,0,.36-1.36,1,1,0,0,0-1.36-.36L112,44.15l-.05-3.58a1,1,0,0,0-1-1,1,1,0,0,0-1,1l0,4.72L103.67,49V41.52l4-2.27a1,1,0,0,0,.39-1.36,1,1,0,0,0-1.34-.36l-3,1.72V35.18a1,1,0,0,0-1-1,1,1,0,0,0-1,1v4.1l-3.15-1.75a1,1,0,0,0-1.32.36,1,1,0,0,0,.38,1.36l4.1,2.31v7.37l-6.47-3.73,0-4.62a1,1,0,0,0-1-1h0a1,1,0,0,0-1,1l0,3.47-3.49-2a1,1,0,0,0-1.34.35,1,1,0,0,0,.36,1.36l3.52,2-3.08,1.84A1,1,0,0,0,88.87,49a.92.92,0,0,0,.84.47,1,1,0,0,0,.52-.14l4-2.38,6.46,3.7-6.46,3.74-4-2.38a1,1,0,0,0-1.36.32,1,1,0,0,0,.34,1.36l3.08,1.82-3.52,2.06a1,1,0,0,0-.36,1.36.91.91,0,0,0,.84.5,1.79,1.79,0,0,0,.5-.15l3.49-2,0,3.47a1,1,0,0,0,1,1h0a1,1,0,0,0,1-1l0-4.61,6.47-3.7v7.33L97.59,62a1,1,0,0,0-.38,1.36.91.91,0,0,0,.84.5,1,1,0,0,0,.48-.11L101.69,62v4.17a1,1,0,0,0,1,1,1,1,0,0,0,1-1v-4.1l3,1.72a1,1,0,0,0,1.34-.39,1,1,0,0,0-.39-1.36l-4-2.24V52.35L110,56l0,4.68a1,1,0,0,0,1,1,1,1,0,0,0,1-1l.05-3.6,3.58,2.09a1,1,0,0,0,.52.11.92.92,0,0,0,.84-.47,1,1,0,0,0-.36-1.36Zm0,0"/></g></g></svg>