<svg xmlns="http://www.w3.org/2000/svg" viewBox="0 0 324.73 342"><defs><style>.cls-1{fill:#af4561;}</style></defs><title>4_1_icon</title><g id="Слой_2" data-name="Слой 2"><g id="Слой_1-2" data-name="Слой 1"><path class="cls-1" d="M261.69,195.49l-22.06-22.06-7.36,7.34,29.43,29.43,63-63-7.34-7.36Zm0,0"/><polygon class="cls-1" points="278 342 0 342 0 0 278 0 278 156.5 269 156.5 269 9 9 9 9 333 269 333 269 234 278 234 278 342"/><polygon class="cls-1" points="257.2 322 18.78 322 18.78 18.17 257.2 18.17 257.2 157.25 248.2 157.25 248.2 27.17 27.78 27.17 27.78 313 248.2 313 248.2 225.86 257.2 225.86 257.2 322"/><rect class="cls-1" x="40.13" y="56.5" width="34.41" height="9" transform="translate(-26.34 58.41) rotate(-45)"/><rect class="cls-1" x="38" y="75.83" width="85.32" height="9" transform="translate(-33.18 80.57) rotate(-45)"/></g></g></svg>