<svg xmlns="http://www.w3.org/2000/svg" viewBox="0 0 310.34 306.5"><defs><style>.cls-1{fill:#af4561;}</style></defs><title>4_3_icon</title><g id="Слой_2" data-name="Слой 2"><g id="Слой_1-2" data-name="Слой 1"><path class="cls-1" d="M309.34,60.06a9.88,9.88,0,0,0-4.11-13L241.35,13.63a9.89,9.89,0,0,0-12.93,4.08l-25.75,48.6,1.22-55.58A9.87,9.87,0,0,0,194.44.86L122.38,0a9.94,9.94,0,0,0-9.55,9.46L111.72,77,80.5,22.22a9.89,9.89,0,0,0-13.09-3.58L4.74,54.3A9.9,9.9,0,0,0,1.16,67.4L134.47,301.64a9.57,9.57,0,0,0,12.91,3.69l.15-.09,62.71-35.62a9.59,9.59,0,0,0,3.37-13l-3.72-6.41.38-.73ZM236.15,20.14l66.46,34.38L288.79,81.19,222.64,46.45ZM218.89,53.93,285,88.57l-14.86,28-65.8-34.5ZM202.56,90.67l63.74,33.47-14.73,28-49.58-26Zm-.8,45.15,45.9,24.06L233,187.6,201.2,171.28ZM201,180.39l28.06,14.71-14.68,28-13.95-7.28Zm-80.27-172,74.76.89L195,38.9,120.3,37.66Zm-.52,37.73,74.66,1.24-.57,31.5-74.53-1.24ZM119.7,86l74.5,1.25-.5,31.5-58.79-1L119.7,91ZM181,199.17l-18.2-32,30.12.53-.5,31.47Zm11.21,8.4v11l-6.31-11Zm-34.24-49.05-18.21-31.88,53.84.93-.5,31.5ZM7.43,62.36,72.27,25.07,87,50.82l-65.08,37ZM26.12,95.13l65-37,15.69,27.28-65,37.24ZM46,129.9l65-37,15.74,27.51-65,37.06Zm19.89,34.83,65-37,15.74,27.51L81.53,192.31Zm19.9,34.83,65-36.93,15.74,27.51-65,37Zm56.43,98.94-36.6-64,65-37,36.54,64.12Zm62.76-57.1-4.76-8.51v-7.72l10.23,5.38Z"/><path class="cls-1" d="M170.85,241.17a16.08,16.08,0,0,0-13.93-8.08h-.09a16,16,0,0,0,.12,32h.12a16,16,0,0,0,13.78-23.92Zm-10.27,14.58L158.34,257v-.5a7.56,7.56,0,1,1-1.51-15h0a7.59,7.59,0,0,1,3.74,14.2Z"/></g></g></svg>