<?xml version="1.0" encoding="utf-8"?>
<!-- Generator: Adobe Illustrator 21.0.0, SVG Export Plug-In . SVG Version: 6.00 Build 0)  -->
<svg version="1.1" id="Слой_1" xmlns="http://www.w3.org/2000/svg" xmlns:xlink="http://www.w3.org/1999/xlink" x="0px" y="0px"
	 viewBox="0 0 38.4 38.4" style="enable-background:new 0 0 38.4 38.4;" xml:space="preserve">
<style type="text/css">
	.st0{fill:#333333;}
</style>
<title>close_icon</title>
<g id="Слой_2">
	<g id="Режим_изоляции">
		<path class="st0" d="M22.6,19.2L37.7,4.1c0.9-0.9,0.9-2.5,0-3.4s-2.5-0.9-3.4,0c0,0,0,0,0,0L19.2,15.8L4.1,0.7
			c-0.9-0.9-2.5-0.9-3.4,0s-0.9,2.5,0,3.4l15.1,15.1L0.7,34.3c-0.9,0.9-0.9,2.5,0,3.4s2.5,0.9,3.4,0l0,0l15.1-15.1l15.1,15.1
			c0.9,1,2.4,1.1,3.4,0.2c1-0.9,1.1-2.4,0.2-3.4c-0.1-0.1-0.1-0.1-0.2-0.2L22.6,19.2z"/>
	</g>
</g>
</svg>
