<svg xmlns="http://www.w3.org/2000/svg" viewBox="0 0 512 277.69"><defs><style>.cls-1{fill:#2b4450;}</style></defs><title>22</title><g id="Слой_2" data-name="Слой 2"><g id="Layer_1" data-name="Layer 1"><path class="cls-1" d="M182.24,156.2C79.84,156.2,0,121.49,0,78.1S79.84,0,182.24,0,364.47,34.71,364.47,78.1,284.64,156.2,182.24,156.2Zm0-138.85C85,17.36,17.36,49.46,17.36,78.1S85,138.85,182.24,138.85,347.12,106.74,347.12,78.1,279.43,17.36,182.24,17.36Z"/><path class="cls-1" d="M182.24,277.69C79.84,277.69,0,243,0,199.59V78.1H17.36c0,28.64,67.69,60.75,164.88,60.75S347.12,106.74,347.12,78.1h17.36V199.59C364.47,243,284.64,277.69,182.24,277.69ZM17.36,111.95v87.65c0,28.64,67.69,60.75,164.88,60.75s164.88-32.11,164.88-60.75V111.95C318.48,138,256,156.2,182.24,156.2S46,138,17.36,111.95Z"/><path class="cls-1" d="M499,260.34H442.58c-53.8,0-95.46-26.9-95.46-60.75h17.36c0,23.43,35.58,43.39,78.1,43.39h52.07V147.53H442.58c-53.8,0-95.46-26.9-95.46-60.75h17.36c0,23.43,35.58,43.39,78.1,43.39H499a13.35,13.35,0,0,1,13,13v105C512,254.26,505.93,260.34,499,260.34Z"/><path class="cls-1" d="M182.24,112.81c-34.71,0-69.42-12.15-69.42-34.71s34.71-34.71,69.42-34.71,69.42,12.15,69.42,34.71S216.95,112.81,182.24,112.81Zm0-52.07c-32.11,0-52.07,11.28-52.07,17.36s20,17.36,52.07,17.36,52.07-11.28,52.07-17.36S214.35,60.75,182.24,60.75Z"/><path class="cls-1" d="M52.07,173.56c-5.21,0-8.68-3.47-8.68-8.68V130.17c0-5.21,3.47-8.68,8.68-8.68s8.68,3.47,8.68,8.68v34.71C60.75,170.09,57.27,173.56,52.07,173.56Z"/><path class="cls-1" d="M95.46,173.56c-5.21,0-8.68-3.47-8.68-8.68v-26c0-5.21,3.47-8.68,8.68-8.68s8.68,3.47,8.68,8.68v26C104.14,170.09,100.66,173.56,95.46,173.56Z"/><path class="cls-1" d="M138.85,190.92c-5.21,0-8.68-3.47-8.68-8.68V147.53c0-5.21,3.47-8.68,8.68-8.68s8.68,3.47,8.68,8.68v34.71C147.53,187.44,144.05,190.92,138.85,190.92Z"/><path class="cls-1" d="M182.24,182.24c-5.21,0-8.68-3.47-8.68-8.68v-26c0-5.21,3.47-8.68,8.68-8.68s8.68,3.47,8.68,8.68v26C190.92,178.77,187.44,182.24,182.24,182.24Z"/><path class="cls-1" d="M182.24,277.69c-5.21,0-8.68-3.47-8.68-8.68V243c0-5.21,3.47-8.68,8.68-8.68s8.68,3.47,8.68,8.68v26C190.92,274.22,187.44,277.69,182.24,277.69Z"/><path class="cls-1" d="M225.63,269c-5.21,0-8.68-3.47-8.68-8.68v-26c0-5.21,3.47-8.68,8.68-8.68s8.68,3.47,8.68,8.68v26C234.31,265.55,230.83,269,225.63,269Z"/><path class="cls-1" d="M269,260.34c-5.21,0-8.68-3.47-8.68-8.68v-26c0-5.21,3.47-8.68,8.68-8.68s8.68,3.47,8.68,8.68v26C277.69,256.87,274.22,260.34,269,260.34Z"/><path class="cls-1" d="M312.41,251.66c-5.21,0-8.68-3.47-8.68-8.68v-26c0-5.21,3.47-8.68,8.68-8.68s8.68,3.47,8.68,8.68v26C321.08,248.19,317.61,251.66,312.41,251.66Z"/><path class="cls-1" d="M225.63,190.92c-5.21,0-8.68-3.47-8.68-8.68V147.53c0-5.21,3.47-8.68,8.68-8.68s8.68,3.47,8.68,8.68v34.71C234.31,187.44,230.83,190.92,225.63,190.92Z"/><path class="cls-1" d="M269,173.56c-5.21,0-8.68-3.47-8.68-8.68v-26c0-5.21,3.47-8.68,8.68-8.68s8.68,3.47,8.68,8.68v26C277.69,170.09,274.22,173.56,269,173.56Z"/><path class="cls-1" d="M390.51,173.56c-5.21,0-8.68-3.47-8.68-8.68V130.17c0-5.21,3.47-8.68,8.68-8.68s8.68,3.47,8.68,8.68v34.71C399.19,170.09,395.72,173.56,390.51,173.56Z"/><path class="cls-1" d="M407.86,251.66c-5.21,0-8.68-3.47-8.68-8.68V208.27c0-5.21,3.47-8.68,8.68-8.68s8.68,3.47,8.68,8.68V243C416.54,248.19,413.07,251.66,407.86,251.66Z"/><path class="cls-1" d="M425.22,173.56c-5.21,0-8.68-3.47-8.68-8.68v-26c0-5.21,3.47-8.68,8.68-8.68s8.68,3.47,8.68,8.68v26C433.9,170.09,430.43,173.56,425.22,173.56Z"/><path class="cls-1" d="M312.41,173.56c-5.21,0-8.68-3.47-8.68-8.68V130.17c0-5.21,3.47-8.68,8.68-8.68s8.68,3.47,8.68,8.68v34.71C321.08,170.09,317.61,173.56,312.41,173.56Z"/><path class="cls-1" d="M138.85,269c-5.21,0-8.68-3.47-8.68-8.68v-26c0-5.21,3.47-8.68,8.68-8.68s8.68,3.47,8.68,8.68v26C147.53,265.55,144.05,269,138.85,269Z"/><path class="cls-1" d="M95.46,260.34c-5.21,0-8.68-3.47-8.68-8.68v-26c0-5.21,3.47-8.68,8.68-8.68s8.68,3.47,8.68,8.68v26C104.14,256.87,100.66,260.34,95.46,260.34Z"/><path class="cls-1" d="M52.07,251.66c-5.21,0-8.68-3.47-8.68-8.68v-26c0-5.21,3.47-8.68,8.68-8.68s8.68,3.47,8.68,8.68v26C60.75,248.19,57.27,251.66,52.07,251.66Z"/><path class="cls-1" d="M497.25,260.34h-46V130.17h46A15.21,15.21,0,0,1,512,144.92V245.59A15.21,15.21,0,0,1,497.25,260.34ZM468.61,243h26V147.53h-26Z"/></g></g></svg>