<svg xmlns="http://www.w3.org/2000/svg" viewBox="0 0 399.32 399.28"><defs><style>.cls-1{fill:#2b4450;stroke:#2b4450;stroke-miterlimit:10;stroke-width:2px;}</style></defs><title>11</title><g id="Слой_2" data-name="Слой 2"><g id="Слой_1-2" data-name="Слой 1"><path class="cls-1" d="M172.78,133.49a32.21,32.21,0,0,0-6.59-12.78,30.5,30.5,0,0,0-10.57-7.94A39.56,39.56,0,0,0,141,110.13c-7.41,0-14.19,1.72-19.09,4.85-4.68,3-8.2,7.68-10.44,14l-.05.11c-2.45,5.72-3.59,13.37-3.59,24.07,0,9.27,1.42,16.44,4.48,22.55l0,.11C115,182,118.8,186.26,124,188.88a38.49,38.49,0,0,0,17.4,4.47c10.31,0,18.42-3.32,24.8-10.14,6-6.38,8.84-16.52,8.84-31A75.1,75.1,0,0,0,172.78,133.49Zm-18.22,41,0,.06c-2.17,5.42-6.7,8.29-13.11,8.29-4.41,0-7.69-1.23-10.32-3.87a16.48,16.48,0,0,1-4.79-10.47,80.91,80.91,0,0,1-1.43-16.74,77.16,77.16,0,0,1,1.45-16.37c1.07-4.79,2.67-8.27,4.77-10.36,2.63-2.64,5.91-3.87,10.32-3.87,6,0,10.93,2.9,13.08,7.75,2.38,4.75,3.46,11.68,3.46,22.38C157.44,162.3,156.39,169.43,154.56,174.47Z"/><path class="cls-1" d="M253.5,110.49c-.9-.9-2.19-1.3-4.21-1.3s-3.33.4-4.21,1.29a21.2,21.2,0,0,0-3.86,5.58l-.08.16L145.95,270.49c-.56.92-2.05,3.42-2.05,4.58,0,1.56.49,2.42,2,3.56a5.86,5.86,0,0,0,4,1.48c2.82,0,4.94-2.76,6.22-5.07L250.92,122l.07-.08c3.54-4.55,4.26-7.22,4.26-7.68A4.73,4.73,0,0,0,253.5,110.49Z"/><path class="cls-1" d="M289.57,216.08c-1.87-5.58-4.1-9.9-6.63-12.86a24.37,24.37,0,0,0-10.37-7.38l-.18-.07a36.28,36.28,0,0,0-14.67-2.63c-11.63,0-19.85,3.42-25.12,10.45s-8.05,17.91-8.05,32.09c0,9.28,1.43,16.44,4.49,22.56a35.26,35.26,0,0,0,11.85,13.22,38.45,38.45,0,0,0,17.3,4.43c10.31,0,18.42-3.32,24.8-10.15,5.95-6.37,8.84-16.51,8.84-31A75.54,75.54,0,0,0,289.57,216.08ZM270.8,256.67c-2.17,5.37-6.69,8.21-13.08,8.21s-10.89-2.84-13.08-8.21c-2.35-4.77-3.45-12.19-3.45-23.33a72.52,72.52,0,0,1,1.47-16.43c1-4.51,2.61-7.71,5.21-10.31s5.92-3.87,10.32-3.87c6,0,10.93,2.9,13.08,7.76,2.38,4.75,3.46,11.67,3.46,22.38C274.2,245.23,273.06,252.11,270.8,256.67Z"/><path class="cls-1" d="M375,199.57l21.43-35.06.23-.2a4.6,4.6,0,0,0,1.69-3.85,5,5,0,0,0-2.37-3.74l-.12-.08-32.87-24.17,6.28-40.59c.32-2.85-1.17-6.37-4.55-7.12l-40.14-9.67-9.67-39.64a6.05,6.05,0,0,0-2.62-3.78,5.65,5.65,0,0,0-4.38-.84l-.13,0-40.59,6.28L243,4.34C241,2,237.37.58,234.4,2.44L199.56,23.25,164.77,2a6.32,6.32,0,0,0-8.61,1.84L132,36.67,91.42,30.39c-2.85-.32-6.37,1.16-7.13,4.55L74.62,75.09,35,84.75a6,6,0,0,0-4.61,7l0,.13,6.28,40.59L3.81,156.64A6.66,6.66,0,0,0,2,165.22L23.26,200,2,234.85a6.33,6.33,0,0,0,1.84,8.61l32.86,24.16-6.75,40.55c-.3,2.92,1.18,6.41,4.54,7.16L74.15,325l9.66,39.64a6.11,6.11,0,0,0,2.62,3.78,5.68,5.68,0,0,0,4.39.83l.13,0L131.54,363l24.27,33c1,1.7,3.25,2.31,4.85,2.31a5.55,5.55,0,0,0,3.1-1.07l34.88-21.31,34.81,21.26a6.32,6.32,0,0,0,8.61-1.83l24.15-32.85,40.59,6.28c2.85.31,6.37-1.16,7.12-4.55l9.68-39.67,39.63-9.68a6,6,0,0,0,3.79-2.61,5.69,5.69,0,0,0,.83-4.38l0-.13-6.28-40.6L394.35,243c2.35-2.06,3.75-5.66,1.89-8.63Zm-22.7,60.68a6.91,6.91,0,0,0-2.53,6.06l5.91,38.4-37.88,9.35a6.09,6.09,0,0,0-4.61,4.49l0,.14-9.34,37.89-38.39-5.9a6.52,6.52,0,0,0-6.11,2.55l-23.06,31.42-33.45-20.17c-2.3-1.53-4.15-1.49-6.3,0l-33.54,20.22-23.12-31.49a6.87,6.87,0,0,0-6-2.49l-38.41,5.91L86,318.7a6.06,6.06,0,0,0-4.49-4.61l-.15,0-37.88-9.35,5.91-38.38a6.53,6.53,0,0,0-2.56-6.11L15.44,237.15l20.13-33.38a7.86,7.86,0,0,0,0-7L15.44,163.4l31.49-23.12a6.89,6.89,0,0,0,2.49-6l-5.91-38.4,37.88-9.36A6.07,6.07,0,0,0,86,82l0-.15L95.38,44l38.38,5.9a6.56,6.56,0,0,0,6.11-2.55l23.06-31.42L196.32,36a7.92,7.92,0,0,0,7,0l33.39-20.13L259.8,47.39a6.93,6.93,0,0,0,6,2.5L304.25,44l9.34,37.88a6.07,6.07,0,0,0,4.49,4.6l.15,0,37.88,9.36-5.9,38.38a6.53,6.53,0,0,0,2.55,6.11l31.43,23.07L363.58,196.8a7.87,7.87,0,0,0,0,7l20.12,33.38Z"/></g></g></svg>