<svg xmlns="http://www.w3.org/2000/svg" viewBox="0 0 277.33 301.85"><defs><style>.cls-1{fill:#ff8042;stroke:#fff;stroke-miterlimit:10;stroke-width:5px;}</style></defs><title>1_1_icon</title><g id="Слой_2" data-name="Слой 2"><g id="Слой_1-2" data-name="Слой 1"><path class="cls-1" d="M239,122.29,138.5,122,176.58,12.85a8.11,8.11,0,0,0-2.24-8.64,7.55,7.55,0,0,0-10.56,1C149.06,23.09,134.34,41,119.94,58.93L31.62,167.41a7.86,7.86,0,0,0-1.6,4.8,7.24,7.24,0,0,0,7.36,7.36l100.48.32L99.78,289a8.1,8.1,0,0,0,2.24,8.64,7.55,7.55,0,0,0,10.56-1c15.36-18.88,30.08-36.48,44.8-54.08,29.76-35.84,59.52-71.68,87.68-108.16a7.63,7.63,0,0,0,1.6-4.48,7.79,7.79,0,0,0-7.68-7.68Zm-93.12,110.4c-5.76,7-11.84,14.08-17.6,21.12l27.52-78.72a7.51,7.51,0,0,0-4.8-9.6,8.84,8.84,0,0,0-2.88-.32l-94.72-.32c26.24-32,52.16-64,78.4-96l16.64-20.48-27.52,78.4a7.52,7.52,0,0,0,4.8,9.6,8.87,8.87,0,0,0,2.88.32l95.36.32c-25.28,32.32-51.52,64-78.08,95.68Zm0,0"/><path class="cls-1" d="M116.74,22.45a7.54,7.54,0,0,0-9-5.76A133.48,133.48,0,0,0,31.94,64.37,135.93,135.93,0,0,0,73.86,268.53a7.59,7.59,0,1,0,7-13.44A120.6,120.6,0,0,1,17.54,148.85,121,121,0,0,1,111,31.41a7.55,7.55,0,0,0,5.76-9Zm0,0"/><path class="cls-1" d="M256.26,79.73a135.53,135.53,0,0,0-51.52-49.92,7.52,7.52,0,0,0-7.36,13.12,121.43,121.43,0,0,1,45.76,44.16,120.7,120.7,0,0,1-78.08,179.2,7.53,7.53,0,0,0,3.2,14.72,136.47,136.47,0,0,0,106.56-132.8,131,131,0,0,0-18.56-68.48Zm0,0"/></g></g></svg>