<svg xmlns="http://www.w3.org/2000/svg" viewBox="0 0 413.04 415.32"><defs><style>.cls-1{fill:none;stroke:#f07e47;stroke-linecap:round;stroke-linejoin:round;stroke-width:9px;}</style></defs><title>1_2_icon</title><g id="Слой_2" data-name="Слой 2"><g id="Слой_1-2" data-name="Слой 1"><line class="cls-1" x1="408.54" y1="305.45" x2="408.54" y2="4.54"/><line class="cls-1" x1="319.85" y1="305.45" x2="319.85" y2="93.22"/><line class="cls-1" x1="181.87" y1="305.45" x2="181.87" y2="4.54"/><line class="cls-1" x1="109.87" y1="307.45" x2="109.87" y2="76.54"/><rect class="cls-1" x="4.5" y="109.91" width="72" height="300.91"/><line class="cls-1" x1="4.5" y1="109.91" x2="109.87" y2="4.54"/><line class="cls-1" x1="76.5" y1="109.91" x2="181.87" y2="4.54"/><line class="cls-1" x1="76.5" y1="410.82" x2="181.87" y2="305.45"/><line class="cls-1" x1="76.5" y1="338.82" x2="109.87" y2="305.45"/><line class="cls-1" x1="109.87" y1="4.54" x2="181.87" y2="4.54"/><path class="cls-1" d="M181.87,305.45"/><path class="cls-1" d="M181.87,4.54"/><line class="cls-1" x1="181.87" y1="305.45" x2="109.87" y2="305.45"/><path class="cls-1" d="M109.87,4.54"/><path class="cls-1" d="M109.87,305.45"/><rect class="cls-1" x="208.5" y="109.91" width="94.67" height="300.91"/><line class="cls-1" x1="208.5" y1="109.91" x2="319.85" y2="4.54"/><line class="cls-1" x1="303.17" y1="109.91" x2="408.54" y2="4.54"/><line class="cls-1" x1="303.17" y1="410.82" x2="408.54" y2="305.45"/><line class="cls-1" x1="303.17" y1="321.6" x2="319.32" y2="305.45"/><path class="cls-1" d="M385.87,305.45"/><line class="cls-1" x1="408.54" y1="305.45" x2="319.85" y2="305.45"/><path class="cls-1" d="M336.54,305.45"/><line class="cls-1" x1="408.21" y1="4.5" x2="319.85" y2="4.5"/></g></g></svg>