<?xml version="1.0" encoding="utf-8"?>
<!-- Generator: Adobe Illustrator 21.0.0, SVG Export Plug-In . SVG Version: 6.00 Build 0)  -->
<svg version="1.1" id="Слой_1" xmlns="http://www.w3.org/2000/svg" xmlns:xlink="http://www.w3.org/1999/xlink" x="0px" y="0px"
	 viewBox="0 0 199 291.8" style="enable-background:new 0 0 199 291.8;" xml:space="preserve">
<style type="text/css">
	.st0{fill:#FCC14B;}
</style>
<title>3_1_icon</title>
<g id="Слой_2">
	<g id="Слой_1-2">
		<path class="st0" d="M107.5,206.2l-1.2-0.7V183c0-3.7-3-6.8-6.8-6.8c-3.7,0-6.8,3-6.8,6.8v22.5l-1.2,0.7c-5,2.8-8,8.1-8,13.8
			c0,8.9,7.2,16,16,16s16-7.2,16-16C115.6,214.3,112.5,209,107.5,206.2z M107.5,206.2l-1.2-0.7V183c0-3.7-3-6.8-6.8-6.8
			c-3.7,0-6.8,3-6.8,6.8v22.5l-1.2,0.7c-5,2.8-8,8.1-8,13.8c0,8.9,7.2,16,16,16s16-7.2,16-16C115.6,214.3,112.5,209,107.5,206.2z
			 M107.5,206.2l-1.2-0.7V183c0-3.7-3-6.8-6.8-6.8c-3.7,0-6.8,3-6.8,6.8v22.5l-1.2,0.7c-5,2.8-8,8.1-8,13.8c0,8.9,7.2,16,16,16
			s16-7.2,16-16C115.6,214.3,112.5,209,107.5,206.2z M107.5,206.2l-1.2-0.7V183c0-3.7-3-6.8-6.8-6.8c-3.7,0-6.8,3-6.8,6.8v22.5
			l-1.2,0.7c-5,2.8-8,8.1-8,13.8c0,8.9,7.2,16,16,16s16-7.2,16-16C115.6,214.3,112.5,209,107.5,206.2z M107.5,206.2l-1.2-0.7V183
			c0-3.7-3-6.8-6.8-6.8c-3.7,0-6.8,3-6.8,6.8v22.5l-1.2,0.7c-5,2.8-8,8.1-8,13.8c0,8.9,7.2,16,16,16s16-7.2,16-16
			C115.6,214.3,112.5,209,107.5,206.2z M107.5,206.2l-1.2-0.7V183c0-3.7-3-6.8-6.8-6.8c-3.7,0-6.8,3-6.8,6.8v22.5l-1.2,0.7
			c-5,2.8-8,8.1-8,13.8c0,8.9,7.2,16,16,16s16-7.2,16-16C115.6,214.3,112.5,209,107.5,206.2z M173.7,129.8h-2.5V71.7
			C171.2,32.1,139.1,0,99.5,0C59.9,0,27.8,32.1,27.8,71.7v58.2h-2.5c-14,0-25.3,11.4-25.3,25.4v111.2c0,14,11.3,25.3,25.3,25.4
			h148.4c14,0,25.3-11.4,25.3-25.4V155.2C199,141.2,187.7,129.8,173.7,129.8z M41.4,71.7c0-32.1,26-58.2,58.2-58.2
			s58.2,26,58.2,58.2v58.2H41.4V71.7z M185.4,266.4c0,6.5-5.3,11.8-11.8,11.8H25.3c-6.5,0-11.7-5.3-11.7-11.8V155.2
			c0-6.5,5.2-11.8,11.7-11.8h148.4c6.5,0,11.8,5.3,11.8,11.8V266.4z M107.5,206.2l-1.2-0.7V183c0-3.7-3-6.8-6.8-6.8
			c-3.7,0-6.8,3-6.8,6.8v22.5l-1.2,0.7c-5,2.8-8,8.1-8,13.8c0,8.9,7.2,16,16,16s16-7.2,16-16C115.6,214.3,112.5,209,107.5,206.2
			L107.5,206.2z M107.5,206.2l-1.2-0.7V183c0-3.7-3-6.8-6.8-6.8c-3.7,0-6.8,3-6.8,6.8v22.5l-1.2,0.7c-5,2.8-8,8.1-8,13.8
			c0,8.9,7.2,16,16,16s16-7.2,16-16C115.6,214.3,112.5,209,107.5,206.2L107.5,206.2z M107.5,206.2l-1.2-0.7V183c0-3.7-3-6.8-6.8-6.8
			c-3.7,0-6.8,3-6.8,6.8v22.5l-1.2,0.7c-5,2.8-8,8.1-8,13.8c0,8.9,7.2,16,16,16s16-7.2,16-16C115.6,214.3,112.5,209,107.5,206.2
			L107.5,206.2z M107.5,206.2l-1.2-0.7V183c0-3.7-3-6.8-6.8-6.8c-3.7,0-6.8,3-6.8,6.8v22.5l-1.2,0.7c-5,2.8-8,8.1-8,13.8
			c0,8.9,7.2,16,16,16s16-7.2,16-16C115.6,214.3,112.5,209,107.5,206.2L107.5,206.2z M107.5,206.2l-1.2-0.7V183c0-3.7-3-6.8-6.8-6.8
			c-3.7,0-6.8,3-6.8,6.8v22.5l-1.2,0.7c-5,2.8-8,8.1-8,13.8c0,8.9,7.2,16,16,16s16-7.2,16-16C115.6,214.3,112.5,209,107.5,206.2
			L107.5,206.2z"/>
	</g>
</g>
</svg>
