<?xml version="1.0" encoding="utf-8"?>
<!-- Generator: Adobe Illustrator 21.0.0, SVG Export Plug-In . SVG Version: 6.00 Build 0)  -->
<svg version="1.1" id="Слой_1" xmlns="http://www.w3.org/2000/svg" xmlns:xlink="http://www.w3.org/1999/xlink" x="0px" y="0px"
	 viewBox="0 0 274.6 290.8" style="enable-background:new 0 0 274.6 290.8;" xml:space="preserve">
<style type="text/css">
	.st0{fill:#FCC14B;}
</style>
<title>3_2_icon</title>
<g id="Слой_2">
	<g id="Слой_1-2">
		<path class="st0" d="M223.6,52.1c-2.1,0-20.6,0.1-34.1,13.2c-8.9,8.7-13.4,20.7-13.4,35.8c-0.2,4.3,3.2,7.9,7.5,8.1
			c4.3,0.2,7.9-3.2,8.1-7.5c0-0.2,0-0.4,0-0.6c0-10.6,2.9-18.9,8.5-24.5c8.6-8.5,21.4-8.9,22.9-8.9h0.3c19.7,0,35.6,15.9,35.6,35.6
			s-15.9,35.6-35.6,35.6c0,0,0,0,0,0H7.8c-4.3,0-7.8,3.5-7.8,7.8c0,4.3,3.5,7.8,7.8,7.8h215.6c28.3,0,51.2-22.9,51.3-51.1
			S251.8,52.2,223.6,52.1z"/>
		<path class="st0" d="M110.7,0c-2.1,0-20.7,0.1-34.1,13.2C67.7,21.9,63.2,33.9,63.2,49c0.2,4.3,3.8,7.7,8.1,7.5
			c4.1-0.1,7.4-3.4,7.5-7.5c0-10.6,2.9-18.9,8.5-24.5c8.6-8.6,21.5-8.9,22.9-8.9h0.3c19.7-0.3,35.9,15.3,36.2,35
			c0.3,19.7-15.3,35.9-35,36.2c-0.4,0-0.8,0-1.2,0H7.8c-4.3,0-7.8,3.5-7.8,7.8s3.5,7.8,7.8,7.8h102.8c28.3-0.6,50.7-24.1,50-52.4
			C160,22.7,138,0.7,110.7,0z"/>
		<path class="st0" d="M223.4,188.5H7.8c-4.3,0-7.8,3.5-7.8,7.8c0,4.3,3.5,7.8,7.8,7.8h215.6c19.7,0,35.6,15.9,35.6,35.6
			c0,19.7-15.9,35.6-35.6,35.6l0,0h-0.3c-1.4,0-14.3-0.4-22.9-8.9c-5.6-5.6-8.5-13.8-8.5-24.5c-0.2-4.3-3.8-7.7-8.1-7.5
			c-4.1,0.1-7.4,3.4-7.5,7.5c0,15.1,4.5,27.2,13.4,35.8c12.9,12.6,30.3,13.2,33.6,13.2h0.3c28.3,0,51.2-22.9,51.2-51.2
			S251.7,188.5,223.4,188.5L223.4,188.5L223.4,188.5z"/>
	</g>
</g>
</svg>
