<?xml version="1.0" encoding="utf-8"?>
<!-- Generator: Adobe Illustrator 21.0.0, SVG Export Plug-In . SVG Version: 6.00 Build 0)  -->
<svg version="1.1" id="Слой_1" xmlns="http://www.w3.org/2000/svg" xmlns:xlink="http://www.w3.org/1999/xlink" x="0px" y="0px"
	 viewBox="0 0 267.4 275.3" style="enable-background:new 0 0 267.4 275.3;" xml:space="preserve">
<style type="text/css">
	.st0{fill:#F07E48;}
</style>
<title>4_1_icon</title>
<g id="Слой_2">
	<g id="Слой_1-2">
		<path class="st0" d="M259.4,188.9l-0.5-1.3l0.9-1.1c5.4-6.9,7.9-14.1,7.6-21.6c-0.4-6.8-2.9-13.4-7.1-18.8l-0.9-1.1l0.5-1.3
			c2.4-6,6.5-21.1-6.8-33.3c-8.8-8.1-24.1-11.6-45.3-10.6c-9.6,0.5-19.1,1.7-28.4,3.6l-0.4,0.1c-2.6,0.5-5.5,1.1-8.9,1.8l-2.9,0.6
			l-0.2-2.9c-0.3-4.8,0.8-14.7,7.4-35c7.9-24.2,7.6-42.6-1.2-54.6C164.4,1,149.9,0,145.7,0c-3.6,0-7.1,1.5-9.4,4.3
			c-6.2,7.2-4.9,21.7-4.3,26l0.1,0.6l-0.2,0.6c-1.1,2.8-26.1,69.6-48.6,86.8l-0.1,0.1c-0.2,0.1-0.4,0.3-0.5,0.5
			c-4.6,4.9-8.3,10.5-11,16.5l-1.1,2.4l-2.4-1.3c-3.2-1.7-6.8-2.6-10.4-2.6H21.9C9.8,134,0,143.8,0,155.9v95.2
			C0,263.2,9.8,273,21.9,273c0,0,0,0,0,0h35.8c4.5,0,8.9-1.4,12.6-4l0.8-0.6l14.7,1.8c0.4,0.1,38.5,5,77.8,4.3h0.2
			c7.2,0.5,13.6,0.8,19.4,0.8c9,0.1,17.9-0.7,26.7-2.4c17.2-3.6,28.9-10.9,34.7-21.4c3.5-6.4,4.8-13.7,3.7-20.9l-0.2-1.3l1-0.9
			c11-9.9,12.9-21,12.5-28.4C261.5,196.2,260.7,192.4,259.4,188.9z M68.7,251c0,6.1-5,11.1-11.1,11.1H24.4l-2.5,0.1
			c-6.1,0-11-5-11.1-11.1v-95.3c0-6.1,4.9-11,11.1-11.1h35.8c6.1,0,11.1,5,11.1,11.1V251z M248.6,182.9c-1.7,1.7-2,4.4-0.7,6.5
			l0.4,0.6v0.1c1.6,3.2,2.5,6.7,2.7,10.3c0.4,8.5-3.6,16.1-12,22.4c-1.9,1.4-2.7,3.9-1.9,6.2l0.1,0.5c1.5,5.6,0.8,11.6-1.9,16.7
			c-4.3,7.7-13.6,13.1-27.6,16.1c-8,1.6-16.2,2.3-24.3,2.2c-5.8,0-12.2-0.3-19-0.8h-0.7c-36.7,0.8-73.6-3.8-76.4-4.2h-0.2l-8.7-1
			l0.6-2.7c0.3-1.5,0.5-3.1,0.5-4.6v-95.4c0-2.2-0.3-4.4-1-6.5l-0.2-0.7l0.2-0.7c2.1-7.9,6.1-15.1,11.5-21.2l0.3-0.3
			c25.5-20.2,51.3-90.2,52.4-93.2c0.3-0.8,0.4-1.8,0.2-2.6c-1-6.5-0.9-15.4,1.1-18.7l0.7-1.3h1.5c3.7,0.1,12.8,1.1,18.5,8.9
			c6.5,9,6.4,24.5-0.4,44.8c-9.4,28.3-10.4,43.7-3.6,49.8c2.8,2.4,6.8,3.1,10.3,1.8l0.3-0.1c3.9-0.9,7.3-1.6,10.3-2.1l0.3-0.1
			l0.3-0.1c19.1-4.2,51.8-6.4,63.7,4.4c10.9,10,3.3,23.1,2.4,24.6c-1.5,2.2-1.1,5.2,0.9,7c0.8,0.7,7,6.9,7.3,15.4
			C256.8,171.2,254.1,177.1,248.6,182.9z"/>
	</g>
</g>
</svg>
