<?xml version="1.0" encoding="utf-8"?>
<!-- Generator: Adobe Illustrator 21.0.0, SVG Export Plug-In . SVG Version: 6.00 Build 0)  -->
<svg version="1.1" id="Слой_1" xmlns="http://www.w3.org/2000/svg" xmlns:xlink="http://www.w3.org/1999/xlink" x="0px" y="0px"
	 viewBox="0 0 318.4 318.4" style="enable-background:new 0 0 318.4 318.4;" xml:space="preserve">
<style type="text/css">
	.st0{fill:#F07E48;}
</style>
<title>4_2_icon</title>
<g id="Слой_2">
	<g id="Слой_1-2">
		<path class="st0" d="M159.2,71.3c-49.2,0-89,39.8-89,89s39.8,89,89,89s89-39.8,89-89C248.1,111.1,208.3,71.3,159.2,71.3z
			 M159.2,235.3c-41.4,0-75-33.6-75-75s33.6-75,75-75s75,33.6,75,75l0,0C234.2,201.7,200.6,235.2,159.2,235.3L159.2,235.3z"/>
		<path class="st0" d="M159.2,0c-3.8,0-6.9,3.1-6.9,6.9V49c0,3.8,3.1,6.9,6.9,6.9c3.8,0,6.9-3.1,6.9-6.9V6.9
			C166.1,3.1,163,0,159.2,0z"/>
		<path class="st0" d="M159.2,262.6c-3.8,0-6.9,3.1-6.9,6.9v42c0,3.8,3.1,6.9,6.9,6.9c3.8,0,6.9-3.1,6.9-6.9c0,0,0,0,0,0v-42
			C166.1,265.7,163,262.6,159.2,262.6z"/>
		<path class="st0" d="M311.5,153.4h-42c-3.8,0-6.9,3.1-6.9,6.9s3.1,6.9,6.9,6.9l0,0h42c3.8,0,6.9-3.1,6.9-6.9
			S315.3,153.4,311.5,153.4z"/>
		<path class="st0" d="M49,152.3H7c-3.8,0-6.9,3.1-6.9,6.9c0,3.8,3.1,6.9,6.9,6.9c0,0,0,0,0,0h42c3.8,0,6.9-3.1,6.9-6.9
			S52.8,152.3,49,152.3L49,152.3z"/>
		<path class="st0" d="M80,78.6L50.3,48.9c-2.7-2.7-7.1-2.7-9.8,0c-2.7,2.7-2.7,7.1,0,9.8l29.7,29.7c2.6,2.8,7,2.8,9.8,0.2
			c2.8-2.6,2.8-7,0.2-9.8C80.1,78.8,80.1,78.7,80,78.6z"/>
		<path class="st0" d="M277.9,48.9c-2.7-2.7-7.1-2.7-9.8,0l-29.7,29.7c-2.7,2.7-2.7,7.1,0,9.8c2.7,2.7,7,2.7,9.7,0c0,0,0,0,0,0
			l29.7-29.7C280.6,56,280.6,51.6,277.9,48.9C277.9,48.9,277.9,48.9,277.9,48.9z"/>
		<path class="st0" d="M80,230c-2.7-2.7-7.1-2.7-9.8,0l-29.7,29.7c-2.7,2.7-2.7,7.1,0,9.8c1.3,1.3,3,2,4.9,2c1.8,0,3.6-0.7,4.9-2
			L80,239.8C82.7,237.1,82.7,232.7,80,230C80,230,80,230,80,230z"/>
		<path class="st0" d="M277.9,259.7L248.2,230c-2.8-2.6-7.1-2.5-9.8,0.2c-2.6,2.7-2.6,6.9,0,9.6l29.7,29.7c2.6,2.8,7,2.8,9.8,0.2
			s2.8-7,0.2-9.8C278.1,259.9,278,259.8,277.9,259.7L277.9,259.7z"/>
	</g>
</g>
</svg>
