<?xml version="1.0" encoding="utf-8"?>
<!-- Generator: Adobe Illustrator 21.0.0, SVG Export Plug-In . SVG Version: 6.00 Build 0)  -->
<svg version="1.1" id="Слой_1" xmlns="http://www.w3.org/2000/svg" xmlns:xlink="http://www.w3.org/1999/xlink" x="0px" y="0px"
	 viewBox="0 0 310.3 306.5" style="enable-background:new 0 0 310.3 306.5;" xml:space="preserve">
<style type="text/css">
	.st0{fill:#F07E48;}
</style>
<title>4_3_icon</title>
<g id="Слой_2">
	<g id="Слой_1-2">
		<path class="st0" d="M309.3,60.1c2.3-4.7,0.5-10.5-4.1-13l-63.9-33.4c-4.7-2.3-10.4-0.5-12.9,4.1l-25.8,48.6l1.2-55.6
			c0-5.3-4.2-9.6-9.5-9.9L122.4,0c-5.2,0.2-9.3,4.3-9.6,9.5L111.7,77L80.5,22.2c-2.7-4.5-8.5-6-13.1-3.6L4.7,54.3
			c-4.5,2.7-6,8.5-3.6,13.1l133.3,234.2c2.6,4.5,8.3,6.2,12.9,3.7l0.1-0.1l62.7-35.6c4.5-2.7,6-8.5,3.4-13l-3.7-6.4l0.4-0.7
			L309.3,60.1z M236.1,20.1l66.5,34.4l-13.8,26.7l-66.2-34.7L236.1,20.1z M218.9,53.9L285,88.6l-14.9,28l-65.8-34.5L218.9,53.9z
			 M202.6,90.7l63.7,33.5l-14.7,28l-49.6-26L202.6,90.7z M201.8,135.8l45.9,24.1L233,187.6l-31.8-16.3L201.8,135.8z M201,180.4
			l28.1,14.7l-14.7,28l-13.9-7.3L201,180.4z M120.7,8.4l74.8,0.9L195,38.9l-74.7-1.2L120.7,8.4z M120.2,46.1l74.7,1.2l-0.6,31.5
			l-74.5-1.2L120.2,46.1z M119.7,86l74.5,1.3l-0.5,31.5l-58.8-1L119.7,91V86z M181,199.2l-18.2-32l30.1,0.5l-0.5,31.5H181z
			 M192.2,207.6v11l-6.3-11H192.2z M158,158.5l-18.2-31.9l53.8,0.9l-0.5,31.5L158,158.5z M7.4,62.4l64.8-37.3L87,50.8l-65.1,37
			L7.4,62.4z M26.1,95.1l65-37l15.7,27.3l-65,37.2L26.1,95.1z M46,129.9l65-37l15.7,27.5l-65,37.1L46,129.9z M65.9,164.7l65-37
			l15.7,27.5l-65.1,37.1L65.9,164.7z M85.8,199.6l65-36.9l15.7,27.5l-65,37L85.8,199.6z M142.2,298.5l-36.6-64l65-37l36.5,64.1
			L142.2,298.5z M205,241.4l-4.8-8.5v-7.7l10.2,5.4L205,241.4z"/>
		<path class="st0" d="M170.9,241.2c-2.9-5-8.2-8.1-13.9-8.1h-0.1c-8.8,0-16,7.2-15.9,16.1c0,8.8,7.2,16,16.1,15.9h0.1
			c8.8-0.1,15.9-7.3,15.9-16.1C172.9,246.2,172.2,243.5,170.9,241.2z M160.6,255.8l-2.2,1.2v-0.5c-4.1,0.7-8-2-8.8-6.1
			c-0.7-4.1,2-8,6.1-8.8c0.4-0.1,0.8-0.1,1.1-0.1l0,0c4.2,0,7.6,3.4,7.6,7.6C164.4,251.8,163,254.4,160.6,255.8L160.6,255.8z"/>
	</g>
</g>
</svg>
