<?xml version="1.0" encoding="utf-8"?>
<!-- Generator: Adobe Illustrator 21.0.0, SVG Export Plug-In . SVG Version: 6.00 Build 0)  -->
<svg version="1.1" id="Слой_1" xmlns="http://www.w3.org/2000/svg" xmlns:xlink="http://www.w3.org/1999/xlink" x="0px" y="0px"
	 viewBox="0 0 250.6 297.8" style="enable-background:new 0 0 250.6 297.8;" xml:space="preserve">
<style type="text/css">
	.st0{fill:#E94A68;}
</style>
<title>5_1_icon</title>
<g id="Слой_2">
	<g id="Слой_1-2">
		<path class="st0" d="M250.4,87.7c-0.4-1.3-1.4-2.4-2.7-2.9l-30.1-11l18.9-66.3c0.7-2.3-0.6-4.7-3-5.4c-0.4-0.1-0.8-0.2-1.2-0.2
			c-1.4,0-2.7,0.7-3.5,1.8L168,88.2c-0.8,1.1-1.1,2.6-0.6,3.9c0.4,1.3,1.5,2.4,2.8,2.8l30.2,9.8l-23,67.5c-0.7,2,0.2,4.3,2.1,5.3
			c0.6,0.3,1.3,0.5,2.1,0.5c1.3,0,2.6-0.6,3.4-1.7l64.8-84.8C250.6,90.5,250.8,89.1,250.4,87.7z M194.1,150l15.9-46.6
			c0.4-1.1,0.3-2.3-0.2-3.4c-0.5-1.1-1.4-1.8-2.6-2.2l-28.7-9.3L221.4,29l-13.2,46.4c-0.6,2.2,0.5,4.5,2.7,5.3l28.3,10.3L194.1,150z
			 M137.6,145.9c-0.4-1.3-1.4-2.4-2.7-2.9l-54.8-20L113.6,5.6c0.6-2-0.4-4.2-2.3-5.2c-1.9-0.9-4.2-0.4-5.4,1.4L0.8,147.7
			c-0.8,1.1-1.1,2.6-0.6,3.9c0.4,1.3,1.5,2.4,2.8,2.8l55.2,17.9L17.4,292c-0.7,2,0.2,4.3,2,5.3c0.6,0.3,1.3,0.5,2,0.5
			c1.4,0,2.7-0.6,3.5-1.7l111.9-146.3C137.7,148.7,138,147.2,137.6,145.9L137.6,145.9z M34.2,269.7l33.6-98.8
			c0.4-1.1,0.3-2.3-0.2-3.4c-0.5-1-1.4-1.8-2.6-2.2l-53.7-17.4L98.4,27l-27.7,97.5c-0.6,2.2,0.5,4.5,2.7,5.3l53,19.3L34.2,269.7z"/>
	</g>
</g>
</svg>
