<?xml version="1.0" encoding="utf-8"?>
<!-- Generator: Adobe Illustrator 21.0.0, SVG Export Plug-In . SVG Version: 6.00 Build 0)  -->
<svg version="1.1" id="Слой_1" xmlns="http://www.w3.org/2000/svg" xmlns:xlink="http://www.w3.org/1999/xlink" x="0px" y="0px"
	 viewBox="0 0 150.3 284.3" style="enable-background:new 0 0 150.3 284.3;" xml:space="preserve">
<style type="text/css">
	.st0{fill:#E94A68;}
</style>
<title>5_2_icon</title>
<g id="Слой_2">
	<g id="Слой_1-2">
		<path class="st0" d="M145.8,0H39.6C23.7,0,10.9,12.8,10.9,28.7c0,3.5,0.6,6.9,1.9,10.2L18,52.7h-2.6c-2.5,0-4.5,2-4.5,4.5v22
			c0,2.5,2,4.5,4.5,4.5h7.1L7.2,135.4c-4.8,16.2-7.2,33-7.2,49.8v94.5c0,2.5,2,4.5,4.5,4.5h98c2.5,0,4.5-2,4.5-4.5v-87.4
			c0-21.7-4-43.1-11.8-63.3L77.7,83.7h9c2.5,0,4.5-2,4.5-4.5v-22c0-2.4-1.9-4.4-4.3-4.5l-5.4-0.3l16.8-9l14.8,29.3
			c4.5,8.9,13.6,14.6,23.6,14.6h0.1c2.5,0,4.5-2,4.5-4.5s-2-4.5-4.5-4.5h-0.1c-6.6,0-12.6-3.7-15.6-9.6l-14.9-29.6L128,27.5h17.9
			c2.5,0,4.5-2,4.5-4.5V4.5C150.4,2,148.3,0,145.8,0C145.8,0,145.8,0,145.8,0z M96.5,170l0.2,1.3c0.9,7,1.3,14.1,1.3,21.1v42.1H40.1
			V170H96.5z M86.8,132.3c3.4,8.7,6,17.7,7.8,26.9L95,161H35.6c-2.5,0-4.5,2-4.5,4.5V239c0,2.5,2,4.5,4.5,4.5H98v31.8H9v-90
			c0-16,2.3-32,6.8-47.3l16-54.3h36.2L86.8,132.3z M82.2,61.7v13H19.9v-13H82.2z M123.3,19.8L62,52.7H27.6l-6.5-17
			c-3.8-10.2,1.3-21.5,11.5-25.4c2.2-0.8,4.6-1.3,7-1.3h83.8V19.8z M141.3,18.5h-9V9h9V18.5z"/>
	</g>
</g>
</svg>
