<?xml version="1.0" encoding="utf-8"?>
<!-- Generator: Adobe Illustrator 21.0.0, SVG Export Plug-In . SVG Version: 6.00 Build 0)  -->
<svg version="1.1" id="Слой_1" xmlns="http://www.w3.org/2000/svg" xmlns:xlink="http://www.w3.org/1999/xlink" x="0px" y="0px"
	 viewBox="0 0 278.1 278.1" style="enable-background:new 0 0 278.1 278.1;" xml:space="preserve">
<style type="text/css">
	.st0{fill:#E94A68;}
</style>
<title>5_3_icon</title>
<g id="Слой_2">
	<g id="Слой_1-2">
		<path class="st0" d="M139.1,278.1C62.6,278.4,0.3,216.7,0,140.2c0-0.4,0-0.7,0-1.1C-0.3,62.6,61.5,0.3,137.9,0c0.4,0,0.7,0,1.1,0
			c37.2,0,72.1,12.9,98.3,36.3s40.8,54.6,40.8,87.8c0,44.4-34.8,79.3-79.3,79.3H172c-9.8,0.2-17.8,8.1-18,17.9c0,4.5,2.3,8,5,12.1
			c4.9,5,7,10.4,7,17.8C166,265.5,153.4,278.1,139.1,278.1z M139.1,9C67.3,9.1,9.1,67.3,9,139.1c0,71.7,58.3,130.1,130.1,130.1
			c9.8-0.2,17.7-8.1,17.9-17.9c0-5.2-1.3-8.4-4.7-11.8l-0.3-0.3l-0.3-0.4c-3.2-4.8-6.8-10.1-6.8-17.4c0-14.4,12.6-26.9,26.9-26.9
			h26.9c39.4,0,70.3-30.9,70.3-70.3C269.1,60.6,210.8,9,139.1,9z M221.3,143.6c-14.4,0-26.9-12.6-26.9-26.9s12.6-26.9,26.9-26.9
			s26.9,12.6,26.9,26.9S235.6,143.6,221.3,143.6z M221.3,98.7c-9.9,0-17.9,8-17.9,17.9s8,17.9,17.9,17.9s17.9-8,17.9-17.9
			C239,106.8,231.1,99,221.3,98.7z M56.8,143.6c-14.3,0-26.9-12.6-26.9-26.9s12.6-26.9,26.9-26.9s26.9,12.6,26.9,26.9
			S71.2,143.6,56.8,143.6z M56.8,98.7c-9.9,0-17.9,8-17.9,17.9c0,9.9,8,17.9,17.9,17.9c9.9,0,17.9-8,17.9-17.9
			C74.8,106.7,66.7,98.7,56.8,98.7z M176.5,83.7c-14.4,0-26.9-12.6-26.9-26.9s12.6-26.9,26.9-26.9s26.9,12.6,26.9,26.9
			S190.8,83.8,176.5,83.7L176.5,83.7z M176.5,38.9c-9.8,0.2-17.7,8.1-17.9,17.9c-0.2,9.9,7.6,18.1,17.5,18.3s18.1-7.6,18.3-17.5
			c0-0.3,0-0.6,0-0.8C194.1,47,186.2,39.1,176.5,38.9L176.5,38.9z M101.7,83.8c-14.3,0-26.9-12.6-26.9-26.9s12.6-26.9,26.9-26.9
			s26.9,12.6,26.9,26.9S116,83.8,101.7,83.8z M101.7,38.9C91.9,39.2,84,47,83.8,56.8c-0.2,9.9,7.6,18.1,17.5,18.3
			c9.9,0.2,18.1-7.6,18.3-17.5c0-0.3,0-0.6,0-0.8C119.4,47,111.5,39.1,101.7,38.9L101.7,38.9z"/>
	</g>
</g>
</svg>
