<svg xmlns="http://www.w3.org/2000/svg" viewBox="0 0 524 524"><defs><style>.cls-1{fill:#eaeaea;stroke:#fcfcfc;stroke-miterlimit:10;stroke-width:12px;}</style></defs><title>gift_icon_1</title><g id="Слой_2" data-name="Слой 2"><g id="Режим_изоляции" data-name="Режим изоляции"><path class="cls-1" d="M473,126H412A75,75,0,0,0,352,6c-24.91,0-43.28,8.93-57.81,28.09-12.15,16-21,38.41-32.19,66.7-11.15-28.29-20-50.67-32.19-66.7C215.28,14.93,196.91,6,172,6a75,75,0,0,0-60,120H51A45.05,45.05,0,0,0,6,171v30a45.07,45.07,0,0,0,30,42.42V473a45.05,45.05,0,0,0,45,45H443a45.05,45.05,0,0,0,45-45V243.42A45.07,45.07,0,0,0,518,201V171A45.05,45.05,0,0,0,473,126ZM289.53,112.74C312.51,54.44,321.25,36,352,36a45,45,0,0,1,0,90H284.29C286.12,121.39,287.88,116.94,289.53,112.74ZM172,36c30.75,0,39.49,18.44,62.47,76.74,1.65,4.2,3.41,8.64,5.24,13.26H172a45,45,0,0,1,0-90Zm30,452H81a15,15,0,0,1-15-15V246H202Zm0-272H51a15,15,0,0,1-15-15V171a15,15,0,0,1,15-15H202Zm90,272H232V156h60Zm166-15a15,15,0,0,1-15,15H322V246H458Zm30-272a15,15,0,0,1-15,15H322V156H473a15,15,0,0,1,15,15Z"/></g></g></svg>