<svg xmlns="http://www.w3.org/2000/svg" viewBox="0 0 43.97 43.97"><defs><style>.cls-1{fill:#ffc24b;}</style></defs><title>mail_icon</title><g id="Слой_2" data-name="Слой 2"><g id="Слой_1-2" data-name="Слой 1"><path class="cls-1" d="M22,0A22,22,0,1,0,44,22,22,22,0,0,0,22,0Zm0,7.72,13,8.11H9ZM35.16,28.79h0a2.35,2.35,0,0,1-2.36,2.36H11.17a2.36,2.36,0,0,1-2.36-2.36V16.35a2.36,2.36,0,0,1,0-.4L21.28,23.7l0,0,0,0a1.29,1.29,0,0,0,.27.11h0a1.36,1.36,0,0,0,.31,0h0a1.33,1.33,0,0,0,.31,0h0a1.29,1.29,0,0,0,.27-.11l.05,0,0,0,12.43-7.75a2.34,2.34,0,0,1,0,.4Zm0,0"/></g></g></svg>