<svg xmlns="http://www.w3.org/2000/svg" viewBox="0 0 44.1 44.1"><defs><style>.cls-1{fill:#ffc24b;}</style></defs><title>phone2_icon</title><g id="Слой_2" data-name="Слой 2"><g id="Слой_1-2" data-name="Слой 1"><path class="cls-1" d="M22.05,0A22.05,22.05,0,1,0,44.1,22.05,22.05,22.05,0,0,0,22.05,0ZM33.7,32.18l-1.77,1.77a3.26,3.26,0,0,1-1.27.51,20.83,20.83,0,0,1-21-21.06,3.29,3.29,0,0,1,.52-1.21l1.77-1.77a3,3,0,0,1,2.76-.65l.37.12a3.49,3.49,0,0,1,2,2.13L18,15.28a3.2,3.2,0,0,1-.73,2.79l-1.18,1.18a12.52,12.52,0,0,0,8.81,8.81L26,26.88a3.2,3.2,0,0,1,2.79-.73l3.26.89a3.49,3.49,0,0,1,2.13,2l.12.38a3,3,0,0,1-.65,2.75Zm0,0"/></g></g></svg>