<?xml version="1.0" encoding="utf-8"?>
<!-- Generator: Adobe Illustrator 21.0.0, SVG Export Plug-In . SVG Version: 6.00 Build 0)  -->
<svg version="1.1" id="Слой_1" xmlns="http://www.w3.org/2000/svg" xmlns:xlink="http://www.w3.org/1999/xlink" x="0px" y="0px"
	 viewBox="0 0 372.3 409.6" style="enable-background:new 0 0 372.3 409.6;" xml:space="preserve">
<style type="text/css">
	.st0{fill:#ff8142;}
</style>
<title>66</title>
<g id="Слой_2">
	<g id="Слой_1-2">
		<path class="st0" d="M365.7,67.5l-0.5-0.1C303.2,56.6,243.9,34.1,190.4,1.2c-2.6-1.6-5.8-1.6-8.4,0C128.8,34,69.8,56.4,8.2,67.2
			l-1.6,0.3c-3.8,0.7-6.6,4-6.6,7.9v104.7c0,110.3,76.7,205.7,184.4,229.3c1.1,0.2,2.3,0.2,3.4,0C295.6,385.7,372.3,290.3,372.3,180
			V75.4C372.3,71.5,369.5,68.1,365.7,67.5z M356.3,180c0,101.4-71.5,190.9-170.2,213.4C87.5,370.9,16,281.5,16,180.1V82
			c60.2-11.1,117.8-33,170.2-64.6c52.4,31.5,110,53.4,170.2,64.6V180z"/>
		<path class="st0" d="M150.8,59.4"/>
		<path class="st0" d="M98.4,254v-17.4c42.9-31.8,55.5-42.6,55.5-55.5c0-9.1-8.3-13.7-17-13.7c-10.7-0.2-20.9,4.2-28.1,12.1
			l-12.7-14.8c10.2-11.8,25.8-17.1,40.4-17.1c22.3,0,40.1,12.6,40.1,33.5c0,17.9-14.8,33.5-42,53.3h42.8V254H98.4z"/>
		<path class="st0" d="M193,240.2l12.4-15.6c7.1,7.4,16.8,11.5,27.8,11.5c12.4,0,19.5-7.1,19.5-15.6c0-9.3-6.9-15.6-18.9-15.6
			c-8.6,0-15.7,2.5-22,8.5l-15.6-4.1v-60.2h72v19.6h-49.6v25.6c5-5,13.5-8.8,23.1-8.8c17.8,0,33.6,12.7,33.6,33.9
			c0,22.3-16.7,36.3-42,36.3C215.2,255.9,202,250,193,240.2z"/>
	</g>
</g>
</svg>
