<?xml version="1.0" encoding="utf-8"?>
<!-- Generator: Adobe Illustrator 21.0.0, SVG Export Plug-In . SVG Version: 6.00 Build 0)  -->
<svg version="1.1" id="Слой_1" xmlns="http://www.w3.org/2000/svg" xmlns:xlink="http://www.w3.org/1999/xlink" x="0px" y="0px"
	 viewBox="0 0 486.2 454.2" style="enable-background:new 0 0 486.2 454.2;" xml:space="preserve">
<style type="text/css">
	.st0{fill:#FFFFFF;}
</style>
<title>55</title>
<g id="Слой_2">
	<g id="Слой_1-2">
		<path class="st0" d="M243.2,454.2c-47.5,0.1-95-4.9-141.5-14.8c-4.3-0.9-9.7-2.8-13.7-9.2c-42.1-67-70.4-141.7-83.4-219.7
			c-2-11.9-3.2-24.1-4.4-35.8l-0.2-1.4c-0.4-4.8,1.2-9.5,4.4-13.1C58.4,101.7,123,53.9,194.8,19.6c8-3.8,16.2-7.4,24.1-10.8
			c5.2-2.2,10.6-4.6,15.8-6.9c5.1-2.4,11-2.5,16.2-0.3C340.1,38,417.1,90.9,480,158.8c0.5,0.6,1.3,1.2,2,1.9c0.5,0.4,1,0.8,1.4,1.3
			l2.8,2.5v10.3l-0.1,0.6c-0.4,2.9-0.8,5.7-1.2,8.6c-0.9,6-1.8,12.3-2.6,18.4c-9.6,71.8-34.1,142-72.6,208.8c-1.6,2.9-3.4,5.7-5,8.4
			c-2.1,3.4-4,6.6-5.9,9.9c-2.7,5.1-7.6,8.7-13.3,9.7c-39.3,8.3-79.2,13.1-119.3,14.6C258.5,454.1,250.8,454.2,243.2,454.2z
			 M17,171.9l0.1,1.2c1.1,11.4,2.3,23.3,4.2,34.7c12.6,75.8,40.1,148.4,81,213.5c0.5,0.8,0.7,1.1,2.9,1.6
			c52.7,11.1,106.5,15.8,160.3,14c39.1-1.4,78.1-6.2,116.4-14.2c1.3-0.3,1.5-0.5,2-1.4c2-3.6,4.1-7.1,6.2-10.5
			c1.6-2.6,3.3-5.4,4.8-8.1c37.4-64.9,61.1-133,70.5-202.6c0.8-6.2,1.7-12.5,2.6-18.6c0.4-2.7,0.8-5.3,1.1-8V172
			c-0.6-0.5-1.1-1.1-1.7-1.7c-61.1-66-136.1-117.5-223-152.9c-0.9-0.5-1.9-0.5-2.8,0c-5.3,2.4-10.8,4.8-16,7
			c-7.8,3.4-15.8,6.8-23.5,10.5c-69.8,33.4-132.6,79.8-185,136.6C17.1,171.6,17,171.7,17,171.9z M17.1,171.4L17.1,171.4z"/>
		<path class="st0" d="M93.7,272.9v-79.8h56.5v15h-39.5v64.8L93.7,272.9z"/>
		<path class="st0" d="M158.1,233c0-24,17.6-41.3,41.6-41.3s41.8,17.3,41.8,41.3s-17.6,41.3-41.8,41.3S158.1,257.1,158.1,233z
			 M224.1,233c0-15-9.6-26.2-24.3-26.2S175.6,218,175.6,233s9.4,26.2,24.2,26.2S224.1,247.9,224.1,233z"/>
		<path class="st0" d="M249.7,233c0-24.5,18.5-41.3,42.5-41.3c17.6,0,27.8,9.6,33.4,19.5l-14.6,7.2c-3.7-7-10.9-11.5-18.8-11.6
			c-14.5,0-25,11.1-25,26.2s10.5,26.2,25,26.2c7.9-0.1,15.2-4.6,18.8-11.6l14.6,7.1c-5.7,9.9-15.8,19.6-33.4,19.6
			C268.2,274.3,249.7,257.6,249.7,233z"/>
		<path class="st0" d="M354.1,272.9V208h-23.3v-15h63.6v15h-23.2v64.8L354.1,272.9z"/>
	</g>
</g>
</svg>
